%TF.GenerationSoftware,KiCad,Pcbnew,(6.0.7)*%
%TF.CreationDate,2023-03-20T00:03:39-04:00*%
%TF.ProjectId,timer,74696d65-722e-46b6-9963-61645f706362,rev?*%
%TF.SameCoordinates,Original*%
%TF.FileFunction,Copper,L1,Top*%
%TF.FilePolarity,Positive*%
%FSLAX46Y46*%
G04 Gerber Fmt 4.6, Leading zero omitted, Abs format (unit mm)*
G04 Created by KiCad (PCBNEW (6.0.7)) date 2023-03-20 00:03:39*
%MOMM*%
%LPD*%
G01*
G04 APERTURE LIST*
G04 Aperture macros list*
%AMRoundRect*
0 Rectangle with rounded corners*
0 $1 Rounding radius*
0 $2 $3 $4 $5 $6 $7 $8 $9 X,Y pos of 4 corners*
0 Add a 4 corners polygon primitive as box body*
4,1,4,$2,$3,$4,$5,$6,$7,$8,$9,$2,$3,0*
0 Add four circle primitives for the rounded corners*
1,1,$1+$1,$2,$3*
1,1,$1+$1,$4,$5*
1,1,$1+$1,$6,$7*
1,1,$1+$1,$8,$9*
0 Add four rect primitives between the rounded corners*
20,1,$1+$1,$2,$3,$4,$5,0*
20,1,$1+$1,$4,$5,$6,$7,0*
20,1,$1+$1,$6,$7,$8,$9,0*
20,1,$1+$1,$8,$9,$2,$3,0*%
G04 Aperture macros list end*
%TA.AperFunction,Profile*%
%ADD10C,0.150000*%
%TD*%
%TA.AperFunction,Profile*%
%ADD11C,0.100000*%
%TD*%
%TA.AperFunction,ComponentPad*%
%ADD12C,1.600000*%
%TD*%
%TA.AperFunction,ComponentPad*%
%ADD13C,3.000000*%
%TD*%
%TA.AperFunction,ComponentPad*%
%ADD14O,1.600000X1.600000*%
%TD*%
%TA.AperFunction,ComponentPad*%
%ADD15R,1.600000X1.600000*%
%TD*%
%TA.AperFunction,ComponentPad*%
%ADD16RoundRect,0.250000X-1.750000X-1.750000X1.750000X-1.750000X1.750000X1.750000X-1.750000X1.750000X0*%
%TD*%
%TA.AperFunction,ComponentPad*%
%ADD17C,4.000000*%
%TD*%
%TA.AperFunction,ComponentPad*%
%ADD18O,3.048000X1.850000*%
%TD*%
%TA.AperFunction,ComponentPad*%
%ADD19C,1.400000*%
%TD*%
%TA.AperFunction,ComponentPad*%
%ADD20O,1.400000X1.400000*%
%TD*%
%TA.AperFunction,ComponentPad*%
%ADD21O,2.000000X2.600000*%
%TD*%
%TA.AperFunction,ComponentPad*%
%ADD22RoundRect,0.250000X-0.750000X-1.050000X0.750000X-1.050000X0.750000X1.050000X-0.750000X1.050000X0*%
%TD*%
%TA.AperFunction,Conductor*%
%ADD23C,0.250000*%
%TD*%
%TA.AperFunction,Conductor*%
%ADD24C,0.400000*%
%TD*%
G04 APERTURE END LIST*
D10*
X121500000Y-60000000D02*
G75*
G03*
X121500000Y-60000000I-1500000J0D01*
G01*
X212500000Y-60000000D02*
G75*
G03*
X212500000Y-60000000I-1500000J0D01*
G01*
X121500000Y-110000000D02*
G75*
G03*
X121500000Y-110000000I-1500000J0D01*
G01*
D11*
X117000000Y-55000000D02*
X217000000Y-55000000D01*
X217000000Y-55000000D02*
X217000000Y-115000000D01*
X217000000Y-115000000D02*
X117000000Y-115000000D01*
X117000000Y-115000000D02*
X117000000Y-55000000D01*
D10*
X212500000Y-110000000D02*
G75*
G03*
X212500000Y-110000000I-1500000J0D01*
G01*
D12*
%TO.P,3.3V,*%
%TO.N,unconnected-(A1-Pad17)*%
X190170000Y-63424000D03*
%TD*%
%TO.P,D13,*%
%TO.N,unconnected-(A1-Pad16)*%
X192710000Y-63424000D03*
%TD*%
%TO.P,A1,*%
%TO.N,unconnected-(A1-Pad20)*%
X182550000Y-63424000D03*
%TD*%
%TO.P,A0,*%
%TO.N,unconnected-(A1-Pad19)*%
X185090000Y-63424000D03*
%TD*%
%TO.P,A2,*%
%TO.N,unconnected-(A1-Pad21)*%
X180010000Y-63424000D03*
%TD*%
%TO.P,A4,*%
%TO.N,unconnected-(A1-Pad23)*%
X174930000Y-63424000D03*
%TD*%
%TO.P,A6,*%
%TO.N,unconnected-(A1-Pad25)*%
X169850000Y-63424000D03*
%TD*%
%TO.P,A3,*%
%TO.N,unconnected-(A1-Pad22)*%
X177470000Y-63424000D03*
%TD*%
%TO.P,A5,*%
%TO.N,unconnected-(A1-Pad24)*%
X172390000Y-63424000D03*
%TD*%
%TO.P,A7,*%
%TO.N,unconnected-(A1-Pad26)*%
X167310000Y-63424000D03*
%TD*%
%TO.P,D12,*%
%TO.N,unconnected-(A1-Pad15)*%
X192710000Y-85776000D03*
%TD*%
%TO.P,D11,*%
%TO.N,unconnected-(A1-Pad14)*%
X190170000Y-85776000D03*
%TD*%
%TO.P,D10,*%
%TO.N,unconnected-(A1-Pad13)*%
X187630000Y-85776000D03*
%TD*%
%TO.P,D9,*%
%TO.N,unconnected-(A1-Pad12)*%
X185090000Y-85776000D03*
%TD*%
%TO.P,D8,*%
%TO.N,unconnected-(A1-Pad11)*%
X182550000Y-85776000D03*
%TD*%
D13*
%TO.P,Relay,11*%
%TO.N,Net-(K2-Pad11)*%
X132800000Y-60950000D03*
%TO.P,Relay,12*%
%TO.N,unconnected-(K2-Pad12)*%
X138800000Y-75150000D03*
%TO.P,Relay,14*%
%TO.N,Net-(V2-Pad2)*%
X126800000Y-75150000D03*
%TO.P,Relay,A1*%
X126800000Y-62950000D03*
%TO.P,Relay,A2*%
%TO.N,Net-(LS1-Pad1)*%
X138800000Y-62950000D03*
%TD*%
D14*
%TO.P,A1,30,VIN*%
%TO.N,Net-(LS1-Pad2)*%
X157150000Y-66970000D03*
%TO.P,A1,29,GND*%
%TO.N,Net-(V2-Pad2)*%
X159690000Y-66970000D03*
%TO.P,A1,28,~{RESET}*%
%TO.N,unconnected-(A1-Pad28)*%
X162230000Y-66970000D03*
%TO.P,A1,27,+5V*%
%TO.N,Net-(SW1-Pad1)*%
X164770000Y-66970000D03*
%TO.P,A1,26,A7*%
%TO.N,unconnected-(A1-Pad26)*%
X167310000Y-66970000D03*
%TO.P,A1,25,A6*%
%TO.N,unconnected-(A1-Pad25)*%
X169850000Y-66970000D03*
%TO.P,A1,24,A5*%
%TO.N,unconnected-(A1-Pad24)*%
X172390000Y-66970000D03*
%TO.P,A1,23,A4*%
%TO.N,unconnected-(A1-Pad23)*%
X174930000Y-66970000D03*
%TO.P,A1,22,A3*%
%TO.N,unconnected-(A1-Pad22)*%
X177470000Y-66970000D03*
%TO.P,A1,21,A2*%
%TO.N,unconnected-(A1-Pad21)*%
X180010000Y-66970000D03*
%TO.P,A1,20,A1*%
%TO.N,unconnected-(A1-Pad20)*%
X182550000Y-66970000D03*
%TO.P,A1,19,A0*%
%TO.N,unconnected-(A1-Pad19)*%
X185090000Y-66970000D03*
%TO.P,A1,18,AREF*%
%TO.N,unconnected-(A1-Pad18)*%
X187630000Y-66970000D03*
%TO.P,A1,17,3V3*%
%TO.N,unconnected-(A1-Pad17)*%
X190170000Y-66970000D03*
%TO.P,A1,16,D13*%
%TO.N,unconnected-(A1-Pad16)*%
X192710000Y-66970000D03*
%TO.P,A1,15,D12*%
%TO.N,unconnected-(A1-Pad15)*%
X192710000Y-82210000D03*
%TO.P,A1,14,D11*%
%TO.N,unconnected-(A1-Pad14)*%
X190170000Y-82210000D03*
%TO.P,A1,13,D10*%
%TO.N,unconnected-(A1-Pad13)*%
X187630000Y-82210000D03*
%TO.P,A1,12,D9*%
%TO.N,unconnected-(A1-Pad12)*%
X185090000Y-82210000D03*
%TO.P,A1,11,D8*%
%TO.N,unconnected-(A1-Pad11)*%
X182550000Y-82210000D03*
%TO.P,A1,10,D7*%
%TO.N,Net-(R5-Pad2)*%
X180010000Y-82210000D03*
%TO.P,A1,9,D6*%
%TO.N,Net-(R3-Pad2)*%
X177470000Y-82210000D03*
%TO.P,A1,8,D5*%
%TO.N,Net-(R2-Pad2)*%
X174930000Y-82210000D03*
%TO.P,A1,7,D4*%
%TO.N,Net-(R1-Pad2)*%
X172390000Y-82210000D03*
%TO.P,A1,6,D3*%
%TO.N,unconnected-(A1-Pad6)*%
X169850000Y-82210000D03*
%TO.P,A1,5,D2*%
%TO.N,Net-(K2-Pad11)*%
X167310000Y-82210000D03*
%TO.P,A1,4,GND*%
%TO.N,unconnected-(A1-Pad4)*%
X164770000Y-82210000D03*
%TO.P,A1,3,~{RESET}*%
%TO.N,unconnected-(A1-Pad3)*%
X162230000Y-82210000D03*
%TO.P,A1,2,D0/RX*%
%TO.N,unconnected-(A1-Pad2)*%
X159690000Y-82210000D03*
D15*
%TO.P,A1,1,D1/TX*%
%TO.N,unconnected-(A1-Pad1)*%
X157150000Y-82210000D03*
%TD*%
D16*
%TO.P,Battery,1,+*%
%TO.N,Net-(LS1-Pad2)*%
X133020000Y-87300000D03*
D17*
%TO.P,Battery,2,-*%
%TO.N,Net-(V2-Pad2)*%
X140220000Y-87300000D03*
%TD*%
D18*
%TO.P,SW4,1,1*%
%TO.N,Net-(R5-Pad2)*%
X207840000Y-102500000D03*
X195340000Y-102500000D03*
%TO.P,SW4,2,2*%
%TO.N,Net-(SW1-Pad1)*%
X207840000Y-97500000D03*
X195340000Y-97500000D03*
%TD*%
%TO.P,SW3,1,1*%
%TO.N,Net-(R3-Pad2)*%
X187520000Y-102500000D03*
X175020000Y-102500000D03*
%TO.P,SW3,2,2*%
%TO.N,Net-(SW1-Pad1)*%
X187520000Y-97500000D03*
X175020000Y-97500000D03*
%TD*%
%TO.P,SW2,1,1*%
%TO.N,Net-(SW1-Pad1)*%
X154720000Y-97460000D03*
X167220000Y-97460000D03*
%TO.P,SW2,2,2*%
%TO.N,Net-(R2-Pad2)*%
X154720000Y-102460000D03*
X167220000Y-102460000D03*
%TD*%
%TO.P,SW1,1,1*%
%TO.N,Net-(SW1-Pad1)*%
X134400000Y-97500000D03*
X146900000Y-97500000D03*
%TO.P,SW1,2,2*%
%TO.N,Net-(R1-Pad2)*%
X134400000Y-102500000D03*
X146900000Y-102500000D03*
%TD*%
D19*
%TO.P,R5,1*%
%TO.N,Net-(V2-Pad2)*%
X211760000Y-96190000D03*
D20*
%TO.P,R5,2*%
%TO.N,Net-(R5-Pad2)*%
X211760000Y-103810000D03*
%TD*%
D19*
%TO.P,R3,1*%
%TO.N,Net-(V2-Pad2)*%
X191440000Y-96190000D03*
D20*
%TO.P,R3,2*%
%TO.N,Net-(R3-Pad2)*%
X191440000Y-103810000D03*
%TD*%
D19*
%TO.P,R2,1*%
%TO.N,Net-(V2-Pad2)*%
X171120000Y-96190000D03*
D20*
%TO.P,R2,2*%
%TO.N,Net-(R2-Pad2)*%
X171120000Y-103810000D03*
%TD*%
%TO.P,R1,2*%
%TO.N,Net-(R1-Pad2)*%
X150800000Y-103810000D03*
D19*
%TO.P,R1,1*%
%TO.N,Net-(V2-Pad2)*%
X150800000Y-96190000D03*
%TD*%
D21*
%TO.P,Speaker,2,2*%
%TO.N,Net-(LS1-Pad2)*%
X126360000Y-87300000D03*
D22*
%TO.P,Speaker,1,1*%
%TO.N,Net-(LS1-Pad1)*%
X122860000Y-87300000D03*
%TD*%
D23*
%TO.N,Net-(SW1-Pad1)*%
X195340000Y-97500000D02*
X207840000Y-97500000D01*
X187520000Y-97500000D02*
X195340000Y-97500000D01*
X175020000Y-97500000D02*
X187520000Y-97500000D01*
X174980000Y-97460000D02*
X175020000Y-97500000D01*
X167220000Y-97460000D02*
X174980000Y-97460000D01*
X154720000Y-97460000D02*
X167220000Y-97460000D01*
%TO.N,Net-(V2-Pad2)*%
X150800000Y-96190000D02*
X140220000Y-87300000D01*
X140220000Y-87300000D02*
X159690000Y-66970000D01*
%TO.N,Net-(K2-Pad11)*%
X155203491Y-60892500D02*
X133020000Y-60892500D01*
X160815000Y-66504009D02*
X155203491Y-60892500D01*
X160960000Y-71552000D02*
X160815000Y-66504009D01*
X167310000Y-82210000D02*
X160960000Y-71552000D01*
D24*
%TO.N,Net-(LS1-Pad2)*%
X133020000Y-87300000D02*
X157150000Y-66970000D01*
D23*
%TO.N,Net-(LS1-Pad1)*%
X122860000Y-87300000D02*
X138800000Y-62950000D01*
%TO.N,Net-(V2-Pad2)*%
X191440000Y-96190000D02*
X191440000Y-94158000D01*
X191440000Y-94158000D02*
X171120000Y-94158000D01*
X209728000Y-94158000D02*
X191440000Y-94158000D01*
X171120000Y-96190000D02*
X171120000Y-94158000D01*
X171120000Y-94158000D02*
X152832000Y-94158000D01*
X152832000Y-94158000D02*
X150800000Y-96190000D01*
X211760000Y-96190000D02*
X209728000Y-94158000D01*
%TO.N,unconnected-(A1-Pad15)*%
X192710000Y-85776000D02*
X192710000Y-82210000D01*
%TO.N,unconnected-(A1-Pad14)*%
X190170000Y-85776000D02*
X190170000Y-82210000D01*
%TO.N,unconnected-(A1-Pad13)*%
X187630000Y-85776000D02*
X187630000Y-82210000D01*
%TO.N,unconnected-(A1-Pad12)*%
X185090000Y-85776000D02*
X185090000Y-82210000D01*
%TO.N,unconnected-(A1-Pad11)*%
X182550000Y-85776000D02*
X182550000Y-82210000D01*
%TO.N,unconnected-(A1-Pad16)*%
X192710000Y-66970000D02*
X192710000Y-63424000D01*
%TO.N,unconnected-(A1-Pad17)*%
X190170000Y-66970000D02*
X190170000Y-63424000D01*
%TO.N,unconnected-(A1-Pad19)*%
X185090000Y-66726000D02*
X185090000Y-63424000D01*
X184846000Y-66970000D02*
X185090000Y-66726000D01*
X185090000Y-66970000D02*
X184846000Y-66970000D01*
%TO.N,unconnected-(A1-Pad20)*%
X182550000Y-66970000D02*
X182550000Y-63424000D01*
%TO.N,unconnected-(A1-Pad21)*%
X180010000Y-66970000D02*
X180010000Y-63424000D01*
%TO.N,unconnected-(A1-Pad22)*%
X177470000Y-66970000D02*
X177470000Y-66980000D01*
X177470000Y-66980000D02*
X177470000Y-63424000D01*
%TO.N,unconnected-(A1-Pad23)*%
X174930000Y-66970000D02*
X174930000Y-63424000D01*
%TO.N,unconnected-(A1-Pad24)*%
X172390000Y-66970000D02*
X172390000Y-63424000D01*
%TO.N,unconnected-(A1-Pad25)*%
X169850000Y-66970000D02*
X169850000Y-63424000D01*
%TO.N,unconnected-(A1-Pad26)*%
X167310000Y-66970000D02*
X167310000Y-63424000D01*
%TO.N,Net-(R5-Pad2)*%
X207840000Y-102500000D02*
X210450000Y-102500000D01*
X210450000Y-102500000D02*
X211760000Y-103810000D01*
%TO.N,Net-(R3-Pad2)*%
X190130000Y-102500000D02*
X191440000Y-103810000D01*
X187520000Y-102500000D02*
X190130000Y-102500000D01*
%TO.N,Net-(R2-Pad2)*%
X169770000Y-102460000D02*
X171120000Y-103810000D01*
X167220000Y-102460000D02*
X169770000Y-102460000D01*
%TO.N,Net-(SW1-Pad1)*%
X135600000Y-97500000D02*
X146900000Y-97500000D01*
X135560000Y-97460000D02*
X135600000Y-97500000D01*
X135520000Y-97500000D02*
X135560000Y-97460000D01*
X134400000Y-97500000D02*
X135520000Y-97500000D01*
X155840000Y-97500000D02*
X155880000Y-97460000D01*
X146900000Y-97500000D02*
X155840000Y-97500000D01*
D24*
%TO.N,Net-(LS1-Pad2)*%
X126360000Y-87300000D02*
X133020000Y-87300000D01*
D23*
%TO.N,Net-(R1-Pad2)*%
X149490000Y-102500000D02*
X150800000Y-103810000D01*
X146900000Y-102500000D02*
X149490000Y-102500000D01*
%TD*%
M02*
