%TF.GenerationSoftware,KiCad,Pcbnew,(6.0.7)*%
%TF.CreationDate,2023-03-20T00:03:39-04:00*%
%TF.ProjectId,timer,74696d65-722e-46b6-9963-61645f706362,rev?*%
%TF.SameCoordinates,Original*%
%TF.FileFunction,Other,User*%
%FSLAX46Y46*%
G04 Gerber Fmt 4.6, Leading zero omitted, Abs format (unit mm)*
G04 Created by KiCad (PCBNEW (6.0.7)) date 2023-03-20 00:03:39*
%MOMM*%
%LPD*%
G01*
G04 APERTURE LIST*
%TA.AperFunction,Profile*%
%ADD10C,0.150000*%
%TD*%
%TA.AperFunction,Profile*%
%ADD11C,0.100000*%
%TD*%
%ADD12C,0.050000*%
G04 APERTURE END LIST*
D10*
X121500000Y-60000000D02*
G75*
G03*
X121500000Y-60000000I-1500000J0D01*
G01*
X212500000Y-60000000D02*
G75*
G03*
X212500000Y-60000000I-1500000J0D01*
G01*
X121500000Y-110000000D02*
G75*
G03*
X121500000Y-110000000I-1500000J0D01*
G01*
D11*
X117000000Y-55000000D02*
X217000000Y-55000000D01*
X217000000Y-55000000D02*
X217000000Y-115000000D01*
X217000000Y-115000000D02*
X117000000Y-115000000D01*
X117000000Y-115000000D02*
X117000000Y-55000000D01*
D10*
X212500000Y-110000000D02*
G75*
G03*
X212500000Y-110000000I-1500000J0D01*
G01*
D12*
%TO.C,3.3V*%
X190870000Y-63424000D02*
G75*
G03*
X190870000Y-63424000I-700000J0D01*
G01*
%TO.C,D13*%
X193410000Y-63424000D02*
G75*
G03*
X193410000Y-63424000I-700000J0D01*
G01*
%TO.C,A1*%
X183250000Y-63424000D02*
G75*
G03*
X183250000Y-63424000I-700000J0D01*
G01*
%TO.C,A0*%
X185790000Y-63424000D02*
G75*
G03*
X185790000Y-63424000I-700000J0D01*
G01*
%TO.C,A2*%
X180710000Y-63424000D02*
G75*
G03*
X180710000Y-63424000I-700000J0D01*
G01*
%TO.C,A4*%
X175630000Y-63424000D02*
G75*
G03*
X175630000Y-63424000I-700000J0D01*
G01*
%TO.C,A6*%
X170550000Y-63424000D02*
G75*
G03*
X170550000Y-63424000I-700000J0D01*
G01*
%TO.C,A3*%
X178170000Y-63424000D02*
G75*
G03*
X178170000Y-63424000I-700000J0D01*
G01*
%TO.C,A5*%
X173090000Y-63424000D02*
G75*
G03*
X173090000Y-63424000I-700000J0D01*
G01*
%TO.C,A7*%
X168010000Y-63424000D02*
G75*
G03*
X168010000Y-63424000I-700000J0D01*
G01*
%TO.C,D12*%
X193410000Y-85776000D02*
G75*
G03*
X193410000Y-85776000I-700000J0D01*
G01*
%TO.C,D11*%
X190870000Y-85776000D02*
G75*
G03*
X190870000Y-85776000I-700000J0D01*
G01*
%TO.C,D10*%
X188330000Y-85776000D02*
G75*
G03*
X188330000Y-85776000I-700000J0D01*
G01*
%TO.C,D9*%
X185790000Y-85776000D02*
G75*
G03*
X185790000Y-85776000I-700000J0D01*
G01*
%TO.C,D8*%
X183250000Y-85776000D02*
G75*
G03*
X183250000Y-85776000I-700000J0D01*
G01*
%TO.C,Relay*%
X140650000Y-78800000D02*
X124950000Y-78800000D01*
X124950000Y-59200000D02*
X140650000Y-59200000D01*
X140650000Y-78800000D02*
X140650000Y-59200000D01*
X124950000Y-59200000D02*
X124950000Y-78800000D01*
%TO.C,A1*%
X199310000Y-65460000D02*
X153090000Y-65460000D01*
X153090000Y-83740000D02*
X153090000Y-65460000D01*
X199310000Y-65460000D02*
X199310000Y-83740000D01*
X153090000Y-83740000D02*
X199310000Y-83740000D01*
%TO.C,Battery*%
X137670000Y-89800000D02*
X142770000Y-89800000D01*
X130470000Y-84800000D02*
X130470000Y-89800000D01*
X135570000Y-84800000D02*
X130470000Y-84800000D01*
X130470000Y-89800000D02*
X135570000Y-89800000D01*
X142770000Y-89800000D02*
X142770000Y-84800000D01*
X142770000Y-84800000D02*
X137670000Y-84800000D01*
X135570000Y-89800000D02*
X135570000Y-84800000D01*
X137670000Y-84800000D02*
X137670000Y-89800000D01*
%TO.C,SW4*%
X209610000Y-106250000D02*
X193590000Y-106250000D01*
X193590000Y-93750000D02*
X193590000Y-106250000D01*
X193590000Y-93750000D02*
X209610000Y-93750000D01*
X209610000Y-106250000D02*
X209610000Y-93750000D01*
%TO.C,SW3*%
X189290000Y-106250000D02*
X173270000Y-106250000D01*
X173270000Y-93750000D02*
X173270000Y-106250000D01*
X173270000Y-93750000D02*
X189290000Y-93750000D01*
X189290000Y-106250000D02*
X189290000Y-93750000D01*
%TO.C,SW2*%
X152950000Y-93710000D02*
X168970000Y-93710000D01*
X168970000Y-106210000D02*
X168970000Y-93710000D01*
X168970000Y-106210000D02*
X152950000Y-106210000D01*
X152950000Y-93710000D02*
X152950000Y-106210000D01*
%TO.C,SW1*%
X132630000Y-93750000D02*
X148650000Y-93750000D01*
X148650000Y-106250000D02*
X148650000Y-93750000D01*
X148650000Y-106250000D02*
X132630000Y-106250000D01*
X132630000Y-93750000D02*
X132630000Y-106250000D01*
%TO.C,R5*%
X210710000Y-104760000D02*
X212810000Y-104760000D01*
X210710000Y-95240000D02*
X210710000Y-104760000D01*
X212810000Y-104760000D02*
X212810000Y-95240000D01*
X212810000Y-95240000D02*
X210710000Y-95240000D01*
%TO.C,R3*%
X190390000Y-104760000D02*
X192490000Y-104760000D01*
X190390000Y-95240000D02*
X190390000Y-104760000D01*
X192490000Y-104760000D02*
X192490000Y-95240000D01*
X192490000Y-95240000D02*
X190390000Y-95240000D01*
%TO.C,R2*%
X170070000Y-104760000D02*
X172170000Y-104760000D01*
X170070000Y-95240000D02*
X170070000Y-104760000D01*
X172170000Y-104760000D02*
X172170000Y-95240000D01*
X172170000Y-95240000D02*
X170070000Y-95240000D01*
%TO.C,R1*%
X151850000Y-95240000D02*
X149750000Y-95240000D01*
X151850000Y-104760000D02*
X151850000Y-95240000D01*
X149750000Y-95240000D02*
X149750000Y-104760000D01*
X149750000Y-104760000D02*
X151850000Y-104760000D01*
%TO.C,Speaker*%
X119560000Y-82650000D02*
X119560000Y-92150000D01*
X119560000Y-92150000D02*
X129960000Y-92150000D01*
X129960000Y-82650000D02*
X119560000Y-82650000D01*
X129960000Y-92150000D02*
X129960000Y-82650000D01*
%TD*%
M02*
