%TF.GenerationSoftware,KiCad,Pcbnew,(6.0.7)*%
%TF.CreationDate,2023-03-20T00:03:39-04:00*%
%TF.ProjectId,timer,74696d65-722e-46b6-9963-61645f706362,rev?*%
%TF.SameCoordinates,Original*%
%TF.FileFunction,Legend,Top*%
%TF.FilePolarity,Positive*%
%FSLAX46Y46*%
G04 Gerber Fmt 4.6, Leading zero omitted, Abs format (unit mm)*
G04 Created by KiCad (PCBNEW (6.0.7)) date 2023-03-20 00:03:39*
%MOMM*%
%LPD*%
G01*
G04 APERTURE LIST*
%ADD10C,0.150000*%
%TA.AperFunction,Profile*%
%ADD11C,0.150000*%
%TD*%
%ADD12C,0.300000*%
%TA.AperFunction,Profile*%
%ADD13C,0.100000*%
%TD*%
%ADD14C,0.120000*%
G04 APERTURE END LIST*
D10*
X132639047Y-84069428D02*
X133400952Y-84069428D01*
X133020000Y-84450380D02*
X133020000Y-83688476D01*
D11*
X121500000Y-60000000D02*
G75*
G03*
X121500000Y-60000000I-1500000J0D01*
G01*
X212500000Y-60000000D02*
G75*
G03*
X212500000Y-60000000I-1500000J0D01*
G01*
D12*
X126971485Y-113154742D02*
X127185771Y-113226171D01*
X127542914Y-113226171D01*
X127685771Y-113154742D01*
X127757200Y-113083314D01*
X127828628Y-112940457D01*
X127828628Y-112797600D01*
X127757200Y-112654742D01*
X127685771Y-112583314D01*
X127542914Y-112511885D01*
X127257200Y-112440457D01*
X127114342Y-112369028D01*
X127042914Y-112297600D01*
X126971485Y-112154742D01*
X126971485Y-112011885D01*
X127042914Y-111869028D01*
X127114342Y-111797600D01*
X127257200Y-111726171D01*
X127614342Y-111726171D01*
X127828628Y-111797600D01*
X129114342Y-113226171D02*
X129114342Y-112440457D01*
X129042914Y-112297600D01*
X128900057Y-112226171D01*
X128614342Y-112226171D01*
X128471485Y-112297600D01*
X129114342Y-113154742D02*
X128971485Y-113226171D01*
X128614342Y-113226171D01*
X128471485Y-113154742D01*
X128400057Y-113011885D01*
X128400057Y-112869028D01*
X128471485Y-112726171D01*
X128614342Y-112654742D01*
X128971485Y-112654742D01*
X129114342Y-112583314D01*
X129828628Y-113226171D02*
X129828628Y-112226171D01*
X129828628Y-111726171D02*
X129757200Y-111797600D01*
X129828628Y-111869028D01*
X129900057Y-111797600D01*
X129828628Y-111726171D01*
X129828628Y-111869028D01*
X130757200Y-113226171D02*
X130614342Y-113154742D01*
X130542914Y-113011885D01*
X130542914Y-111726171D01*
X131328628Y-113226171D02*
X131328628Y-112226171D01*
X131328628Y-111726171D02*
X131257200Y-111797600D01*
X131328628Y-111869028D01*
X131400057Y-111797600D01*
X131328628Y-111726171D01*
X131328628Y-111869028D01*
X132042914Y-112226171D02*
X132042914Y-113226171D01*
X132042914Y-112369028D02*
X132114342Y-112297600D01*
X132257200Y-112226171D01*
X132471485Y-112226171D01*
X132614342Y-112297600D01*
X132685771Y-112440457D01*
X132685771Y-113226171D01*
X134042914Y-112226171D02*
X134042914Y-113440457D01*
X133971485Y-113583314D01*
X133900057Y-113654742D01*
X133757200Y-113726171D01*
X133542914Y-113726171D01*
X133400057Y-113654742D01*
X134042914Y-113154742D02*
X133900057Y-113226171D01*
X133614342Y-113226171D01*
X133471485Y-113154742D01*
X133400057Y-113083314D01*
X133328628Y-112940457D01*
X133328628Y-112511885D01*
X133400057Y-112369028D01*
X133471485Y-112297600D01*
X133614342Y-112226171D01*
X133900057Y-112226171D01*
X134042914Y-112297600D01*
X136757200Y-113083314D02*
X136685771Y-113154742D01*
X136471485Y-113226171D01*
X136328628Y-113226171D01*
X136114342Y-113154742D01*
X135971485Y-113011885D01*
X135900057Y-112869028D01*
X135828628Y-112583314D01*
X135828628Y-112369028D01*
X135900057Y-112083314D01*
X135971485Y-111940457D01*
X136114342Y-111797600D01*
X136328628Y-111726171D01*
X136471485Y-111726171D01*
X136685771Y-111797600D01*
X136757200Y-111869028D01*
X137614342Y-113226171D02*
X137471485Y-113154742D01*
X137400057Y-113083314D01*
X137328628Y-112940457D01*
X137328628Y-112511885D01*
X137400057Y-112369028D01*
X137471485Y-112297600D01*
X137614342Y-112226171D01*
X137828628Y-112226171D01*
X137971485Y-112297600D01*
X138042914Y-112369028D01*
X138114342Y-112511885D01*
X138114342Y-112940457D01*
X138042914Y-113083314D01*
X137971485Y-113154742D01*
X137828628Y-113226171D01*
X137614342Y-113226171D01*
X139400057Y-112226171D02*
X139400057Y-113226171D01*
X138757200Y-112226171D02*
X138757200Y-113011885D01*
X138828628Y-113154742D01*
X138971485Y-113226171D01*
X139185771Y-113226171D01*
X139328628Y-113154742D01*
X139400057Y-113083314D01*
X140114342Y-112226171D02*
X140114342Y-113226171D01*
X140114342Y-112369028D02*
X140185771Y-112297600D01*
X140328628Y-112226171D01*
X140542914Y-112226171D01*
X140685771Y-112297600D01*
X140757200Y-112440457D01*
X140757200Y-113226171D01*
X141257200Y-112226171D02*
X141828628Y-112226171D01*
X141471485Y-111726171D02*
X141471485Y-113011885D01*
X141542914Y-113154742D01*
X141685771Y-113226171D01*
X141828628Y-113226171D01*
X142971485Y-113226171D02*
X142971485Y-111726171D01*
X142971485Y-113154742D02*
X142828628Y-113226171D01*
X142542914Y-113226171D01*
X142400057Y-113154742D01*
X142328628Y-113083314D01*
X142257200Y-112940457D01*
X142257200Y-112511885D01*
X142328628Y-112369028D01*
X142400057Y-112297600D01*
X142542914Y-112226171D01*
X142828628Y-112226171D01*
X142971485Y-112297600D01*
X143900057Y-113226171D02*
X143757200Y-113154742D01*
X143685771Y-113083314D01*
X143614342Y-112940457D01*
X143614342Y-112511885D01*
X143685771Y-112369028D01*
X143757200Y-112297600D01*
X143900057Y-112226171D01*
X144114342Y-112226171D01*
X144257200Y-112297600D01*
X144328628Y-112369028D01*
X144400057Y-112511885D01*
X144400057Y-112940457D01*
X144328628Y-113083314D01*
X144257200Y-113154742D01*
X144114342Y-113226171D01*
X143900057Y-113226171D01*
X144900057Y-112226171D02*
X145185771Y-113226171D01*
X145471485Y-112511885D01*
X145757200Y-113226171D01*
X146042914Y-112226171D01*
X146614342Y-112226171D02*
X146614342Y-113226171D01*
X146614342Y-112369028D02*
X146685771Y-112297600D01*
X146828628Y-112226171D01*
X147042914Y-112226171D01*
X147185771Y-112297600D01*
X147257200Y-112440457D01*
X147257200Y-113226171D01*
X148900057Y-111726171D02*
X149757200Y-111726171D01*
X149328628Y-113226171D02*
X149328628Y-111726171D01*
X150257200Y-113226171D02*
X150257200Y-112226171D01*
X150257200Y-111726171D02*
X150185771Y-111797600D01*
X150257200Y-111869028D01*
X150328628Y-111797600D01*
X150257200Y-111726171D01*
X150257200Y-111869028D01*
X150971485Y-113226171D02*
X150971485Y-112226171D01*
X150971485Y-112369028D02*
X151042914Y-112297600D01*
X151185771Y-112226171D01*
X151400057Y-112226171D01*
X151542914Y-112297600D01*
X151614342Y-112440457D01*
X151614342Y-113226171D01*
X151614342Y-112440457D02*
X151685771Y-112297600D01*
X151828628Y-112226171D01*
X152042914Y-112226171D01*
X152185771Y-112297600D01*
X152257200Y-112440457D01*
X152257200Y-113226171D01*
X153542914Y-113154742D02*
X153400057Y-113226171D01*
X153114342Y-113226171D01*
X152971485Y-113154742D01*
X152900057Y-113011885D01*
X152900057Y-112440457D01*
X152971485Y-112297600D01*
X153114342Y-112226171D01*
X153400057Y-112226171D01*
X153542914Y-112297600D01*
X153614342Y-112440457D01*
X153614342Y-112583314D01*
X152900057Y-112726171D01*
X154257200Y-113226171D02*
X154257200Y-112226171D01*
X154257200Y-112511885D02*
X154328628Y-112369028D01*
X154400057Y-112297600D01*
X154542914Y-112226171D01*
X154685771Y-112226171D01*
X156328628Y-112654742D02*
X157471485Y-112654742D01*
X159828628Y-112440457D02*
X160042914Y-112511885D01*
X160114342Y-112583314D01*
X160185771Y-112726171D01*
X160185771Y-112940457D01*
X160114342Y-113083314D01*
X160042914Y-113154742D01*
X159900057Y-113226171D01*
X159328628Y-113226171D01*
X159328628Y-111726171D01*
X159828628Y-111726171D01*
X159971485Y-111797600D01*
X160042914Y-111869028D01*
X160114342Y-112011885D01*
X160114342Y-112154742D01*
X160042914Y-112297600D01*
X159971485Y-112369028D01*
X159828628Y-112440457D01*
X159328628Y-112440457D01*
X160828628Y-113226171D02*
X160828628Y-112226171D01*
X160828628Y-112511885D02*
X160900057Y-112369028D01*
X160971485Y-112297600D01*
X161114342Y-112226171D01*
X161257200Y-112226171D01*
X161757200Y-113226171D02*
X161757200Y-112226171D01*
X161757200Y-111726171D02*
X161685771Y-111797600D01*
X161757200Y-111869028D01*
X161828628Y-111797600D01*
X161757200Y-111726171D01*
X161757200Y-111869028D01*
X163114342Y-113226171D02*
X163114342Y-112440457D01*
X163042914Y-112297600D01*
X162900057Y-112226171D01*
X162614342Y-112226171D01*
X162471485Y-112297600D01*
X163114342Y-113154742D02*
X162971485Y-113226171D01*
X162614342Y-113226171D01*
X162471485Y-113154742D01*
X162400057Y-113011885D01*
X162400057Y-112869028D01*
X162471485Y-112726171D01*
X162614342Y-112654742D01*
X162971485Y-112654742D01*
X163114342Y-112583314D01*
X163828628Y-112226171D02*
X163828628Y-113226171D01*
X163828628Y-112369028D02*
X163900057Y-112297600D01*
X164042914Y-112226171D01*
X164257200Y-112226171D01*
X164400057Y-112297600D01*
X164471485Y-112440457D01*
X164471485Y-113226171D01*
X166185771Y-111726171D02*
X167185771Y-111726171D01*
X166185771Y-113226171D01*
X167185771Y-113226171D01*
X168400057Y-113226171D02*
X168400057Y-112440457D01*
X168328628Y-112297600D01*
X168185771Y-112226171D01*
X167900057Y-112226171D01*
X167757200Y-112297600D01*
X168400057Y-113154742D02*
X168257200Y-113226171D01*
X167900057Y-113226171D01*
X167757200Y-113154742D01*
X167685771Y-113011885D01*
X167685771Y-112869028D01*
X167757200Y-112726171D01*
X167900057Y-112654742D01*
X168257200Y-112654742D01*
X168400057Y-112583314D01*
X169757200Y-112226171D02*
X169757200Y-113440457D01*
X169685771Y-113583314D01*
X169614342Y-113654742D01*
X169471485Y-113726171D01*
X169257200Y-113726171D01*
X169114342Y-113654742D01*
X169757200Y-113154742D02*
X169614342Y-113226171D01*
X169328628Y-113226171D01*
X169185771Y-113154742D01*
X169114342Y-113083314D01*
X169042914Y-112940457D01*
X169042914Y-112511885D01*
X169114342Y-112369028D01*
X169185771Y-112297600D01*
X169328628Y-112226171D01*
X169614342Y-112226171D01*
X169757200Y-112297600D01*
X171114342Y-113226171D02*
X171114342Y-112440457D01*
X171042914Y-112297600D01*
X170900057Y-112226171D01*
X170614342Y-112226171D01*
X170471485Y-112297600D01*
X171114342Y-113154742D02*
X170971485Y-113226171D01*
X170614342Y-113226171D01*
X170471485Y-113154742D01*
X170400057Y-113011885D01*
X170400057Y-112869028D01*
X170471485Y-112726171D01*
X170614342Y-112654742D01*
X170971485Y-112654742D01*
X171114342Y-112583314D01*
X172042914Y-113226171D02*
X171900057Y-113154742D01*
X171828628Y-113011885D01*
X171828628Y-111726171D01*
X172542914Y-113154742D02*
X172685771Y-113226171D01*
X172971485Y-113226171D01*
X173114342Y-113154742D01*
X173185771Y-113011885D01*
X173185771Y-112940457D01*
X173114342Y-112797600D01*
X172971485Y-112726171D01*
X172757200Y-112726171D01*
X172614342Y-112654742D01*
X172542914Y-112511885D01*
X172542914Y-112440457D01*
X172614342Y-112297600D01*
X172757200Y-112226171D01*
X172971485Y-112226171D01*
X173114342Y-112297600D01*
X173828628Y-113226171D02*
X173828628Y-111726171D01*
X173971485Y-112654742D02*
X174400057Y-113226171D01*
X174400057Y-112226171D02*
X173828628Y-112797600D01*
X174900057Y-112226171D02*
X175257200Y-113226171D01*
X175614342Y-112226171D02*
X175257200Y-113226171D01*
X175114342Y-113583314D01*
X175042914Y-113654742D01*
X174900057Y-113726171D01*
D11*
X121500000Y-110000000D02*
G75*
G03*
X121500000Y-110000000I-1500000J0D01*
G01*
D13*
X117000000Y-55000000D02*
X217000000Y-55000000D01*
X217000000Y-55000000D02*
X217000000Y-115000000D01*
X217000000Y-115000000D02*
X117000000Y-115000000D01*
X117000000Y-115000000D02*
X117000000Y-55000000D01*
D11*
X212500000Y-110000000D02*
G75*
G03*
X212500000Y-110000000I-1500000J0D01*
G01*
D10*
%TO.C,3.3V*%
X189062857Y-60590380D02*
X189527142Y-60590380D01*
X189277142Y-60971333D01*
X189384285Y-60971333D01*
X189455714Y-61018952D01*
X189491428Y-61066571D01*
X189527142Y-61161809D01*
X189527142Y-61399904D01*
X189491428Y-61495142D01*
X189455714Y-61542761D01*
X189384285Y-61590380D01*
X189170000Y-61590380D01*
X189098571Y-61542761D01*
X189062857Y-61495142D01*
X189848571Y-61495142D02*
X189884285Y-61542761D01*
X189848571Y-61590380D01*
X189812857Y-61542761D01*
X189848571Y-61495142D01*
X189848571Y-61590380D01*
X190134285Y-60590380D02*
X190598571Y-60590380D01*
X190348571Y-60971333D01*
X190455714Y-60971333D01*
X190527142Y-61018952D01*
X190562857Y-61066571D01*
X190598571Y-61161809D01*
X190598571Y-61399904D01*
X190562857Y-61495142D01*
X190527142Y-61542761D01*
X190455714Y-61590380D01*
X190241428Y-61590380D01*
X190170000Y-61542761D01*
X190134285Y-61495142D01*
X190812857Y-60590380D02*
X191062857Y-61590380D01*
X191312857Y-60590380D01*
%TO.C,D13*%
X191799285Y-61590380D02*
X191799285Y-60590380D01*
X191977857Y-60590380D01*
X192085000Y-60638000D01*
X192156428Y-60733238D01*
X192192142Y-60828476D01*
X192227857Y-61018952D01*
X192227857Y-61161809D01*
X192192142Y-61352285D01*
X192156428Y-61447523D01*
X192085000Y-61542761D01*
X191977857Y-61590380D01*
X191799285Y-61590380D01*
X192942142Y-61590380D02*
X192513571Y-61590380D01*
X192727857Y-61590380D02*
X192727857Y-60590380D01*
X192656428Y-60733238D01*
X192585000Y-60828476D01*
X192513571Y-60876095D01*
X193192142Y-60590380D02*
X193656428Y-60590380D01*
X193406428Y-60971333D01*
X193513571Y-60971333D01*
X193585000Y-61018952D01*
X193620714Y-61066571D01*
X193656428Y-61161809D01*
X193656428Y-61399904D01*
X193620714Y-61495142D01*
X193585000Y-61542761D01*
X193513571Y-61590380D01*
X193299285Y-61590380D01*
X193227857Y-61542761D01*
X193192142Y-61495142D01*
%TO.C,A1*%
X182014285Y-61304666D02*
X182371428Y-61304666D01*
X181942857Y-61590380D02*
X182192857Y-60590380D01*
X182442857Y-61590380D01*
X183085714Y-61590380D02*
X182657142Y-61590380D01*
X182871428Y-61590380D02*
X182871428Y-60590380D01*
X182800000Y-60733238D01*
X182728571Y-60828476D01*
X182657142Y-60876095D01*
%TO.C,A0*%
X184554285Y-61304666D02*
X184911428Y-61304666D01*
X184482857Y-61590380D02*
X184732857Y-60590380D01*
X184982857Y-61590380D01*
X185375714Y-60590380D02*
X185447142Y-60590380D01*
X185518571Y-60638000D01*
X185554285Y-60685619D01*
X185590000Y-60780857D01*
X185625714Y-60971333D01*
X185625714Y-61209428D01*
X185590000Y-61399904D01*
X185554285Y-61495142D01*
X185518571Y-61542761D01*
X185447142Y-61590380D01*
X185375714Y-61590380D01*
X185304285Y-61542761D01*
X185268571Y-61495142D01*
X185232857Y-61399904D01*
X185197142Y-61209428D01*
X185197142Y-60971333D01*
X185232857Y-60780857D01*
X185268571Y-60685619D01*
X185304285Y-60638000D01*
X185375714Y-60590380D01*
%TO.C,A2*%
X179474285Y-61304666D02*
X179831428Y-61304666D01*
X179402857Y-61590380D02*
X179652857Y-60590380D01*
X179902857Y-61590380D01*
X180117142Y-60685619D02*
X180152857Y-60638000D01*
X180224285Y-60590380D01*
X180402857Y-60590380D01*
X180474285Y-60638000D01*
X180510000Y-60685619D01*
X180545714Y-60780857D01*
X180545714Y-60876095D01*
X180510000Y-61018952D01*
X180081428Y-61590380D01*
X180545714Y-61590380D01*
%TO.C,A4*%
X174394285Y-61304666D02*
X174751428Y-61304666D01*
X174322857Y-61590380D02*
X174572857Y-60590380D01*
X174822857Y-61590380D01*
X175394285Y-60923714D02*
X175394285Y-61590380D01*
X175215714Y-60542761D02*
X175037142Y-61257047D01*
X175501428Y-61257047D01*
%TO.C,A6*%
X169314285Y-61304666D02*
X169671428Y-61304666D01*
X169242857Y-61590380D02*
X169492857Y-60590380D01*
X169742857Y-61590380D01*
X170314285Y-60590380D02*
X170171428Y-60590380D01*
X170100000Y-60638000D01*
X170064285Y-60685619D01*
X169992857Y-60828476D01*
X169957142Y-61018952D01*
X169957142Y-61399904D01*
X169992857Y-61495142D01*
X170028571Y-61542761D01*
X170100000Y-61590380D01*
X170242857Y-61590380D01*
X170314285Y-61542761D01*
X170350000Y-61495142D01*
X170385714Y-61399904D01*
X170385714Y-61161809D01*
X170350000Y-61066571D01*
X170314285Y-61018952D01*
X170242857Y-60971333D01*
X170100000Y-60971333D01*
X170028571Y-61018952D01*
X169992857Y-61066571D01*
X169957142Y-61161809D01*
%TO.C,A3*%
X176934285Y-61304666D02*
X177291428Y-61304666D01*
X176862857Y-61590380D02*
X177112857Y-60590380D01*
X177362857Y-61590380D01*
X177541428Y-60590380D02*
X178005714Y-60590380D01*
X177755714Y-60971333D01*
X177862857Y-60971333D01*
X177934285Y-61018952D01*
X177970000Y-61066571D01*
X178005714Y-61161809D01*
X178005714Y-61399904D01*
X177970000Y-61495142D01*
X177934285Y-61542761D01*
X177862857Y-61590380D01*
X177648571Y-61590380D01*
X177577142Y-61542761D01*
X177541428Y-61495142D01*
%TO.C,A5*%
X171854285Y-61304666D02*
X172211428Y-61304666D01*
X171782857Y-61590380D02*
X172032857Y-60590380D01*
X172282857Y-61590380D01*
X172890000Y-60590380D02*
X172532857Y-60590380D01*
X172497142Y-61066571D01*
X172532857Y-61018952D01*
X172604285Y-60971333D01*
X172782857Y-60971333D01*
X172854285Y-61018952D01*
X172890000Y-61066571D01*
X172925714Y-61161809D01*
X172925714Y-61399904D01*
X172890000Y-61495142D01*
X172854285Y-61542761D01*
X172782857Y-61590380D01*
X172604285Y-61590380D01*
X172532857Y-61542761D01*
X172497142Y-61495142D01*
%TO.C,A7*%
X166774285Y-61304666D02*
X167131428Y-61304666D01*
X166702857Y-61590380D02*
X166952857Y-60590380D01*
X167202857Y-61590380D01*
X167381428Y-60590380D02*
X167881428Y-60590380D01*
X167560000Y-61590380D01*
%TO.C,D12*%
X191799285Y-88260380D02*
X191799285Y-87260380D01*
X191977857Y-87260380D01*
X192085000Y-87308000D01*
X192156428Y-87403238D01*
X192192142Y-87498476D01*
X192227857Y-87688952D01*
X192227857Y-87831809D01*
X192192142Y-88022285D01*
X192156428Y-88117523D01*
X192085000Y-88212761D01*
X191977857Y-88260380D01*
X191799285Y-88260380D01*
X192942142Y-88260380D02*
X192513571Y-88260380D01*
X192727857Y-88260380D02*
X192727857Y-87260380D01*
X192656428Y-87403238D01*
X192585000Y-87498476D01*
X192513571Y-87546095D01*
X193227857Y-87355619D02*
X193263571Y-87308000D01*
X193335000Y-87260380D01*
X193513571Y-87260380D01*
X193585000Y-87308000D01*
X193620714Y-87355619D01*
X193656428Y-87450857D01*
X193656428Y-87546095D01*
X193620714Y-87688952D01*
X193192142Y-88260380D01*
X193656428Y-88260380D01*
%TO.C,D11*%
X189259285Y-88260380D02*
X189259285Y-87260380D01*
X189437857Y-87260380D01*
X189545000Y-87308000D01*
X189616428Y-87403238D01*
X189652142Y-87498476D01*
X189687857Y-87688952D01*
X189687857Y-87831809D01*
X189652142Y-88022285D01*
X189616428Y-88117523D01*
X189545000Y-88212761D01*
X189437857Y-88260380D01*
X189259285Y-88260380D01*
X190402142Y-88260380D02*
X189973571Y-88260380D01*
X190187857Y-88260380D02*
X190187857Y-87260380D01*
X190116428Y-87403238D01*
X190045000Y-87498476D01*
X189973571Y-87546095D01*
X191116428Y-88260380D02*
X190687857Y-88260380D01*
X190902142Y-88260380D02*
X190902142Y-87260380D01*
X190830714Y-87403238D01*
X190759285Y-87498476D01*
X190687857Y-87546095D01*
%TO.C,D10*%
X186719285Y-88260380D02*
X186719285Y-87260380D01*
X186897857Y-87260380D01*
X187005000Y-87308000D01*
X187076428Y-87403238D01*
X187112142Y-87498476D01*
X187147857Y-87688952D01*
X187147857Y-87831809D01*
X187112142Y-88022285D01*
X187076428Y-88117523D01*
X187005000Y-88212761D01*
X186897857Y-88260380D01*
X186719285Y-88260380D01*
X187862142Y-88260380D02*
X187433571Y-88260380D01*
X187647857Y-88260380D02*
X187647857Y-87260380D01*
X187576428Y-87403238D01*
X187505000Y-87498476D01*
X187433571Y-87546095D01*
X188326428Y-87260380D02*
X188397857Y-87260380D01*
X188469285Y-87308000D01*
X188505000Y-87355619D01*
X188540714Y-87450857D01*
X188576428Y-87641333D01*
X188576428Y-87879428D01*
X188540714Y-88069904D01*
X188505000Y-88165142D01*
X188469285Y-88212761D01*
X188397857Y-88260380D01*
X188326428Y-88260380D01*
X188255000Y-88212761D01*
X188219285Y-88165142D01*
X188183571Y-88069904D01*
X188147857Y-87879428D01*
X188147857Y-87641333D01*
X188183571Y-87450857D01*
X188219285Y-87355619D01*
X188255000Y-87308000D01*
X188326428Y-87260380D01*
%TO.C,D9*%
X184536428Y-88260380D02*
X184536428Y-87260380D01*
X184715000Y-87260380D01*
X184822142Y-87308000D01*
X184893571Y-87403238D01*
X184929285Y-87498476D01*
X184965000Y-87688952D01*
X184965000Y-87831809D01*
X184929285Y-88022285D01*
X184893571Y-88117523D01*
X184822142Y-88212761D01*
X184715000Y-88260380D01*
X184536428Y-88260380D01*
X185322142Y-88260380D02*
X185465000Y-88260380D01*
X185536428Y-88212761D01*
X185572142Y-88165142D01*
X185643571Y-88022285D01*
X185679285Y-87831809D01*
X185679285Y-87450857D01*
X185643571Y-87355619D01*
X185607857Y-87308000D01*
X185536428Y-87260380D01*
X185393571Y-87260380D01*
X185322142Y-87308000D01*
X185286428Y-87355619D01*
X185250714Y-87450857D01*
X185250714Y-87688952D01*
X185286428Y-87784190D01*
X185322142Y-87831809D01*
X185393571Y-87879428D01*
X185536428Y-87879428D01*
X185607857Y-87831809D01*
X185643571Y-87784190D01*
X185679285Y-87688952D01*
%TO.C,D8*%
X181996428Y-88260380D02*
X181996428Y-87260380D01*
X182175000Y-87260380D01*
X182282142Y-87308000D01*
X182353571Y-87403238D01*
X182389285Y-87498476D01*
X182425000Y-87688952D01*
X182425000Y-87831809D01*
X182389285Y-88022285D01*
X182353571Y-88117523D01*
X182282142Y-88212761D01*
X182175000Y-88260380D01*
X181996428Y-88260380D01*
X182853571Y-87688952D02*
X182782142Y-87641333D01*
X182746428Y-87593714D01*
X182710714Y-87498476D01*
X182710714Y-87450857D01*
X182746428Y-87355619D01*
X182782142Y-87308000D01*
X182853571Y-87260380D01*
X182996428Y-87260380D01*
X183067857Y-87308000D01*
X183103571Y-87355619D01*
X183139285Y-87450857D01*
X183139285Y-87498476D01*
X183103571Y-87593714D01*
X183067857Y-87641333D01*
X182996428Y-87688952D01*
X182853571Y-87688952D01*
X182782142Y-87736571D01*
X182746428Y-87784190D01*
X182710714Y-87879428D01*
X182710714Y-88069904D01*
X182746428Y-88165142D01*
X182782142Y-88212761D01*
X182853571Y-88260380D01*
X182996428Y-88260380D01*
X183067857Y-88212761D01*
X183103571Y-88165142D01*
X183139285Y-88069904D01*
X183139285Y-87879428D01*
X183103571Y-87784190D01*
X183067857Y-87736571D01*
X182996428Y-87688952D01*
%TO.C,Relay*%
X124052380Y-70264285D02*
X123576190Y-70597619D01*
X124052380Y-70835714D02*
X123052380Y-70835714D01*
X123052380Y-70454761D01*
X123100000Y-70359523D01*
X123147619Y-70311904D01*
X123242857Y-70264285D01*
X123385714Y-70264285D01*
X123480952Y-70311904D01*
X123528571Y-70359523D01*
X123576190Y-70454761D01*
X123576190Y-70835714D01*
X124004761Y-69454761D02*
X124052380Y-69550000D01*
X124052380Y-69740476D01*
X124004761Y-69835714D01*
X123909523Y-69883333D01*
X123528571Y-69883333D01*
X123433333Y-69835714D01*
X123385714Y-69740476D01*
X123385714Y-69550000D01*
X123433333Y-69454761D01*
X123528571Y-69407142D01*
X123623809Y-69407142D01*
X123719047Y-69883333D01*
X124052380Y-68835714D02*
X124004761Y-68930952D01*
X123909523Y-68978571D01*
X123052380Y-68978571D01*
X124052380Y-68026190D02*
X123528571Y-68026190D01*
X123433333Y-68073809D01*
X123385714Y-68169047D01*
X123385714Y-68359523D01*
X123433333Y-68454761D01*
X124004761Y-68026190D02*
X124052380Y-68121428D01*
X124052380Y-68359523D01*
X124004761Y-68454761D01*
X123909523Y-68502380D01*
X123814285Y-68502380D01*
X123719047Y-68454761D01*
X123671428Y-68359523D01*
X123671428Y-68121428D01*
X123623809Y-68026190D01*
X123385714Y-67645238D02*
X124052380Y-67407142D01*
X123385714Y-67169047D02*
X124052380Y-67407142D01*
X124290476Y-67502380D01*
X124338095Y-67550000D01*
X124385714Y-67645238D01*
%TO.C,A1*%
X152236666Y-75304285D02*
X152236666Y-74828095D01*
X152522380Y-75399523D02*
X151522380Y-75066190D01*
X152522380Y-74732857D01*
X152522380Y-73875714D02*
X152522380Y-74447142D01*
X152522380Y-74161428D02*
X151522380Y-74161428D01*
X151665238Y-74256666D01*
X151760476Y-74351904D01*
X151808095Y-74447142D01*
%TO.C,Battery*%
X134548571Y-84028571D02*
X134691428Y-84076190D01*
X134739047Y-84123809D01*
X134786666Y-84219047D01*
X134786666Y-84361904D01*
X134739047Y-84457142D01*
X134691428Y-84504761D01*
X134596190Y-84552380D01*
X134215238Y-84552380D01*
X134215238Y-83552380D01*
X134548571Y-83552380D01*
X134643809Y-83600000D01*
X134691428Y-83647619D01*
X134739047Y-83742857D01*
X134739047Y-83838095D01*
X134691428Y-83933333D01*
X134643809Y-83980952D01*
X134548571Y-84028571D01*
X134215238Y-84028571D01*
X135643809Y-84552380D02*
X135643809Y-84028571D01*
X135596190Y-83933333D01*
X135500952Y-83885714D01*
X135310476Y-83885714D01*
X135215238Y-83933333D01*
X135643809Y-84504761D02*
X135548571Y-84552380D01*
X135310476Y-84552380D01*
X135215238Y-84504761D01*
X135167619Y-84409523D01*
X135167619Y-84314285D01*
X135215238Y-84219047D01*
X135310476Y-84171428D01*
X135548571Y-84171428D01*
X135643809Y-84123809D01*
X135977142Y-83885714D02*
X136358095Y-83885714D01*
X136120000Y-83552380D02*
X136120000Y-84409523D01*
X136167619Y-84504761D01*
X136262857Y-84552380D01*
X136358095Y-84552380D01*
X136548571Y-83885714D02*
X136929523Y-83885714D01*
X136691428Y-83552380D02*
X136691428Y-84409523D01*
X136739047Y-84504761D01*
X136834285Y-84552380D01*
X136929523Y-84552380D01*
X137643809Y-84504761D02*
X137548571Y-84552380D01*
X137358095Y-84552380D01*
X137262857Y-84504761D01*
X137215238Y-84409523D01*
X137215238Y-84028571D01*
X137262857Y-83933333D01*
X137358095Y-83885714D01*
X137548571Y-83885714D01*
X137643809Y-83933333D01*
X137691428Y-84028571D01*
X137691428Y-84123809D01*
X137215238Y-84219047D01*
X138120000Y-84552380D02*
X138120000Y-83885714D01*
X138120000Y-84076190D02*
X138167619Y-83980952D01*
X138215238Y-83933333D01*
X138310476Y-83885714D01*
X138405714Y-83885714D01*
X138643809Y-83885714D02*
X138881904Y-84552380D01*
X139120000Y-83885714D02*
X138881904Y-84552380D01*
X138786666Y-84790476D01*
X138739047Y-84838095D01*
X138643809Y-84885714D01*
%TO.C,SW4*%
X200195238Y-107072380D02*
X199719047Y-107072380D01*
X199671428Y-107548571D01*
X199719047Y-107500952D01*
X199814285Y-107453333D01*
X200052380Y-107453333D01*
X200147619Y-107500952D01*
X200195238Y-107548571D01*
X200242857Y-107643809D01*
X200242857Y-107881904D01*
X200195238Y-107977142D01*
X200147619Y-108024761D01*
X200052380Y-108072380D01*
X199814285Y-108072380D01*
X199719047Y-108024761D01*
X199671428Y-107977142D01*
X201433333Y-108072380D02*
X201433333Y-107072380D01*
X201766666Y-107786666D01*
X202100000Y-107072380D01*
X202100000Y-108072380D01*
X202576190Y-108072380D02*
X202576190Y-107405714D01*
X202576190Y-107072380D02*
X202528571Y-107120000D01*
X202576190Y-107167619D01*
X202623809Y-107120000D01*
X202576190Y-107072380D01*
X202576190Y-107167619D01*
X203052380Y-107405714D02*
X203052380Y-108072380D01*
X203052380Y-107500952D02*
X203100000Y-107453333D01*
X203195238Y-107405714D01*
X203338095Y-107405714D01*
X203433333Y-107453333D01*
X203480952Y-107548571D01*
X203480952Y-108072380D01*
%TO.C,SW3*%
X179303809Y-107072380D02*
X179922857Y-107072380D01*
X179589523Y-107453333D01*
X179732380Y-107453333D01*
X179827619Y-107500952D01*
X179875238Y-107548571D01*
X179922857Y-107643809D01*
X179922857Y-107881904D01*
X179875238Y-107977142D01*
X179827619Y-108024761D01*
X179732380Y-108072380D01*
X179446666Y-108072380D01*
X179351428Y-108024761D01*
X179303809Y-107977142D01*
X181113333Y-108072380D02*
X181113333Y-107072380D01*
X181446666Y-107786666D01*
X181780000Y-107072380D01*
X181780000Y-108072380D01*
X182256190Y-108072380D02*
X182256190Y-107405714D01*
X182256190Y-107072380D02*
X182208571Y-107120000D01*
X182256190Y-107167619D01*
X182303809Y-107120000D01*
X182256190Y-107072380D01*
X182256190Y-107167619D01*
X182732380Y-107405714D02*
X182732380Y-108072380D01*
X182732380Y-107500952D02*
X182780000Y-107453333D01*
X182875238Y-107405714D01*
X183018095Y-107405714D01*
X183113333Y-107453333D01*
X183160952Y-107548571D01*
X183160952Y-108072380D01*
%TO.C,SW2*%
X159411428Y-106937619D02*
X159459047Y-106890000D01*
X159554285Y-106842380D01*
X159792380Y-106842380D01*
X159887619Y-106890000D01*
X159935238Y-106937619D01*
X159982857Y-107032857D01*
X159982857Y-107128095D01*
X159935238Y-107270952D01*
X159363809Y-107842380D01*
X159982857Y-107842380D01*
X161173333Y-107842380D02*
X161173333Y-106842380D01*
X161506666Y-107556666D01*
X161840000Y-106842380D01*
X161840000Y-107842380D01*
X162316190Y-107842380D02*
X162316190Y-107175714D01*
X162316190Y-106842380D02*
X162268571Y-106890000D01*
X162316190Y-106937619D01*
X162363809Y-106890000D01*
X162316190Y-106842380D01*
X162316190Y-106937619D01*
X162792380Y-107175714D02*
X162792380Y-107842380D01*
X162792380Y-107270952D02*
X162840000Y-107223333D01*
X162935238Y-107175714D01*
X163078095Y-107175714D01*
X163173333Y-107223333D01*
X163220952Y-107318571D01*
X163220952Y-107842380D01*
%TO.C,SW1*%
X139781904Y-107882380D02*
X139448571Y-107406190D01*
X139210476Y-107882380D02*
X139210476Y-106882380D01*
X139591428Y-106882380D01*
X139686666Y-106930000D01*
X139734285Y-106977619D01*
X139781904Y-107072857D01*
X139781904Y-107215714D01*
X139734285Y-107310952D01*
X139686666Y-107358571D01*
X139591428Y-107406190D01*
X139210476Y-107406190D01*
X140591428Y-107834761D02*
X140496190Y-107882380D01*
X140305714Y-107882380D01*
X140210476Y-107834761D01*
X140162857Y-107739523D01*
X140162857Y-107358571D01*
X140210476Y-107263333D01*
X140305714Y-107215714D01*
X140496190Y-107215714D01*
X140591428Y-107263333D01*
X140639047Y-107358571D01*
X140639047Y-107453809D01*
X140162857Y-107549047D01*
X141020000Y-107834761D02*
X141115238Y-107882380D01*
X141305714Y-107882380D01*
X141400952Y-107834761D01*
X141448571Y-107739523D01*
X141448571Y-107691904D01*
X141400952Y-107596666D01*
X141305714Y-107549047D01*
X141162857Y-107549047D01*
X141067619Y-107501428D01*
X141020000Y-107406190D01*
X141020000Y-107358571D01*
X141067619Y-107263333D01*
X141162857Y-107215714D01*
X141305714Y-107215714D01*
X141400952Y-107263333D01*
X142258095Y-107834761D02*
X142162857Y-107882380D01*
X141972380Y-107882380D01*
X141877142Y-107834761D01*
X141829523Y-107739523D01*
X141829523Y-107358571D01*
X141877142Y-107263333D01*
X141972380Y-107215714D01*
X142162857Y-107215714D01*
X142258095Y-107263333D01*
X142305714Y-107358571D01*
X142305714Y-107453809D01*
X141829523Y-107549047D01*
X142591428Y-107215714D02*
X142972380Y-107215714D01*
X142734285Y-106882380D02*
X142734285Y-107739523D01*
X142781904Y-107834761D01*
X142877142Y-107882380D01*
X142972380Y-107882380D01*
%TO.C,R5*%
X214132380Y-100166666D02*
X213656190Y-100500000D01*
X214132380Y-100738095D02*
X213132380Y-100738095D01*
X213132380Y-100357142D01*
X213180000Y-100261904D01*
X213227619Y-100214285D01*
X213322857Y-100166666D01*
X213465714Y-100166666D01*
X213560952Y-100214285D01*
X213608571Y-100261904D01*
X213656190Y-100357142D01*
X213656190Y-100738095D01*
X213132380Y-99261904D02*
X213132380Y-99738095D01*
X213608571Y-99785714D01*
X213560952Y-99738095D01*
X213513333Y-99642857D01*
X213513333Y-99404761D01*
X213560952Y-99309523D01*
X213608571Y-99261904D01*
X213703809Y-99214285D01*
X213941904Y-99214285D01*
X214037142Y-99261904D01*
X214084761Y-99309523D01*
X214132380Y-99404761D01*
X214132380Y-99642857D01*
X214084761Y-99738095D01*
X214037142Y-99785714D01*
%TO.C,R3*%
X193812380Y-100166666D02*
X193336190Y-100500000D01*
X193812380Y-100738095D02*
X192812380Y-100738095D01*
X192812380Y-100357142D01*
X192860000Y-100261904D01*
X192907619Y-100214285D01*
X193002857Y-100166666D01*
X193145714Y-100166666D01*
X193240952Y-100214285D01*
X193288571Y-100261904D01*
X193336190Y-100357142D01*
X193336190Y-100738095D01*
X192812380Y-99833333D02*
X192812380Y-99214285D01*
X193193333Y-99547619D01*
X193193333Y-99404761D01*
X193240952Y-99309523D01*
X193288571Y-99261904D01*
X193383809Y-99214285D01*
X193621904Y-99214285D01*
X193717142Y-99261904D01*
X193764761Y-99309523D01*
X193812380Y-99404761D01*
X193812380Y-99690476D01*
X193764761Y-99785714D01*
X193717142Y-99833333D01*
%TO.C,R2*%
X173492380Y-100166666D02*
X173016190Y-100500000D01*
X173492380Y-100738095D02*
X172492380Y-100738095D01*
X172492380Y-100357142D01*
X172540000Y-100261904D01*
X172587619Y-100214285D01*
X172682857Y-100166666D01*
X172825714Y-100166666D01*
X172920952Y-100214285D01*
X172968571Y-100261904D01*
X173016190Y-100357142D01*
X173016190Y-100738095D01*
X172587619Y-99785714D02*
X172540000Y-99738095D01*
X172492380Y-99642857D01*
X172492380Y-99404761D01*
X172540000Y-99309523D01*
X172587619Y-99261904D01*
X172682857Y-99214285D01*
X172778095Y-99214285D01*
X172920952Y-99261904D01*
X173492380Y-99833333D01*
X173492380Y-99214285D01*
%TO.C,R1*%
X153172380Y-100166666D02*
X152696190Y-100500000D01*
X153172380Y-100738095D02*
X152172380Y-100738095D01*
X152172380Y-100357142D01*
X152220000Y-100261904D01*
X152267619Y-100214285D01*
X152362857Y-100166666D01*
X152505714Y-100166666D01*
X152600952Y-100214285D01*
X152648571Y-100261904D01*
X152696190Y-100357142D01*
X152696190Y-100738095D01*
X153172380Y-99214285D02*
X153172380Y-99785714D01*
X153172380Y-99500000D02*
X152172380Y-99500000D01*
X152315238Y-99595238D01*
X152410476Y-99690476D01*
X152458095Y-99785714D01*
%TO.C,Speaker*%
X121998095Y-82354761D02*
X122140952Y-82402380D01*
X122379047Y-82402380D01*
X122474285Y-82354761D01*
X122521904Y-82307142D01*
X122569523Y-82211904D01*
X122569523Y-82116666D01*
X122521904Y-82021428D01*
X122474285Y-81973809D01*
X122379047Y-81926190D01*
X122188571Y-81878571D01*
X122093333Y-81830952D01*
X122045714Y-81783333D01*
X121998095Y-81688095D01*
X121998095Y-81592857D01*
X122045714Y-81497619D01*
X122093333Y-81450000D01*
X122188571Y-81402380D01*
X122426666Y-81402380D01*
X122569523Y-81450000D01*
X122998095Y-81735714D02*
X122998095Y-82735714D01*
X122998095Y-81783333D02*
X123093333Y-81735714D01*
X123283809Y-81735714D01*
X123379047Y-81783333D01*
X123426666Y-81830952D01*
X123474285Y-81926190D01*
X123474285Y-82211904D01*
X123426666Y-82307142D01*
X123379047Y-82354761D01*
X123283809Y-82402380D01*
X123093333Y-82402380D01*
X122998095Y-82354761D01*
X124283809Y-82354761D02*
X124188571Y-82402380D01*
X123998095Y-82402380D01*
X123902857Y-82354761D01*
X123855238Y-82259523D01*
X123855238Y-81878571D01*
X123902857Y-81783333D01*
X123998095Y-81735714D01*
X124188571Y-81735714D01*
X124283809Y-81783333D01*
X124331428Y-81878571D01*
X124331428Y-81973809D01*
X123855238Y-82069047D01*
X125188571Y-82402380D02*
X125188571Y-81878571D01*
X125140952Y-81783333D01*
X125045714Y-81735714D01*
X124855238Y-81735714D01*
X124760000Y-81783333D01*
X125188571Y-82354761D02*
X125093333Y-82402380D01*
X124855238Y-82402380D01*
X124760000Y-82354761D01*
X124712380Y-82259523D01*
X124712380Y-82164285D01*
X124760000Y-82069047D01*
X124855238Y-82021428D01*
X125093333Y-82021428D01*
X125188571Y-81973809D01*
X125664761Y-82402380D02*
X125664761Y-81402380D01*
X125760000Y-82021428D02*
X126045714Y-82402380D01*
X126045714Y-81735714D02*
X125664761Y-82116666D01*
X126855238Y-82354761D02*
X126760000Y-82402380D01*
X126569523Y-82402380D01*
X126474285Y-82354761D01*
X126426666Y-82259523D01*
X126426666Y-81878571D01*
X126474285Y-81783333D01*
X126569523Y-81735714D01*
X126760000Y-81735714D01*
X126855238Y-81783333D01*
X126902857Y-81878571D01*
X126902857Y-81973809D01*
X126426666Y-82069047D01*
X127331428Y-82402380D02*
X127331428Y-81735714D01*
X127331428Y-81926190D02*
X127379047Y-81830952D01*
X127426666Y-81783333D01*
X127521904Y-81735714D01*
X127617142Y-81735714D01*
D14*
%TO.C,Relay*%
X134300000Y-64450000D02*
X134300000Y-69450000D01*
X132800000Y-71950000D02*
X135500000Y-76450000D01*
X138800000Y-66950000D02*
X134300000Y-66950000D01*
X131300000Y-66950000D02*
X126800000Y-66950000D01*
X132800000Y-70450000D02*
X132800000Y-71950000D01*
X134300000Y-69450000D02*
X131300000Y-69450000D01*
X140500000Y-78650000D02*
X125100000Y-78650000D01*
X132800000Y-63550000D02*
X129100000Y-63550000D01*
X129100000Y-70450000D02*
X129100000Y-63550000D01*
X132800000Y-63550000D02*
X132800000Y-62650000D01*
X138800000Y-66950000D02*
X138800000Y-64650000D01*
X131300000Y-69450000D02*
X131300000Y-64450000D01*
X125100000Y-78650000D02*
X125100000Y-59450000D01*
X131300000Y-69450000D02*
X134300000Y-64450000D01*
X132800000Y-70450000D02*
X129100000Y-70450000D01*
X140500000Y-59450000D02*
X140500000Y-78650000D01*
X131600000Y-59450000D02*
X125100000Y-59450000D01*
X128500000Y-75150000D02*
X130800000Y-75150000D01*
X137100000Y-75150000D02*
X134800000Y-75150000D01*
X126800000Y-64650000D02*
X126800000Y-66950000D01*
X131300000Y-64450000D02*
X134300000Y-64450000D01*
X140500000Y-59450000D02*
X134000000Y-59450000D01*
%TO.C,A1*%
X158420000Y-80940000D02*
X193980000Y-80940000D01*
X153210000Y-83610000D02*
X155880000Y-83610000D01*
X196650000Y-83610000D02*
X196650000Y-65570000D01*
X153210000Y-65570000D02*
X153210000Y-83610000D01*
X158420000Y-80940000D02*
X158420000Y-83610000D01*
X155880000Y-68240000D02*
X155880000Y-65570000D01*
X193980000Y-68240000D02*
X193980000Y-65570000D01*
X158420000Y-80940000D02*
X155880000Y-80940000D01*
X155880000Y-68240000D02*
X193980000Y-68240000D01*
X193980000Y-80940000D02*
X193980000Y-83610000D01*
X158420000Y-83610000D02*
X196650000Y-83610000D01*
X196650000Y-65570000D02*
X153210000Y-65570000D01*
X155880000Y-80940000D02*
X155880000Y-83610000D01*
%TO.C,SW4*%
X195440000Y-106150000D02*
X195440000Y-103430000D01*
X207740000Y-103430000D02*
X207740000Y-106150000D01*
X207740000Y-98430000D02*
X207740000Y-101570000D01*
X207740000Y-106150000D02*
X195440000Y-106150000D01*
X195440000Y-96570000D02*
X195440000Y-93850000D01*
X195440000Y-101570000D02*
X195440000Y-98430000D01*
X195440000Y-93850000D02*
X207740000Y-93850000D01*
X207740000Y-93850000D02*
X207740000Y-96570000D01*
X206069050Y-99960000D02*
G75*
G03*
X206069050Y-99960000I-4579050J0D01*
G01*
%TO.C,SW3*%
X175120000Y-106150000D02*
X175120000Y-103430000D01*
X187420000Y-103430000D02*
X187420000Y-106150000D01*
X187420000Y-98430000D02*
X187420000Y-101570000D01*
X187420000Y-106150000D02*
X175120000Y-106150000D01*
X175120000Y-96570000D02*
X175120000Y-93850000D01*
X175120000Y-101570000D02*
X175120000Y-98430000D01*
X175120000Y-93850000D02*
X187420000Y-93850000D01*
X187420000Y-93850000D02*
X187420000Y-96570000D01*
X185749050Y-99960000D02*
G75*
G03*
X185749050Y-99960000I-4579050J0D01*
G01*
%TO.C,SW2*%
X167120000Y-93810000D02*
X167120000Y-96530000D01*
X154820000Y-96530000D02*
X154820000Y-93810000D01*
X154820000Y-101530000D02*
X154820000Y-98390000D01*
X154820000Y-93810000D02*
X167120000Y-93810000D01*
X167120000Y-103390000D02*
X167120000Y-106110000D01*
X167120000Y-98390000D02*
X167120000Y-101530000D01*
X167120000Y-106110000D02*
X154820000Y-106110000D01*
X154820000Y-106110000D02*
X154820000Y-103390000D01*
X165649050Y-100000000D02*
G75*
G03*
X165649050Y-100000000I-4579050J0D01*
G01*
%TO.C,SW1*%
X146800000Y-93850000D02*
X146800000Y-96570000D01*
X134500000Y-96570000D02*
X134500000Y-93850000D01*
X134500000Y-101570000D02*
X134500000Y-98430000D01*
X134500000Y-93850000D02*
X146800000Y-93850000D01*
X146800000Y-103430000D02*
X146800000Y-106150000D01*
X146800000Y-98430000D02*
X146800000Y-101570000D01*
X146800000Y-106150000D02*
X134500000Y-106150000D01*
X134500000Y-106150000D02*
X134500000Y-103430000D01*
X145329050Y-100040000D02*
G75*
G03*
X145329050Y-100040000I-4579050J0D01*
G01*
%TO.C,R5*%
X210840000Y-101920000D02*
X212680000Y-101920000D01*
X212680000Y-101920000D02*
X212680000Y-98080000D01*
X210840000Y-98080000D02*
X210840000Y-101920000D01*
X211760000Y-102870000D02*
X211760000Y-101920000D01*
X212680000Y-98080000D02*
X210840000Y-98080000D01*
X211760000Y-97130000D02*
X211760000Y-98080000D01*
%TO.C,R3*%
X190520000Y-101920000D02*
X192360000Y-101920000D01*
X192360000Y-101920000D02*
X192360000Y-98080000D01*
X190520000Y-98080000D02*
X190520000Y-101920000D01*
X191440000Y-102870000D02*
X191440000Y-101920000D01*
X192360000Y-98080000D02*
X190520000Y-98080000D01*
X191440000Y-97130000D02*
X191440000Y-98080000D01*
%TO.C,R2*%
X170200000Y-101920000D02*
X172040000Y-101920000D01*
X172040000Y-101920000D02*
X172040000Y-98080000D01*
X170200000Y-98080000D02*
X170200000Y-101920000D01*
X171120000Y-102870000D02*
X171120000Y-101920000D01*
X172040000Y-98080000D02*
X170200000Y-98080000D01*
X171120000Y-97130000D02*
X171120000Y-98080000D01*
%TO.C,R1*%
X150800000Y-97130000D02*
X150800000Y-98080000D01*
X151720000Y-98080000D02*
X149880000Y-98080000D01*
X150800000Y-102870000D02*
X150800000Y-101920000D01*
X149880000Y-98080000D02*
X149880000Y-101920000D01*
X151720000Y-101920000D02*
X151720000Y-98080000D01*
X149880000Y-101920000D02*
X151720000Y-101920000D01*
%TO.C,Speaker*%
X128960000Y-84650000D02*
X120560000Y-84650000D01*
X120560000Y-84650000D02*
X120560000Y-90150000D01*
X122860000Y-91150000D02*
X125460000Y-91150000D01*
X125460000Y-90150000D02*
X126360000Y-90150000D01*
X125460000Y-91150000D02*
X125460000Y-90150000D01*
X129570000Y-83040000D02*
X119950000Y-83040000D01*
X126360000Y-91150000D02*
X128960000Y-91150000D01*
X119650000Y-85150000D02*
X119650000Y-82740000D01*
X122860000Y-90150000D02*
X122860000Y-91150000D01*
X119950000Y-91760000D02*
X129570000Y-91760000D01*
X119650000Y-82740000D02*
X122060000Y-82740000D01*
X129570000Y-91760000D02*
X129570000Y-83040000D01*
X120560000Y-90150000D02*
X122860000Y-90150000D01*
X128960000Y-91150000D02*
X128960000Y-84650000D01*
X126360000Y-90150000D02*
X126360000Y-91150000D01*
X119950000Y-83040000D02*
X119950000Y-91760000D01*
%TD*%
M02*
