M48
; DRILL file {KiCad (6.0.7)} date Mon Mar 20 00:02:44 2023
; FORMAT={-:-/ absolute / inch / decimal}
; #@! TF.CreationDate,2023-03-20T00:02:44-04:00
; #@! TF.GenerationSoftware,Kicad,Pcbnew,(6.0.7)
; #@! TF.FileFunction,Plated,1,2,PTH
FMAT,2
INCH
; #@! TA.AperFunction,Plated,PTH,ComponentDrill
T1C0.0276
; #@! TA.AperFunction,Plated,PTH,ComponentDrill
T2C0.0394
; #@! TA.AperFunction,Plated,PTH,ComponentDrill
T3C0.0512
; #@! TA.AperFunction,Plated,PTH,ComponentDrill
T4C0.0630
; #@! TA.AperFunction,Plated,PTH,ComponentDrill
T5C0.1181
%
G90
G05
T1
X5.937Y-3.787
X5.937Y-4.087
X6.737Y-3.787
X6.737Y-4.087
X7.537Y-3.787
X7.537Y-4.087
X8.337Y-3.787
X8.337Y-4.087
T2
X6.187Y-2.6366
X6.187Y-3.2366
X6.287Y-2.6366
X6.287Y-3.2366
X6.387Y-2.6366
X6.387Y-3.2366
X6.487Y-2.6366
X6.487Y-3.2366
X6.587Y-2.497
X6.587Y-2.6366
X6.587Y-3.2366
X6.687Y-2.497
X6.687Y-2.6366
X6.687Y-3.2366
X6.787Y-2.497
X6.787Y-2.6366
X6.787Y-3.2366
X6.887Y-2.497
X6.887Y-2.6366
X6.887Y-3.2366
X6.987Y-2.497
X6.987Y-2.6366
X6.987Y-3.2366
X7.087Y-2.497
X7.087Y-2.6366
X7.087Y-3.2366
X7.187Y-2.497
X7.187Y-2.6366
X7.187Y-3.2366
X7.187Y-3.377
X7.287Y-2.497
X7.287Y-2.6366
X7.287Y-3.2366
X7.287Y-3.377
X7.387Y-2.6366
X7.387Y-3.2366
X7.387Y-3.377
X7.487Y-2.497
X7.487Y-2.6366
X7.487Y-3.2366
X7.487Y-3.377
X7.587Y-2.497
X7.587Y-2.6366
X7.587Y-3.2366
X7.587Y-3.377
T3
X4.9921Y-2.4783
X4.9921Y-2.9587
X5.2283Y-2.3996
X5.2913Y-3.8386
X5.2913Y-4.0354
X5.4646Y-2.4783
X5.4646Y-2.9587
X5.7835Y-3.8386
X5.7835Y-4.0354
X6.0913Y-3.837
X6.0913Y-4.0339
X6.5835Y-3.837
X6.5835Y-4.0339
X6.8906Y-3.8386
X6.8906Y-4.0354
X7.3827Y-3.8386
X7.3827Y-4.0354
X7.6906Y-3.8386
X7.6906Y-4.0354
X8.1827Y-3.8386
X8.1827Y-4.0354
T4
X4.837Y-3.437
X4.9748Y-3.437
T5
X5.237Y-3.437
X5.5205Y-3.437
T0
M30
