%TF.GenerationSoftware,KiCad,Pcbnew,(6.0.7)*%
%TF.CreationDate,2023-01-15T16:16:41-05:00*%
%TF.ProjectId,timer,74696d65-722e-46b6-9963-61645f706362,rev?*%
%TF.SameCoordinates,Original*%
%TF.FileFunction,Legend,Top*%
%TF.FilePolarity,Positive*%
%FSLAX46Y46*%
G04 Gerber Fmt 4.6, Leading zero omitted, Abs format (unit mm)*
G04 Created by KiCad (PCBNEW (6.0.7)) date 2023-01-15 16:16:41*
%MOMM*%
%LPD*%
G01*
G04 APERTURE LIST*
%ADD10C,0.300000*%
%ADD11C,0.150000*%
%ADD12C,0.120000*%
G04 APERTURE END LIST*
D10*
X191832857Y-97980000D02*
X191690000Y-97908571D01*
X191475714Y-97908571D01*
X191261428Y-97980000D01*
X191118571Y-98122857D01*
X191047142Y-98265714D01*
X190975714Y-98551428D01*
X190975714Y-98765714D01*
X191047142Y-99051428D01*
X191118571Y-99194285D01*
X191261428Y-99337142D01*
X191475714Y-99408571D01*
X191618571Y-99408571D01*
X191832857Y-99337142D01*
X191904285Y-99265714D01*
X191904285Y-98765714D01*
X191618571Y-98765714D01*
D11*
X124138095Y-71512380D02*
X124138095Y-72321904D01*
X124185714Y-72417142D01*
X124233333Y-72464761D01*
X124328571Y-72512380D01*
X124519047Y-72512380D01*
X124614285Y-72464761D01*
X124661904Y-72417142D01*
X124709523Y-72321904D01*
X124709523Y-71512380D01*
X125138095Y-72464761D02*
X125280952Y-72512380D01*
X125519047Y-72512380D01*
X125614285Y-72464761D01*
X125661904Y-72417142D01*
X125709523Y-72321904D01*
X125709523Y-72226666D01*
X125661904Y-72131428D01*
X125614285Y-72083809D01*
X125519047Y-72036190D01*
X125328571Y-71988571D01*
X125233333Y-71940952D01*
X125185714Y-71893333D01*
X125138095Y-71798095D01*
X125138095Y-71702857D01*
X125185714Y-71607619D01*
X125233333Y-71560000D01*
X125328571Y-71512380D01*
X125566666Y-71512380D01*
X125709523Y-71560000D01*
X126471428Y-71988571D02*
X126614285Y-72036190D01*
X126661904Y-72083809D01*
X126709523Y-72179047D01*
X126709523Y-72321904D01*
X126661904Y-72417142D01*
X126614285Y-72464761D01*
X126519047Y-72512380D01*
X126138095Y-72512380D01*
X126138095Y-71512380D01*
X126471428Y-71512380D01*
X126566666Y-71560000D01*
X126614285Y-71607619D01*
X126661904Y-71702857D01*
X126661904Y-71798095D01*
X126614285Y-71893333D01*
X126566666Y-71940952D01*
X126471428Y-71988571D01*
X126138095Y-71988571D01*
X179001904Y-84260000D02*
X178906666Y-84212380D01*
X178763809Y-84212380D01*
X178620952Y-84260000D01*
X178525714Y-84355238D01*
X178478095Y-84450476D01*
X178430476Y-84640952D01*
X178430476Y-84783809D01*
X178478095Y-84974285D01*
X178525714Y-85069523D01*
X178620952Y-85164761D01*
X178763809Y-85212380D01*
X178859047Y-85212380D01*
X179001904Y-85164761D01*
X179049523Y-85117142D01*
X179049523Y-84783809D01*
X178859047Y-84783809D01*
%TO.C,LS1*%
X127937142Y-108342380D02*
X127460952Y-108342380D01*
X127460952Y-107342380D01*
X128222857Y-108294761D02*
X128365714Y-108342380D01*
X128603809Y-108342380D01*
X128699047Y-108294761D01*
X128746666Y-108247142D01*
X128794285Y-108151904D01*
X128794285Y-108056666D01*
X128746666Y-107961428D01*
X128699047Y-107913809D01*
X128603809Y-107866190D01*
X128413333Y-107818571D01*
X128318095Y-107770952D01*
X128270476Y-107723333D01*
X128222857Y-107628095D01*
X128222857Y-107532857D01*
X128270476Y-107437619D01*
X128318095Y-107390000D01*
X128413333Y-107342380D01*
X128651428Y-107342380D01*
X128794285Y-107390000D01*
X129746666Y-108342380D02*
X129175238Y-108342380D01*
X129460952Y-108342380D02*
X129460952Y-107342380D01*
X129365714Y-107485238D01*
X129270476Y-107580476D01*
X129175238Y-107628095D01*
%TO.C,v1*%
X159805714Y-71845714D02*
X160043809Y-72512380D01*
X160281904Y-71845714D01*
X161186666Y-72512380D02*
X160615238Y-72512380D01*
X160900952Y-72512380D02*
X160900952Y-71512380D01*
X160805714Y-71655238D01*
X160710476Y-71750476D01*
X160615238Y-71798095D01*
%TO.C,SW2*%
X149466666Y-99864761D02*
X149609523Y-99912380D01*
X149847619Y-99912380D01*
X149942857Y-99864761D01*
X149990476Y-99817142D01*
X150038095Y-99721904D01*
X150038095Y-99626666D01*
X149990476Y-99531428D01*
X149942857Y-99483809D01*
X149847619Y-99436190D01*
X149657142Y-99388571D01*
X149561904Y-99340952D01*
X149514285Y-99293333D01*
X149466666Y-99198095D01*
X149466666Y-99102857D01*
X149514285Y-99007619D01*
X149561904Y-98960000D01*
X149657142Y-98912380D01*
X149895238Y-98912380D01*
X150038095Y-98960000D01*
X150371428Y-98912380D02*
X150609523Y-99912380D01*
X150800000Y-99198095D01*
X150990476Y-99912380D01*
X151228571Y-98912380D01*
X151561904Y-99007619D02*
X151609523Y-98960000D01*
X151704761Y-98912380D01*
X151942857Y-98912380D01*
X152038095Y-98960000D01*
X152085714Y-99007619D01*
X152133333Y-99102857D01*
X152133333Y-99198095D01*
X152085714Y-99340952D01*
X151514285Y-99912380D01*
X152133333Y-99912380D01*
X149371428Y-90307619D02*
X149419047Y-90260000D01*
X149514285Y-90212380D01*
X149752380Y-90212380D01*
X149847619Y-90260000D01*
X149895238Y-90307619D01*
X149942857Y-90402857D01*
X149942857Y-90498095D01*
X149895238Y-90640952D01*
X149323809Y-91212380D01*
X149942857Y-91212380D01*
X151133333Y-91212380D02*
X151133333Y-90212380D01*
X151466666Y-90926666D01*
X151800000Y-90212380D01*
X151800000Y-91212380D01*
X152276190Y-91212380D02*
X152276190Y-90545714D01*
X152276190Y-90212380D02*
X152228571Y-90260000D01*
X152276190Y-90307619D01*
X152323809Y-90260000D01*
X152276190Y-90212380D01*
X152276190Y-90307619D01*
X152752380Y-90545714D02*
X152752380Y-91212380D01*
X152752380Y-90640952D02*
X152800000Y-90593333D01*
X152895238Y-90545714D01*
X153038095Y-90545714D01*
X153133333Y-90593333D01*
X153180952Y-90688571D01*
X153180952Y-91212380D01*
%TO.C,SW1*%
X137476666Y-99864761D02*
X137619523Y-99912380D01*
X137857619Y-99912380D01*
X137952857Y-99864761D01*
X138000476Y-99817142D01*
X138048095Y-99721904D01*
X138048095Y-99626666D01*
X138000476Y-99531428D01*
X137952857Y-99483809D01*
X137857619Y-99436190D01*
X137667142Y-99388571D01*
X137571904Y-99340952D01*
X137524285Y-99293333D01*
X137476666Y-99198095D01*
X137476666Y-99102857D01*
X137524285Y-99007619D01*
X137571904Y-98960000D01*
X137667142Y-98912380D01*
X137905238Y-98912380D01*
X138048095Y-98960000D01*
X138381428Y-98912380D02*
X138619523Y-99912380D01*
X138810000Y-99198095D01*
X139000476Y-99912380D01*
X139238571Y-98912380D01*
X140143333Y-99912380D02*
X139571904Y-99912380D01*
X139857619Y-99912380D02*
X139857619Y-98912380D01*
X139762380Y-99055238D01*
X139667142Y-99150476D01*
X139571904Y-99198095D01*
X138071904Y-91212380D02*
X137738571Y-90736190D01*
X137500476Y-91212380D02*
X137500476Y-90212380D01*
X137881428Y-90212380D01*
X137976666Y-90260000D01*
X138024285Y-90307619D01*
X138071904Y-90402857D01*
X138071904Y-90545714D01*
X138024285Y-90640952D01*
X137976666Y-90688571D01*
X137881428Y-90736190D01*
X137500476Y-90736190D01*
X138881428Y-91164761D02*
X138786190Y-91212380D01*
X138595714Y-91212380D01*
X138500476Y-91164761D01*
X138452857Y-91069523D01*
X138452857Y-90688571D01*
X138500476Y-90593333D01*
X138595714Y-90545714D01*
X138786190Y-90545714D01*
X138881428Y-90593333D01*
X138929047Y-90688571D01*
X138929047Y-90783809D01*
X138452857Y-90879047D01*
X139310000Y-91164761D02*
X139405238Y-91212380D01*
X139595714Y-91212380D01*
X139690952Y-91164761D01*
X139738571Y-91069523D01*
X139738571Y-91021904D01*
X139690952Y-90926666D01*
X139595714Y-90879047D01*
X139452857Y-90879047D01*
X139357619Y-90831428D01*
X139310000Y-90736190D01*
X139310000Y-90688571D01*
X139357619Y-90593333D01*
X139452857Y-90545714D01*
X139595714Y-90545714D01*
X139690952Y-90593333D01*
X140548095Y-91164761D02*
X140452857Y-91212380D01*
X140262380Y-91212380D01*
X140167142Y-91164761D01*
X140119523Y-91069523D01*
X140119523Y-90688571D01*
X140167142Y-90593333D01*
X140262380Y-90545714D01*
X140452857Y-90545714D01*
X140548095Y-90593333D01*
X140595714Y-90688571D01*
X140595714Y-90783809D01*
X140119523Y-90879047D01*
X140881428Y-90545714D02*
X141262380Y-90545714D01*
X141024285Y-90212380D02*
X141024285Y-91069523D01*
X141071904Y-91164761D01*
X141167142Y-91212380D01*
X141262380Y-91212380D01*
%TO.C,U1*%
X167818095Y-84352380D02*
X167818095Y-85161904D01*
X167865714Y-85257142D01*
X167913333Y-85304761D01*
X168008571Y-85352380D01*
X168199047Y-85352380D01*
X168294285Y-85304761D01*
X168341904Y-85257142D01*
X168389523Y-85161904D01*
X168389523Y-84352380D01*
X169389523Y-85352380D02*
X168818095Y-85352380D01*
X169103809Y-85352380D02*
X169103809Y-84352380D01*
X169008571Y-84495238D01*
X168913333Y-84590476D01*
X168818095Y-84638095D01*
%TO.C,L1*%
X195083333Y-91562380D02*
X194607142Y-91562380D01*
X194607142Y-90562380D01*
X195940476Y-91562380D02*
X195369047Y-91562380D01*
X195654761Y-91562380D02*
X195654761Y-90562380D01*
X195559523Y-90705238D01*
X195464285Y-90800476D01*
X195369047Y-90848095D01*
%TO.C,C2*%
X181113333Y-82267142D02*
X181065714Y-82314761D01*
X180922857Y-82362380D01*
X180827619Y-82362380D01*
X180684761Y-82314761D01*
X180589523Y-82219523D01*
X180541904Y-82124285D01*
X180494285Y-81933809D01*
X180494285Y-81790952D01*
X180541904Y-81600476D01*
X180589523Y-81505238D01*
X180684761Y-81410000D01*
X180827619Y-81362380D01*
X180922857Y-81362380D01*
X181065714Y-81410000D01*
X181113333Y-81457619D01*
X181494285Y-81457619D02*
X181541904Y-81410000D01*
X181637142Y-81362380D01*
X181875238Y-81362380D01*
X181970476Y-81410000D01*
X182018095Y-81457619D01*
X182065714Y-81552857D01*
X182065714Y-81648095D01*
X182018095Y-81790952D01*
X181446666Y-82362380D01*
X182065714Y-82362380D01*
%TO.C,C1*%
X203537142Y-83656666D02*
X203584761Y-83704285D01*
X203632380Y-83847142D01*
X203632380Y-83942380D01*
X203584761Y-84085238D01*
X203489523Y-84180476D01*
X203394285Y-84228095D01*
X203203809Y-84275714D01*
X203060952Y-84275714D01*
X202870476Y-84228095D01*
X202775238Y-84180476D01*
X202680000Y-84085238D01*
X202632380Y-83942380D01*
X202632380Y-83847142D01*
X202680000Y-83704285D01*
X202727619Y-83656666D01*
X203632380Y-82704285D02*
X203632380Y-83275714D01*
X203632380Y-82990000D02*
X202632380Y-82990000D01*
X202775238Y-83085238D01*
X202870476Y-83180476D01*
X202918095Y-83275714D01*
%TO.C,BT1*%
X184289285Y-58128571D02*
X184432142Y-58176190D01*
X184479761Y-58223809D01*
X184527380Y-58319047D01*
X184527380Y-58461904D01*
X184479761Y-58557142D01*
X184432142Y-58604761D01*
X184336904Y-58652380D01*
X183955952Y-58652380D01*
X183955952Y-57652380D01*
X184289285Y-57652380D01*
X184384523Y-57700000D01*
X184432142Y-57747619D01*
X184479761Y-57842857D01*
X184479761Y-57938095D01*
X184432142Y-58033333D01*
X184384523Y-58080952D01*
X184289285Y-58128571D01*
X183955952Y-58128571D01*
X184813095Y-57652380D02*
X185384523Y-57652380D01*
X185098809Y-58652380D02*
X185098809Y-57652380D01*
X186241666Y-58652380D02*
X185670238Y-58652380D01*
X185955952Y-58652380D02*
X185955952Y-57652380D01*
X185860714Y-57795238D01*
X185765476Y-57890476D01*
X185670238Y-57938095D01*
%TO.C,R6*%
X206512380Y-102706666D02*
X206036190Y-103040000D01*
X206512380Y-103278095D02*
X205512380Y-103278095D01*
X205512380Y-102897142D01*
X205560000Y-102801904D01*
X205607619Y-102754285D01*
X205702857Y-102706666D01*
X205845714Y-102706666D01*
X205940952Y-102754285D01*
X205988571Y-102801904D01*
X206036190Y-102897142D01*
X206036190Y-103278095D01*
X205512380Y-101849523D02*
X205512380Y-102040000D01*
X205560000Y-102135238D01*
X205607619Y-102182857D01*
X205750476Y-102278095D01*
X205940952Y-102325714D01*
X206321904Y-102325714D01*
X206417142Y-102278095D01*
X206464761Y-102230476D01*
X206512380Y-102135238D01*
X206512380Y-101944761D01*
X206464761Y-101849523D01*
X206417142Y-101801904D01*
X206321904Y-101754285D01*
X206083809Y-101754285D01*
X205988571Y-101801904D01*
X205940952Y-101849523D01*
X205893333Y-101944761D01*
X205893333Y-102135238D01*
X205940952Y-102230476D01*
X205988571Y-102278095D01*
X206083809Y-102325714D01*
%TO.C,R4*%
X197592380Y-102706666D02*
X197116190Y-103040000D01*
X197592380Y-103278095D02*
X196592380Y-103278095D01*
X196592380Y-102897142D01*
X196640000Y-102801904D01*
X196687619Y-102754285D01*
X196782857Y-102706666D01*
X196925714Y-102706666D01*
X197020952Y-102754285D01*
X197068571Y-102801904D01*
X197116190Y-102897142D01*
X197116190Y-103278095D01*
X196925714Y-101849523D02*
X197592380Y-101849523D01*
X196544761Y-102087619D02*
X197259047Y-102325714D01*
X197259047Y-101706666D01*
%TO.C,R3*%
X163333333Y-104912380D02*
X163000000Y-104436190D01*
X162761904Y-104912380D02*
X162761904Y-103912380D01*
X163142857Y-103912380D01*
X163238095Y-103960000D01*
X163285714Y-104007619D01*
X163333333Y-104102857D01*
X163333333Y-104245714D01*
X163285714Y-104340952D01*
X163238095Y-104388571D01*
X163142857Y-104436190D01*
X162761904Y-104436190D01*
X163666666Y-103912380D02*
X164285714Y-103912380D01*
X163952380Y-104293333D01*
X164095238Y-104293333D01*
X164190476Y-104340952D01*
X164238095Y-104388571D01*
X164285714Y-104483809D01*
X164285714Y-104721904D01*
X164238095Y-104817142D01*
X164190476Y-104864761D01*
X164095238Y-104912380D01*
X163809523Y-104912380D01*
X163714285Y-104864761D01*
X163666666Y-104817142D01*
%TO.C,SW3*%
X162166666Y-99864761D02*
X162309523Y-99912380D01*
X162547619Y-99912380D01*
X162642857Y-99864761D01*
X162690476Y-99817142D01*
X162738095Y-99721904D01*
X162738095Y-99626666D01*
X162690476Y-99531428D01*
X162642857Y-99483809D01*
X162547619Y-99436190D01*
X162357142Y-99388571D01*
X162261904Y-99340952D01*
X162214285Y-99293333D01*
X162166666Y-99198095D01*
X162166666Y-99102857D01*
X162214285Y-99007619D01*
X162261904Y-98960000D01*
X162357142Y-98912380D01*
X162595238Y-98912380D01*
X162738095Y-98960000D01*
X163071428Y-98912380D02*
X163309523Y-99912380D01*
X163500000Y-99198095D01*
X163690476Y-99912380D01*
X163928571Y-98912380D01*
X164214285Y-98912380D02*
X164833333Y-98912380D01*
X164500000Y-99293333D01*
X164642857Y-99293333D01*
X164738095Y-99340952D01*
X164785714Y-99388571D01*
X164833333Y-99483809D01*
X164833333Y-99721904D01*
X164785714Y-99817142D01*
X164738095Y-99864761D01*
X164642857Y-99912380D01*
X164357142Y-99912380D01*
X164261904Y-99864761D01*
X164214285Y-99817142D01*
X161023809Y-90212380D02*
X161642857Y-90212380D01*
X161309523Y-90593333D01*
X161452380Y-90593333D01*
X161547619Y-90640952D01*
X161595238Y-90688571D01*
X161642857Y-90783809D01*
X161642857Y-91021904D01*
X161595238Y-91117142D01*
X161547619Y-91164761D01*
X161452380Y-91212380D01*
X161166666Y-91212380D01*
X161071428Y-91164761D01*
X161023809Y-91117142D01*
X162833333Y-91212380D02*
X162833333Y-90212380D01*
X163166666Y-90926666D01*
X163500000Y-90212380D01*
X163500000Y-91212380D01*
X163976190Y-91212380D02*
X163976190Y-90545714D01*
X163976190Y-90212380D02*
X163928571Y-90260000D01*
X163976190Y-90307619D01*
X164023809Y-90260000D01*
X163976190Y-90212380D01*
X163976190Y-90307619D01*
X164452380Y-90545714D02*
X164452380Y-91212380D01*
X164452380Y-90640952D02*
X164500000Y-90593333D01*
X164595238Y-90545714D01*
X164738095Y-90545714D01*
X164833333Y-90593333D01*
X164880952Y-90688571D01*
X164880952Y-91212380D01*
%TO.C,SW4*%
X174866666Y-99864761D02*
X175009523Y-99912380D01*
X175247619Y-99912380D01*
X175342857Y-99864761D01*
X175390476Y-99817142D01*
X175438095Y-99721904D01*
X175438095Y-99626666D01*
X175390476Y-99531428D01*
X175342857Y-99483809D01*
X175247619Y-99436190D01*
X175057142Y-99388571D01*
X174961904Y-99340952D01*
X174914285Y-99293333D01*
X174866666Y-99198095D01*
X174866666Y-99102857D01*
X174914285Y-99007619D01*
X174961904Y-98960000D01*
X175057142Y-98912380D01*
X175295238Y-98912380D01*
X175438095Y-98960000D01*
X175771428Y-98912380D02*
X176009523Y-99912380D01*
X176200000Y-99198095D01*
X176390476Y-99912380D01*
X176628571Y-98912380D01*
X177438095Y-99245714D02*
X177438095Y-99912380D01*
X177200000Y-98864761D02*
X176961904Y-99579047D01*
X177580952Y-99579047D01*
X174295238Y-90212380D02*
X173819047Y-90212380D01*
X173771428Y-90688571D01*
X173819047Y-90640952D01*
X173914285Y-90593333D01*
X174152380Y-90593333D01*
X174247619Y-90640952D01*
X174295238Y-90688571D01*
X174342857Y-90783809D01*
X174342857Y-91021904D01*
X174295238Y-91117142D01*
X174247619Y-91164761D01*
X174152380Y-91212380D01*
X173914285Y-91212380D01*
X173819047Y-91164761D01*
X173771428Y-91117142D01*
X175533333Y-91212380D02*
X175533333Y-90212380D01*
X175866666Y-90926666D01*
X176200000Y-90212380D01*
X176200000Y-91212380D01*
X176676190Y-91212380D02*
X176676190Y-90545714D01*
X176676190Y-90212380D02*
X176628571Y-90260000D01*
X176676190Y-90307619D01*
X176723809Y-90260000D01*
X176676190Y-90212380D01*
X176676190Y-90307619D01*
X177152380Y-90545714D02*
X177152380Y-91212380D01*
X177152380Y-90640952D02*
X177200000Y-90593333D01*
X177295238Y-90545714D01*
X177438095Y-90545714D01*
X177533333Y-90593333D01*
X177580952Y-90688571D01*
X177580952Y-91212380D01*
%TO.C,R1*%
X138643333Y-104912380D02*
X138310000Y-104436190D01*
X138071904Y-104912380D02*
X138071904Y-103912380D01*
X138452857Y-103912380D01*
X138548095Y-103960000D01*
X138595714Y-104007619D01*
X138643333Y-104102857D01*
X138643333Y-104245714D01*
X138595714Y-104340952D01*
X138548095Y-104388571D01*
X138452857Y-104436190D01*
X138071904Y-104436190D01*
X139595714Y-104912380D02*
X139024285Y-104912380D01*
X139310000Y-104912380D02*
X139310000Y-103912380D01*
X139214761Y-104055238D01*
X139119523Y-104150476D01*
X139024285Y-104198095D01*
%TO.C,R2*%
X151343333Y-104912380D02*
X151010000Y-104436190D01*
X150771904Y-104912380D02*
X150771904Y-103912380D01*
X151152857Y-103912380D01*
X151248095Y-103960000D01*
X151295714Y-104007619D01*
X151343333Y-104102857D01*
X151343333Y-104245714D01*
X151295714Y-104340952D01*
X151248095Y-104388571D01*
X151152857Y-104436190D01*
X150771904Y-104436190D01*
X151724285Y-104007619D02*
X151771904Y-103960000D01*
X151867142Y-103912380D01*
X152105238Y-103912380D01*
X152200476Y-103960000D01*
X152248095Y-104007619D01*
X152295714Y-104102857D01*
X152295714Y-104198095D01*
X152248095Y-104340952D01*
X151676666Y-104912380D01*
X152295714Y-104912380D01*
%TO.C,R5*%
X176033333Y-104912380D02*
X175700000Y-104436190D01*
X175461904Y-104912380D02*
X175461904Y-103912380D01*
X175842857Y-103912380D01*
X175938095Y-103960000D01*
X175985714Y-104007619D01*
X176033333Y-104102857D01*
X176033333Y-104245714D01*
X175985714Y-104340952D01*
X175938095Y-104388571D01*
X175842857Y-104436190D01*
X175461904Y-104436190D01*
X176938095Y-103912380D02*
X176461904Y-103912380D01*
X176414285Y-104388571D01*
X176461904Y-104340952D01*
X176557142Y-104293333D01*
X176795238Y-104293333D01*
X176890476Y-104340952D01*
X176938095Y-104388571D01*
X176985714Y-104483809D01*
X176985714Y-104721904D01*
X176938095Y-104817142D01*
X176890476Y-104864761D01*
X176795238Y-104912380D01*
X176557142Y-104912380D01*
X176461904Y-104864761D01*
X176414285Y-104817142D01*
D12*
%TO.C,LS1*%
X133390000Y-106800000D02*
X133390000Y-98080000D01*
X126980000Y-99690000D02*
X126980000Y-98690000D01*
X124380000Y-98690000D02*
X124380000Y-105190000D01*
X132780000Y-99690000D02*
X130480000Y-99690000D01*
X123770000Y-98080000D02*
X123770000Y-106800000D01*
X133690000Y-107100000D02*
X131280000Y-107100000D01*
X133390000Y-98080000D02*
X123770000Y-98080000D01*
X130480000Y-99690000D02*
X130480000Y-98690000D01*
X133690000Y-104690000D02*
X133690000Y-107100000D01*
X126980000Y-98690000D02*
X124380000Y-98690000D01*
X123770000Y-106800000D02*
X133390000Y-106800000D01*
X127880000Y-98690000D02*
X127880000Y-99690000D01*
X127880000Y-99690000D02*
X126980000Y-99690000D01*
X130480000Y-98690000D02*
X127880000Y-98690000D01*
X132780000Y-105190000D02*
X132780000Y-99690000D01*
X124380000Y-105190000D02*
X132780000Y-105190000D01*
%TO.C,v1*%
X159520000Y-67750001D02*
X159520000Y-59130001D01*
X159520000Y-84990000D02*
X159520000Y-76370000D01*
X121760000Y-84989999D02*
X159520000Y-84990000D01*
X159160000Y-76370000D02*
X159160000Y-67750001D01*
X159520000Y-59130001D02*
X121760000Y-59130000D01*
X159160000Y-67750001D02*
X159520000Y-67750001D01*
X159520000Y-76370000D02*
X159160000Y-76370000D01*
X121760000Y-59130000D02*
X121760000Y-84989999D01*
%TO.C,SW2*%
X148550000Y-98460000D02*
X153050000Y-98460000D01*
X154300000Y-95960000D02*
X154300000Y-94460000D01*
X153050000Y-91960000D02*
X148550000Y-91960000D01*
X147300000Y-94460000D02*
X147300000Y-95960000D01*
%TO.C,SW1*%
X135310000Y-94460000D02*
X135310000Y-95960000D01*
X142310000Y-95960000D02*
X142310000Y-94460000D01*
X136560000Y-98460000D02*
X141060000Y-98460000D01*
X141060000Y-91960000D02*
X136560000Y-91960000D01*
%TO.C,U1*%
X168580000Y-85740000D02*
X166780000Y-85740000D01*
X168580000Y-88860000D02*
X167780000Y-88860000D01*
X168580000Y-88860000D02*
X169380000Y-88860000D01*
X168580000Y-85740000D02*
X169380000Y-85740000D01*
%TO.C,L1*%
X198870000Y-96690000D02*
X198870000Y-93150000D01*
X191630000Y-96690000D02*
X198870000Y-96690000D01*
X200560000Y-94920000D02*
X198870000Y-94920000D01*
X191630000Y-93150000D02*
X191630000Y-96690000D01*
X198870000Y-93150000D02*
X191630000Y-93150000D01*
X189940000Y-94920000D02*
X191630000Y-94920000D01*
%TO.C,C2*%
X175160000Y-83080000D02*
X175160000Y-84580000D01*
X178410000Y-88400000D02*
X179160000Y-89150000D01*
X176160000Y-89150000D02*
X177660000Y-89150000D01*
X186400000Y-82910000D02*
X186400000Y-89150000D01*
X178410000Y-83660000D02*
X179160000Y-82910000D01*
X176160000Y-82910000D02*
X176160000Y-89150000D01*
X177660000Y-82910000D02*
X178410000Y-83660000D01*
X176160000Y-82910000D02*
X177660000Y-82910000D01*
X187540000Y-86030000D02*
X186400000Y-86030000D01*
X175020000Y-86030000D02*
X176160000Y-86030000D01*
X179160000Y-82910000D02*
X186400000Y-82910000D01*
X179160000Y-89150000D02*
X186400000Y-89150000D01*
X174410000Y-83830000D02*
X175910000Y-83830000D01*
X177660000Y-89150000D02*
X178410000Y-88400000D01*
%TO.C,C1*%
X195940000Y-79870000D02*
X196690000Y-80620000D01*
X201260000Y-76620000D02*
X201260000Y-78120000D01*
X195940000Y-81370000D02*
X195940000Y-88610000D01*
X202180000Y-81370000D02*
X202180000Y-88610000D01*
X199060000Y-77230000D02*
X199060000Y-78370000D01*
X199060000Y-89750000D02*
X199060000Y-88610000D01*
X202180000Y-78370000D02*
X202180000Y-79870000D01*
X202180000Y-79870000D02*
X201430000Y-80620000D01*
X202180000Y-78370000D02*
X195940000Y-78370000D01*
X201430000Y-80620000D02*
X202180000Y-81370000D01*
X202180000Y-88610000D02*
X195940000Y-88610000D01*
X195940000Y-78370000D02*
X195940000Y-79870000D01*
X196690000Y-80620000D02*
X195940000Y-81370000D01*
X202010000Y-77370000D02*
X200510000Y-77370000D01*
%TO.C,BT1*%
X200090000Y-59190000D02*
X170090000Y-59190000D01*
X170090000Y-69690000D02*
X200090000Y-69690000D01*
X200090000Y-69690000D02*
G75*
G03*
X200090000Y-59190000I0J5250000D01*
G01*
X170090000Y-59190000D02*
G75*
G03*
X170090000Y-69690000I0J-5250000D01*
G01*
%TO.C,R6*%
X205060000Y-100620000D02*
X203220000Y-100620000D01*
X205060000Y-104460000D02*
X205060000Y-100620000D01*
X204140000Y-99670000D02*
X204140000Y-100620000D01*
X203220000Y-104460000D02*
X205060000Y-104460000D01*
X203220000Y-100620000D02*
X203220000Y-104460000D01*
X204140000Y-105410000D02*
X204140000Y-104460000D01*
%TO.C,R4*%
X199060000Y-105410000D02*
X199060000Y-104460000D01*
X198140000Y-104460000D02*
X199980000Y-104460000D01*
X198140000Y-100620000D02*
X198140000Y-104460000D01*
X199060000Y-99670000D02*
X199060000Y-100620000D01*
X199980000Y-104460000D02*
X199980000Y-100620000D01*
X199980000Y-100620000D02*
X198140000Y-100620000D01*
%TO.C,R3*%
X166370000Y-102540000D02*
X165420000Y-102540000D01*
X161580000Y-103460000D02*
X165420000Y-103460000D01*
X165420000Y-101620000D02*
X161580000Y-101620000D01*
X161580000Y-101620000D02*
X161580000Y-103460000D01*
X165420000Y-103460000D02*
X165420000Y-101620000D01*
X160630000Y-102540000D02*
X161580000Y-102540000D01*
%TO.C,SW3*%
X160000000Y-94460000D02*
X160000000Y-95960000D01*
X165750000Y-91960000D02*
X161250000Y-91960000D01*
X161250000Y-98460000D02*
X165750000Y-98460000D01*
X167000000Y-95960000D02*
X167000000Y-94460000D01*
%TO.C,SW4*%
X178450000Y-91960000D02*
X173950000Y-91960000D01*
X173950000Y-98460000D02*
X178450000Y-98460000D01*
X179700000Y-95960000D02*
X179700000Y-94460000D01*
X172700000Y-94460000D02*
X172700000Y-95960000D01*
%TO.C,R1*%
X140730000Y-103460000D02*
X140730000Y-101620000D01*
X140730000Y-101620000D02*
X136890000Y-101620000D01*
X136890000Y-103460000D02*
X140730000Y-103460000D01*
X136890000Y-101620000D02*
X136890000Y-103460000D01*
X135940000Y-102540000D02*
X136890000Y-102540000D01*
X141680000Y-102540000D02*
X140730000Y-102540000D01*
%TO.C,R2*%
X149590000Y-101620000D02*
X149590000Y-103460000D01*
X149590000Y-103460000D02*
X153430000Y-103460000D01*
X153430000Y-103460000D02*
X153430000Y-101620000D01*
X153430000Y-101620000D02*
X149590000Y-101620000D01*
X148640000Y-102540000D02*
X149590000Y-102540000D01*
X154380000Y-102540000D02*
X153430000Y-102540000D01*
%TO.C,R5*%
X179070000Y-102540000D02*
X178120000Y-102540000D01*
X178120000Y-103460000D02*
X178120000Y-101620000D01*
X174280000Y-101620000D02*
X174280000Y-103460000D01*
X174280000Y-103460000D02*
X178120000Y-103460000D01*
X178120000Y-101620000D02*
X174280000Y-101620000D01*
X173330000Y-102540000D02*
X174280000Y-102540000D01*
%TD*%
M02*
