%TF.GenerationSoftware,KiCad,Pcbnew,(6.0.7)*%
%TF.CreationDate,2023-01-15T16:15:48-05:00*%
%TF.ProjectId,timer,74696d65-722e-46b6-9963-61645f706362,rev?*%
%TF.SameCoordinates,Original*%
%TF.FileFunction,Drillmap*%
%TF.FilePolarity,Positive*%
%FSLAX45Y45*%
G04 Gerber Fmt 4.5, Leading zero omitted, Abs format (unit mm)*
G04 Created by KiCad (PCBNEW (6.0.7)) date 2023-01-15 16:15:48*
%MOMM*%
%LPD*%
G01*
G04 APERTURE LIST*
%ADD10C,0.100000*%
%ADD11C,0.200000*%
%ADD12C,0.060000*%
%ADD13C,0.070000*%
%ADD14C,0.080000*%
%ADD15C,0.110000*%
%ADD16C,0.160000*%
%ADD17C,0.610000*%
G04 APERTURE END LIST*
D10*
X11700000Y-5500000D02*
X21700000Y-5500000D01*
X21700000Y-5500000D02*
X21700000Y-11500000D01*
X21700000Y-11500000D02*
X11700000Y-11500000D01*
X11700000Y-11500000D02*
X11700000Y-5500000D01*
D11*
D12*
X19368000Y-9864000D02*
X19428000Y-9924000D01*
X19428000Y-9864000D02*
X19368000Y-9924000D01*
X19368000Y-10224000D02*
X19428000Y-10284000D01*
X19428000Y-10224000D02*
X19368000Y-10284000D01*
X19368000Y-10584000D02*
X19428000Y-10644000D01*
X19428000Y-10584000D02*
X19368000Y-10644000D01*
D13*
X13535000Y-10254000D02*
G75*
G03*
X13535000Y-10254000I-35000J0D01*
G01*
X14297000Y-10254000D02*
G75*
G03*
X14297000Y-10254000I-35000J0D01*
G01*
X14805000Y-10254000D02*
G75*
G03*
X14805000Y-10254000I-35000J0D01*
G01*
X15567000Y-10254000D02*
G75*
G03*
X15567000Y-10254000I-35000J0D01*
G01*
X16004000Y-10254000D02*
G75*
G03*
X16004000Y-10254000I-35000J0D01*
G01*
X16766000Y-10254000D02*
G75*
G03*
X16766000Y-10254000I-35000J0D01*
G01*
X17274000Y-10254000D02*
G75*
G03*
X17274000Y-10254000I-35000J0D01*
G01*
X18036000Y-10254000D02*
G75*
G03*
X18036000Y-10254000I-35000J0D01*
G01*
X19941000Y-9873000D02*
G75*
G03*
X19941000Y-9873000I-35000J0D01*
G01*
X19941000Y-10635000D02*
G75*
G03*
X19941000Y-10635000I-35000J0D01*
G01*
X20449000Y-9873000D02*
G75*
G03*
X20449000Y-9873000I-35000J0D01*
G01*
X20449000Y-10635000D02*
G75*
G03*
X20449000Y-10635000I-35000J0D01*
G01*
D14*
X12286000Y-6023000D02*
X12286000Y-6103000D01*
X12246000Y-6063000D02*
X12326000Y-6063000D01*
X12286000Y-8309000D02*
X12286000Y-8389000D01*
X12246000Y-8349000D02*
X12326000Y-8349000D01*
X12540000Y-6023000D02*
X12540000Y-6103000D01*
X12500000Y-6063000D02*
X12580000Y-6063000D01*
X12540000Y-8309000D02*
X12540000Y-8389000D01*
X12500000Y-8349000D02*
X12580000Y-8349000D01*
X12794000Y-6023000D02*
X12794000Y-6103000D01*
X12754000Y-6063000D02*
X12834000Y-6063000D01*
X12794000Y-8309000D02*
X12794000Y-8389000D01*
X12754000Y-8349000D02*
X12834000Y-8349000D01*
X13048000Y-6023000D02*
X13048000Y-6103000D01*
X13008000Y-6063000D02*
X13088000Y-6063000D01*
X13048000Y-8309000D02*
X13048000Y-8389000D01*
X13008000Y-8349000D02*
X13088000Y-8349000D01*
X13302000Y-6023000D02*
X13302000Y-6103000D01*
X13262000Y-6063000D02*
X13342000Y-6063000D01*
X13302000Y-8309000D02*
X13302000Y-8389000D01*
X13262000Y-8349000D02*
X13342000Y-8349000D01*
X13556000Y-6023000D02*
X13556000Y-6103000D01*
X13516000Y-6063000D02*
X13596000Y-6063000D01*
X13556000Y-8309000D02*
X13556000Y-8389000D01*
X13516000Y-8349000D02*
X13596000Y-8349000D01*
X13810000Y-6023000D02*
X13810000Y-6103000D01*
X13770000Y-6063000D02*
X13850000Y-6063000D01*
X13810000Y-8309000D02*
X13810000Y-8389000D01*
X13770000Y-8349000D02*
X13850000Y-8349000D01*
X14064000Y-6023000D02*
X14064000Y-6103000D01*
X14024000Y-6063000D02*
X14104000Y-6063000D01*
X14064000Y-8309000D02*
X14064000Y-8389000D01*
X14024000Y-8349000D02*
X14104000Y-8349000D01*
X14318000Y-6023000D02*
X14318000Y-6103000D01*
X14278000Y-6063000D02*
X14358000Y-6063000D01*
X14318000Y-8309000D02*
X14318000Y-8389000D01*
X14278000Y-8349000D02*
X14358000Y-8349000D01*
X14572000Y-6023000D02*
X14572000Y-6103000D01*
X14532000Y-6063000D02*
X14612000Y-6063000D01*
X14572000Y-8309000D02*
X14572000Y-8389000D01*
X14532000Y-8349000D02*
X14612000Y-8349000D01*
X14826000Y-6023000D02*
X14826000Y-6103000D01*
X14786000Y-6063000D02*
X14866000Y-6063000D01*
X14826000Y-8309000D02*
X14826000Y-8389000D01*
X14786000Y-8349000D02*
X14866000Y-8349000D01*
X15080000Y-6023000D02*
X15080000Y-6103000D01*
X15040000Y-6063000D02*
X15120000Y-6063000D01*
X15080000Y-8309000D02*
X15080000Y-8389000D01*
X15040000Y-8349000D02*
X15120000Y-8349000D01*
X15334000Y-6023000D02*
X15334000Y-6103000D01*
X15294000Y-6063000D02*
X15374000Y-6063000D01*
X15334000Y-8309000D02*
X15334000Y-8389000D01*
X15294000Y-8349000D02*
X15374000Y-8349000D01*
X15588000Y-6023000D02*
X15588000Y-6103000D01*
X15548000Y-6063000D02*
X15628000Y-6063000D01*
X15588000Y-8309000D02*
X15588000Y-8389000D01*
X15548000Y-8349000D02*
X15628000Y-8349000D01*
X15842000Y-6023000D02*
X15842000Y-6103000D01*
X15802000Y-6063000D02*
X15882000Y-6063000D01*
X15842000Y-8309000D02*
X15842000Y-8389000D01*
X15802000Y-8349000D02*
X15882000Y-8349000D01*
X18890000Y-9452000D02*
X18890000Y-9532000D01*
X18850000Y-9492000D02*
X18930000Y-9492000D01*
X20160000Y-9452000D02*
X20160000Y-9532000D01*
X20120000Y-9492000D02*
X20200000Y-9492000D01*
D10*
X17413356Y-8638356D02*
X17413356Y-8567644D01*
X17342644Y-8567644D01*
X17342644Y-8638356D01*
X17413356Y-8638356D01*
X18913356Y-8638356D02*
X18913356Y-8567644D01*
X18842644Y-8567644D01*
X18842644Y-8638356D01*
X18913356Y-8638356D01*
X19941356Y-7634356D02*
X19941356Y-7563644D01*
X19870644Y-7563644D01*
X19870644Y-7634356D01*
X19941356Y-7634356D01*
X19941356Y-9134356D02*
X19941356Y-9063644D01*
X19870644Y-9063644D01*
X19870644Y-9134356D01*
X19941356Y-9134356D01*
D15*
X13556000Y-9351000D02*
X13611000Y-9296000D01*
X13556000Y-9241000D01*
X13501000Y-9296000D01*
X13556000Y-9351000D01*
X13556000Y-9801000D02*
X13611000Y-9746000D01*
X13556000Y-9691000D01*
X13501000Y-9746000D01*
X13556000Y-9801000D01*
X14206000Y-9351000D02*
X14261000Y-9296000D01*
X14206000Y-9241000D01*
X14151000Y-9296000D01*
X14206000Y-9351000D01*
X14206000Y-9801000D02*
X14261000Y-9746000D01*
X14206000Y-9691000D01*
X14151000Y-9746000D01*
X14206000Y-9801000D01*
X14755000Y-9351000D02*
X14810000Y-9296000D01*
X14755000Y-9241000D01*
X14700000Y-9296000D01*
X14755000Y-9351000D01*
X14755000Y-9801000D02*
X14810000Y-9746000D01*
X14755000Y-9691000D01*
X14700000Y-9746000D01*
X14755000Y-9801000D01*
X15405000Y-9351000D02*
X15460000Y-9296000D01*
X15405000Y-9241000D01*
X15350000Y-9296000D01*
X15405000Y-9351000D01*
X15405000Y-9801000D02*
X15460000Y-9746000D01*
X15405000Y-9691000D01*
X15350000Y-9746000D01*
X15405000Y-9801000D01*
X16025000Y-9351000D02*
X16080000Y-9296000D01*
X16025000Y-9241000D01*
X15970000Y-9296000D01*
X16025000Y-9351000D01*
X16025000Y-9801000D02*
X16080000Y-9746000D01*
X16025000Y-9691000D01*
X15970000Y-9746000D01*
X16025000Y-9801000D01*
X16675000Y-9351000D02*
X16730000Y-9296000D01*
X16675000Y-9241000D01*
X16620000Y-9296000D01*
X16675000Y-9351000D01*
X16675000Y-9801000D02*
X16730000Y-9746000D01*
X16675000Y-9691000D01*
X16620000Y-9746000D01*
X16675000Y-9801000D01*
X17295000Y-9351000D02*
X17350000Y-9296000D01*
X17295000Y-9241000D01*
X17240000Y-9296000D01*
X17295000Y-9351000D01*
X17295000Y-9801000D02*
X17350000Y-9746000D01*
X17295000Y-9691000D01*
X17240000Y-9746000D01*
X17295000Y-9801000D01*
X17945000Y-9351000D02*
X18000000Y-9296000D01*
X17945000Y-9241000D01*
X17890000Y-9296000D01*
X17945000Y-9351000D01*
X17945000Y-9801000D02*
X18000000Y-9746000D01*
X17945000Y-9691000D01*
X17890000Y-9746000D01*
X17945000Y-9801000D01*
D16*
X12618000Y-10174000D02*
X12778000Y-10334000D01*
X12778000Y-10174000D02*
X12618000Y-10334000D01*
X12778000Y-10254000D02*
G75*
G03*
X12778000Y-10254000I-80000J0D01*
G01*
X12968000Y-10174000D02*
X13128000Y-10334000D01*
X13128000Y-10174000D02*
X12968000Y-10334000D01*
X13128000Y-10254000D02*
G75*
G03*
X13128000Y-10254000I-80000J0D01*
G01*
D17*
X16704000Y-6139000D02*
X17314000Y-6749000D01*
X17314000Y-6139000D02*
X16704000Y-6749000D01*
X17009000Y-6139000D02*
X17009000Y-6749000D01*
X16704000Y-6444000D02*
X17314000Y-6444000D01*
X19701000Y-6139000D02*
X20311000Y-6749000D01*
X20311000Y-6139000D02*
X19701000Y-6749000D01*
X20006000Y-6139000D02*
X20006000Y-6749000D01*
X19701000Y-6444000D02*
X20311000Y-6444000D01*
D11*
X11952619Y-11815476D02*
X11952619Y-11615476D01*
X12000238Y-11615476D01*
X12028809Y-11625000D01*
X12047857Y-11644048D01*
X12057381Y-11663095D01*
X12066905Y-11701190D01*
X12066905Y-11729762D01*
X12057381Y-11767857D01*
X12047857Y-11786905D01*
X12028809Y-11805952D01*
X12000238Y-11815476D01*
X11952619Y-11815476D01*
X12152619Y-11815476D02*
X12152619Y-11682143D01*
X12152619Y-11720238D02*
X12162143Y-11701190D01*
X12171667Y-11691667D01*
X12190714Y-11682143D01*
X12209762Y-11682143D01*
X12276428Y-11815476D02*
X12276428Y-11682143D01*
X12276428Y-11615476D02*
X12266905Y-11625000D01*
X12276428Y-11634524D01*
X12285952Y-11625000D01*
X12276428Y-11615476D01*
X12276428Y-11634524D01*
X12400238Y-11815476D02*
X12381190Y-11805952D01*
X12371667Y-11786905D01*
X12371667Y-11615476D01*
X12505000Y-11815476D02*
X12485952Y-11805952D01*
X12476428Y-11786905D01*
X12476428Y-11615476D01*
X12733571Y-11815476D02*
X12733571Y-11615476D01*
X12800238Y-11758333D01*
X12866905Y-11615476D01*
X12866905Y-11815476D01*
X13047857Y-11815476D02*
X13047857Y-11710714D01*
X13038333Y-11691667D01*
X13019286Y-11682143D01*
X12981190Y-11682143D01*
X12962143Y-11691667D01*
X13047857Y-11805952D02*
X13028809Y-11815476D01*
X12981190Y-11815476D01*
X12962143Y-11805952D01*
X12952619Y-11786905D01*
X12952619Y-11767857D01*
X12962143Y-11748809D01*
X12981190Y-11739286D01*
X13028809Y-11739286D01*
X13047857Y-11729762D01*
X13143095Y-11682143D02*
X13143095Y-11882143D01*
X13143095Y-11691667D02*
X13162143Y-11682143D01*
X13200238Y-11682143D01*
X13219286Y-11691667D01*
X13228809Y-11701190D01*
X13238333Y-11720238D01*
X13238333Y-11777381D01*
X13228809Y-11796428D01*
X13219286Y-11805952D01*
X13200238Y-11815476D01*
X13162143Y-11815476D01*
X13143095Y-11805952D01*
X13324048Y-11796428D02*
X13333571Y-11805952D01*
X13324048Y-11815476D01*
X13314524Y-11805952D01*
X13324048Y-11796428D01*
X13324048Y-11815476D01*
X13324048Y-11691667D02*
X13333571Y-11701190D01*
X13324048Y-11710714D01*
X13314524Y-11701190D01*
X13324048Y-11691667D01*
X13324048Y-11710714D01*
D12*
X11635000Y-12115000D02*
X11695000Y-12175000D01*
X11695000Y-12115000D02*
X11635000Y-12175000D01*
D11*
X11990714Y-12035476D02*
X12009762Y-12035476D01*
X12028809Y-12045000D01*
X12038333Y-12054524D01*
X12047857Y-12073571D01*
X12057381Y-12111667D01*
X12057381Y-12159286D01*
X12047857Y-12197381D01*
X12038333Y-12216428D01*
X12028809Y-12225952D01*
X12009762Y-12235476D01*
X11990714Y-12235476D01*
X11971667Y-12225952D01*
X11962143Y-12216428D01*
X11952619Y-12197381D01*
X11943095Y-12159286D01*
X11943095Y-12111667D01*
X11952619Y-12073571D01*
X11962143Y-12054524D01*
X11971667Y-12045000D01*
X11990714Y-12035476D01*
X12143095Y-12216428D02*
X12152619Y-12225952D01*
X12143095Y-12235476D01*
X12133571Y-12225952D01*
X12143095Y-12216428D01*
X12143095Y-12235476D01*
X12324048Y-12035476D02*
X12285952Y-12035476D01*
X12266905Y-12045000D01*
X12257381Y-12054524D01*
X12238333Y-12083095D01*
X12228809Y-12121190D01*
X12228809Y-12197381D01*
X12238333Y-12216428D01*
X12247857Y-12225952D01*
X12266905Y-12235476D01*
X12305000Y-12235476D01*
X12324048Y-12225952D01*
X12333571Y-12216428D01*
X12343095Y-12197381D01*
X12343095Y-12149762D01*
X12333571Y-12130714D01*
X12324048Y-12121190D01*
X12305000Y-12111667D01*
X12266905Y-12111667D01*
X12247857Y-12121190D01*
X12238333Y-12130714D01*
X12228809Y-12149762D01*
X12466905Y-12035476D02*
X12485952Y-12035476D01*
X12505000Y-12045000D01*
X12514524Y-12054524D01*
X12524048Y-12073571D01*
X12533571Y-12111667D01*
X12533571Y-12159286D01*
X12524048Y-12197381D01*
X12514524Y-12216428D01*
X12505000Y-12225952D01*
X12485952Y-12235476D01*
X12466905Y-12235476D01*
X12447857Y-12225952D01*
X12438333Y-12216428D01*
X12428809Y-12197381D01*
X12419286Y-12159286D01*
X12419286Y-12111667D01*
X12428809Y-12073571D01*
X12438333Y-12054524D01*
X12447857Y-12045000D01*
X12466905Y-12035476D01*
X12657381Y-12035476D02*
X12676428Y-12035476D01*
X12695476Y-12045000D01*
X12705000Y-12054524D01*
X12714524Y-12073571D01*
X12724048Y-12111667D01*
X12724048Y-12159286D01*
X12714524Y-12197381D01*
X12705000Y-12216428D01*
X12695476Y-12225952D01*
X12676428Y-12235476D01*
X12657381Y-12235476D01*
X12638333Y-12225952D01*
X12628809Y-12216428D01*
X12619286Y-12197381D01*
X12609762Y-12159286D01*
X12609762Y-12111667D01*
X12619286Y-12073571D01*
X12628809Y-12054524D01*
X12638333Y-12045000D01*
X12657381Y-12035476D01*
X12809762Y-12235476D02*
X12809762Y-12102143D01*
X12809762Y-12121190D02*
X12819286Y-12111667D01*
X12838333Y-12102143D01*
X12866905Y-12102143D01*
X12885952Y-12111667D01*
X12895476Y-12130714D01*
X12895476Y-12235476D01*
X12895476Y-12130714D02*
X12905000Y-12111667D01*
X12924048Y-12102143D01*
X12952619Y-12102143D01*
X12971667Y-12111667D01*
X12981190Y-12130714D01*
X12981190Y-12235476D01*
X13076428Y-12235476D02*
X13076428Y-12102143D01*
X13076428Y-12121190D02*
X13085952Y-12111667D01*
X13105000Y-12102143D01*
X13133571Y-12102143D01*
X13152619Y-12111667D01*
X13162143Y-12130714D01*
X13162143Y-12235476D01*
X13162143Y-12130714D02*
X13171667Y-12111667D01*
X13190714Y-12102143D01*
X13219286Y-12102143D01*
X13238333Y-12111667D01*
X13247857Y-12130714D01*
X13247857Y-12235476D01*
X13638333Y-12025952D02*
X13466905Y-12283095D01*
X13895476Y-12035476D02*
X13914524Y-12035476D01*
X13933571Y-12045000D01*
X13943095Y-12054524D01*
X13952619Y-12073571D01*
X13962143Y-12111667D01*
X13962143Y-12159286D01*
X13952619Y-12197381D01*
X13943095Y-12216428D01*
X13933571Y-12225952D01*
X13914524Y-12235476D01*
X13895476Y-12235476D01*
X13876428Y-12225952D01*
X13866905Y-12216428D01*
X13857381Y-12197381D01*
X13847857Y-12159286D01*
X13847857Y-12111667D01*
X13857381Y-12073571D01*
X13866905Y-12054524D01*
X13876428Y-12045000D01*
X13895476Y-12035476D01*
X14047857Y-12216428D02*
X14057381Y-12225952D01*
X14047857Y-12235476D01*
X14038333Y-12225952D01*
X14047857Y-12216428D01*
X14047857Y-12235476D01*
X14181190Y-12035476D02*
X14200238Y-12035476D01*
X14219286Y-12045000D01*
X14228809Y-12054524D01*
X14238333Y-12073571D01*
X14247857Y-12111667D01*
X14247857Y-12159286D01*
X14238333Y-12197381D01*
X14228809Y-12216428D01*
X14219286Y-12225952D01*
X14200238Y-12235476D01*
X14181190Y-12235476D01*
X14162143Y-12225952D01*
X14152619Y-12216428D01*
X14143095Y-12197381D01*
X14133571Y-12159286D01*
X14133571Y-12111667D01*
X14143095Y-12073571D01*
X14152619Y-12054524D01*
X14162143Y-12045000D01*
X14181190Y-12035476D01*
X14324048Y-12054524D02*
X14333571Y-12045000D01*
X14352619Y-12035476D01*
X14400238Y-12035476D01*
X14419286Y-12045000D01*
X14428809Y-12054524D01*
X14438333Y-12073571D01*
X14438333Y-12092619D01*
X14428809Y-12121190D01*
X14314524Y-12235476D01*
X14438333Y-12235476D01*
X14505000Y-12035476D02*
X14628809Y-12035476D01*
X14562143Y-12111667D01*
X14590714Y-12111667D01*
X14609762Y-12121190D01*
X14619286Y-12130714D01*
X14628809Y-12149762D01*
X14628809Y-12197381D01*
X14619286Y-12216428D01*
X14609762Y-12225952D01*
X14590714Y-12235476D01*
X14533571Y-12235476D01*
X14514524Y-12225952D01*
X14505000Y-12216428D01*
X14800238Y-12035476D02*
X14762143Y-12035476D01*
X14743095Y-12045000D01*
X14733571Y-12054524D01*
X14714524Y-12083095D01*
X14705000Y-12121190D01*
X14705000Y-12197381D01*
X14714524Y-12216428D01*
X14724048Y-12225952D01*
X14743095Y-12235476D01*
X14781190Y-12235476D01*
X14800238Y-12225952D01*
X14809762Y-12216428D01*
X14819286Y-12197381D01*
X14819286Y-12149762D01*
X14809762Y-12130714D01*
X14800238Y-12121190D01*
X14781190Y-12111667D01*
X14743095Y-12111667D01*
X14724048Y-12121190D01*
X14714524Y-12130714D01*
X14705000Y-12149762D01*
X14895476Y-12035476D02*
X14895476Y-12073571D01*
X14971667Y-12035476D02*
X14971667Y-12073571D01*
X15266905Y-12311667D02*
X15257381Y-12302143D01*
X15238333Y-12273571D01*
X15228809Y-12254524D01*
X15219286Y-12225952D01*
X15209762Y-12178333D01*
X15209762Y-12140238D01*
X15219286Y-12092619D01*
X15228809Y-12064048D01*
X15238333Y-12045000D01*
X15257381Y-12016428D01*
X15266905Y-12006905D01*
X15324048Y-12035476D02*
X15447857Y-12035476D01*
X15381190Y-12111667D01*
X15409762Y-12111667D01*
X15428809Y-12121190D01*
X15438333Y-12130714D01*
X15447857Y-12149762D01*
X15447857Y-12197381D01*
X15438333Y-12216428D01*
X15428809Y-12225952D01*
X15409762Y-12235476D01*
X15352619Y-12235476D01*
X15333571Y-12225952D01*
X15324048Y-12216428D01*
X15685952Y-12235476D02*
X15685952Y-12035476D01*
X15771667Y-12235476D02*
X15771667Y-12130714D01*
X15762143Y-12111667D01*
X15743095Y-12102143D01*
X15714524Y-12102143D01*
X15695476Y-12111667D01*
X15685952Y-12121190D01*
X15895476Y-12235476D02*
X15876428Y-12225952D01*
X15866905Y-12216428D01*
X15857381Y-12197381D01*
X15857381Y-12140238D01*
X15866905Y-12121190D01*
X15876428Y-12111667D01*
X15895476Y-12102143D01*
X15924048Y-12102143D01*
X15943095Y-12111667D01*
X15952619Y-12121190D01*
X15962143Y-12140238D01*
X15962143Y-12197381D01*
X15952619Y-12216428D01*
X15943095Y-12225952D01*
X15924048Y-12235476D01*
X15895476Y-12235476D01*
X16076428Y-12235476D02*
X16057381Y-12225952D01*
X16047857Y-12206905D01*
X16047857Y-12035476D01*
X16228809Y-12225952D02*
X16209762Y-12235476D01*
X16171667Y-12235476D01*
X16152619Y-12225952D01*
X16143095Y-12206905D01*
X16143095Y-12130714D01*
X16152619Y-12111667D01*
X16171667Y-12102143D01*
X16209762Y-12102143D01*
X16228809Y-12111667D01*
X16238333Y-12130714D01*
X16238333Y-12149762D01*
X16143095Y-12168809D01*
X16314524Y-12225952D02*
X16333571Y-12235476D01*
X16371667Y-12235476D01*
X16390714Y-12225952D01*
X16400238Y-12206905D01*
X16400238Y-12197381D01*
X16390714Y-12178333D01*
X16371667Y-12168809D01*
X16343095Y-12168809D01*
X16324048Y-12159286D01*
X16314524Y-12140238D01*
X16314524Y-12130714D01*
X16324048Y-12111667D01*
X16343095Y-12102143D01*
X16371667Y-12102143D01*
X16390714Y-12111667D01*
X16466905Y-12311667D02*
X16476428Y-12302143D01*
X16495476Y-12273571D01*
X16505000Y-12254524D01*
X16514524Y-12225952D01*
X16524048Y-12178333D01*
X16524048Y-12140238D01*
X16514524Y-12092619D01*
X16505000Y-12064048D01*
X16495476Y-12045000D01*
X16476428Y-12016428D01*
X16466905Y-12006905D01*
D13*
X11695000Y-12409000D02*
G75*
G03*
X11695000Y-12409000I-35000J0D01*
G01*
D11*
X11990714Y-12299476D02*
X12009762Y-12299476D01*
X12028809Y-12309000D01*
X12038333Y-12318524D01*
X12047857Y-12337571D01*
X12057381Y-12375667D01*
X12057381Y-12423286D01*
X12047857Y-12461381D01*
X12038333Y-12480428D01*
X12028809Y-12489952D01*
X12009762Y-12499476D01*
X11990714Y-12499476D01*
X11971667Y-12489952D01*
X11962143Y-12480428D01*
X11952619Y-12461381D01*
X11943095Y-12423286D01*
X11943095Y-12375667D01*
X11952619Y-12337571D01*
X11962143Y-12318524D01*
X11971667Y-12309000D01*
X11990714Y-12299476D01*
X12143095Y-12480428D02*
X12152619Y-12489952D01*
X12143095Y-12499476D01*
X12133571Y-12489952D01*
X12143095Y-12480428D01*
X12143095Y-12499476D01*
X12219286Y-12299476D02*
X12352619Y-12299476D01*
X12266905Y-12499476D01*
X12466905Y-12299476D02*
X12485952Y-12299476D01*
X12505000Y-12309000D01*
X12514524Y-12318524D01*
X12524048Y-12337571D01*
X12533571Y-12375667D01*
X12533571Y-12423286D01*
X12524048Y-12461381D01*
X12514524Y-12480428D01*
X12505000Y-12489952D01*
X12485952Y-12499476D01*
X12466905Y-12499476D01*
X12447857Y-12489952D01*
X12438333Y-12480428D01*
X12428809Y-12461381D01*
X12419286Y-12423286D01*
X12419286Y-12375667D01*
X12428809Y-12337571D01*
X12438333Y-12318524D01*
X12447857Y-12309000D01*
X12466905Y-12299476D01*
X12657381Y-12299476D02*
X12676428Y-12299476D01*
X12695476Y-12309000D01*
X12705000Y-12318524D01*
X12714524Y-12337571D01*
X12724048Y-12375667D01*
X12724048Y-12423286D01*
X12714524Y-12461381D01*
X12705000Y-12480428D01*
X12695476Y-12489952D01*
X12676428Y-12499476D01*
X12657381Y-12499476D01*
X12638333Y-12489952D01*
X12628809Y-12480428D01*
X12619286Y-12461381D01*
X12609762Y-12423286D01*
X12609762Y-12375667D01*
X12619286Y-12337571D01*
X12628809Y-12318524D01*
X12638333Y-12309000D01*
X12657381Y-12299476D01*
X12809762Y-12499476D02*
X12809762Y-12366143D01*
X12809762Y-12385190D02*
X12819286Y-12375667D01*
X12838333Y-12366143D01*
X12866905Y-12366143D01*
X12885952Y-12375667D01*
X12895476Y-12394714D01*
X12895476Y-12499476D01*
X12895476Y-12394714D02*
X12905000Y-12375667D01*
X12924048Y-12366143D01*
X12952619Y-12366143D01*
X12971667Y-12375667D01*
X12981190Y-12394714D01*
X12981190Y-12499476D01*
X13076428Y-12499476D02*
X13076428Y-12366143D01*
X13076428Y-12385190D02*
X13085952Y-12375667D01*
X13105000Y-12366143D01*
X13133571Y-12366143D01*
X13152619Y-12375667D01*
X13162143Y-12394714D01*
X13162143Y-12499476D01*
X13162143Y-12394714D02*
X13171667Y-12375667D01*
X13190714Y-12366143D01*
X13219286Y-12366143D01*
X13238333Y-12375667D01*
X13247857Y-12394714D01*
X13247857Y-12499476D01*
X13638333Y-12289952D02*
X13466905Y-12547095D01*
X13895476Y-12299476D02*
X13914524Y-12299476D01*
X13933571Y-12309000D01*
X13943095Y-12318524D01*
X13952619Y-12337571D01*
X13962143Y-12375667D01*
X13962143Y-12423286D01*
X13952619Y-12461381D01*
X13943095Y-12480428D01*
X13933571Y-12489952D01*
X13914524Y-12499476D01*
X13895476Y-12499476D01*
X13876428Y-12489952D01*
X13866905Y-12480428D01*
X13857381Y-12461381D01*
X13847857Y-12423286D01*
X13847857Y-12375667D01*
X13857381Y-12337571D01*
X13866905Y-12318524D01*
X13876428Y-12309000D01*
X13895476Y-12299476D01*
X14047857Y-12480428D02*
X14057381Y-12489952D01*
X14047857Y-12499476D01*
X14038333Y-12489952D01*
X14047857Y-12480428D01*
X14047857Y-12499476D01*
X14181190Y-12299476D02*
X14200238Y-12299476D01*
X14219286Y-12309000D01*
X14228809Y-12318524D01*
X14238333Y-12337571D01*
X14247857Y-12375667D01*
X14247857Y-12423286D01*
X14238333Y-12461381D01*
X14228809Y-12480428D01*
X14219286Y-12489952D01*
X14200238Y-12499476D01*
X14181190Y-12499476D01*
X14162143Y-12489952D01*
X14152619Y-12480428D01*
X14143095Y-12461381D01*
X14133571Y-12423286D01*
X14133571Y-12375667D01*
X14143095Y-12337571D01*
X14152619Y-12318524D01*
X14162143Y-12309000D01*
X14181190Y-12299476D01*
X14324048Y-12318524D02*
X14333571Y-12309000D01*
X14352619Y-12299476D01*
X14400238Y-12299476D01*
X14419286Y-12309000D01*
X14428809Y-12318524D01*
X14438333Y-12337571D01*
X14438333Y-12356619D01*
X14428809Y-12385190D01*
X14314524Y-12499476D01*
X14438333Y-12499476D01*
X14505000Y-12299476D02*
X14638333Y-12299476D01*
X14552619Y-12499476D01*
X14800238Y-12299476D02*
X14762143Y-12299476D01*
X14743095Y-12309000D01*
X14733571Y-12318524D01*
X14714524Y-12347095D01*
X14705000Y-12385190D01*
X14705000Y-12461381D01*
X14714524Y-12480428D01*
X14724048Y-12489952D01*
X14743095Y-12499476D01*
X14781190Y-12499476D01*
X14800238Y-12489952D01*
X14809762Y-12480428D01*
X14819286Y-12461381D01*
X14819286Y-12413762D01*
X14809762Y-12394714D01*
X14800238Y-12385190D01*
X14781190Y-12375667D01*
X14743095Y-12375667D01*
X14724048Y-12385190D01*
X14714524Y-12394714D01*
X14705000Y-12413762D01*
X14895476Y-12299476D02*
X14895476Y-12337571D01*
X14971667Y-12299476D02*
X14971667Y-12337571D01*
X15266905Y-12575667D02*
X15257381Y-12566143D01*
X15238333Y-12537571D01*
X15228809Y-12518524D01*
X15219286Y-12489952D01*
X15209762Y-12442333D01*
X15209762Y-12404238D01*
X15219286Y-12356619D01*
X15228809Y-12328048D01*
X15238333Y-12309000D01*
X15257381Y-12280428D01*
X15266905Y-12270905D01*
X15447857Y-12499476D02*
X15333571Y-12499476D01*
X15390714Y-12499476D02*
X15390714Y-12299476D01*
X15371667Y-12328048D01*
X15352619Y-12347095D01*
X15333571Y-12356619D01*
X15524048Y-12318524D02*
X15533571Y-12309000D01*
X15552619Y-12299476D01*
X15600238Y-12299476D01*
X15619286Y-12309000D01*
X15628809Y-12318524D01*
X15638333Y-12337571D01*
X15638333Y-12356619D01*
X15628809Y-12385190D01*
X15514524Y-12499476D01*
X15638333Y-12499476D01*
X15876428Y-12499476D02*
X15876428Y-12299476D01*
X15962143Y-12499476D02*
X15962143Y-12394714D01*
X15952619Y-12375667D01*
X15933571Y-12366143D01*
X15905000Y-12366143D01*
X15885952Y-12375667D01*
X15876428Y-12385190D01*
X16085952Y-12499476D02*
X16066905Y-12489952D01*
X16057381Y-12480428D01*
X16047857Y-12461381D01*
X16047857Y-12404238D01*
X16057381Y-12385190D01*
X16066905Y-12375667D01*
X16085952Y-12366143D01*
X16114524Y-12366143D01*
X16133571Y-12375667D01*
X16143095Y-12385190D01*
X16152619Y-12404238D01*
X16152619Y-12461381D01*
X16143095Y-12480428D01*
X16133571Y-12489952D01*
X16114524Y-12499476D01*
X16085952Y-12499476D01*
X16266905Y-12499476D02*
X16247857Y-12489952D01*
X16238333Y-12470905D01*
X16238333Y-12299476D01*
X16419286Y-12489952D02*
X16400238Y-12499476D01*
X16362143Y-12499476D01*
X16343095Y-12489952D01*
X16333571Y-12470905D01*
X16333571Y-12394714D01*
X16343095Y-12375667D01*
X16362143Y-12366143D01*
X16400238Y-12366143D01*
X16419286Y-12375667D01*
X16428809Y-12394714D01*
X16428809Y-12413762D01*
X16333571Y-12432809D01*
X16505000Y-12489952D02*
X16524048Y-12499476D01*
X16562143Y-12499476D01*
X16581190Y-12489952D01*
X16590714Y-12470905D01*
X16590714Y-12461381D01*
X16581190Y-12442333D01*
X16562143Y-12432809D01*
X16533571Y-12432809D01*
X16514524Y-12423286D01*
X16505000Y-12404238D01*
X16505000Y-12394714D01*
X16514524Y-12375667D01*
X16533571Y-12366143D01*
X16562143Y-12366143D01*
X16581190Y-12375667D01*
X16657381Y-12575667D02*
X16666905Y-12566143D01*
X16685952Y-12537571D01*
X16695476Y-12518524D01*
X16705000Y-12489952D01*
X16714524Y-12442333D01*
X16714524Y-12404238D01*
X16705000Y-12356619D01*
X16695476Y-12328048D01*
X16685952Y-12309000D01*
X16666905Y-12280428D01*
X16657381Y-12270905D01*
D14*
X11655000Y-12633000D02*
X11655000Y-12713000D01*
X11615000Y-12673000D02*
X11695000Y-12673000D01*
D11*
X11990714Y-12563476D02*
X12009762Y-12563476D01*
X12028809Y-12573000D01*
X12038333Y-12582524D01*
X12047857Y-12601571D01*
X12057381Y-12639667D01*
X12057381Y-12687286D01*
X12047857Y-12725381D01*
X12038333Y-12744428D01*
X12028809Y-12753952D01*
X12009762Y-12763476D01*
X11990714Y-12763476D01*
X11971667Y-12753952D01*
X11962143Y-12744428D01*
X11952619Y-12725381D01*
X11943095Y-12687286D01*
X11943095Y-12639667D01*
X11952619Y-12601571D01*
X11962143Y-12582524D01*
X11971667Y-12573000D01*
X11990714Y-12563476D01*
X12143095Y-12744428D02*
X12152619Y-12753952D01*
X12143095Y-12763476D01*
X12133571Y-12753952D01*
X12143095Y-12744428D01*
X12143095Y-12763476D01*
X12266905Y-12649190D02*
X12247857Y-12639667D01*
X12238333Y-12630143D01*
X12228809Y-12611095D01*
X12228809Y-12601571D01*
X12238333Y-12582524D01*
X12247857Y-12573000D01*
X12266905Y-12563476D01*
X12305000Y-12563476D01*
X12324048Y-12573000D01*
X12333571Y-12582524D01*
X12343095Y-12601571D01*
X12343095Y-12611095D01*
X12333571Y-12630143D01*
X12324048Y-12639667D01*
X12305000Y-12649190D01*
X12266905Y-12649190D01*
X12247857Y-12658714D01*
X12238333Y-12668238D01*
X12228809Y-12687286D01*
X12228809Y-12725381D01*
X12238333Y-12744428D01*
X12247857Y-12753952D01*
X12266905Y-12763476D01*
X12305000Y-12763476D01*
X12324048Y-12753952D01*
X12333571Y-12744428D01*
X12343095Y-12725381D01*
X12343095Y-12687286D01*
X12333571Y-12668238D01*
X12324048Y-12658714D01*
X12305000Y-12649190D01*
X12466905Y-12563476D02*
X12485952Y-12563476D01*
X12505000Y-12573000D01*
X12514524Y-12582524D01*
X12524048Y-12601571D01*
X12533571Y-12639667D01*
X12533571Y-12687286D01*
X12524048Y-12725381D01*
X12514524Y-12744428D01*
X12505000Y-12753952D01*
X12485952Y-12763476D01*
X12466905Y-12763476D01*
X12447857Y-12753952D01*
X12438333Y-12744428D01*
X12428809Y-12725381D01*
X12419286Y-12687286D01*
X12419286Y-12639667D01*
X12428809Y-12601571D01*
X12438333Y-12582524D01*
X12447857Y-12573000D01*
X12466905Y-12563476D01*
X12657381Y-12563476D02*
X12676428Y-12563476D01*
X12695476Y-12573000D01*
X12705000Y-12582524D01*
X12714524Y-12601571D01*
X12724048Y-12639667D01*
X12724048Y-12687286D01*
X12714524Y-12725381D01*
X12705000Y-12744428D01*
X12695476Y-12753952D01*
X12676428Y-12763476D01*
X12657381Y-12763476D01*
X12638333Y-12753952D01*
X12628809Y-12744428D01*
X12619286Y-12725381D01*
X12609762Y-12687286D01*
X12609762Y-12639667D01*
X12619286Y-12601571D01*
X12628809Y-12582524D01*
X12638333Y-12573000D01*
X12657381Y-12563476D01*
X12809762Y-12763476D02*
X12809762Y-12630143D01*
X12809762Y-12649190D02*
X12819286Y-12639667D01*
X12838333Y-12630143D01*
X12866905Y-12630143D01*
X12885952Y-12639667D01*
X12895476Y-12658714D01*
X12895476Y-12763476D01*
X12895476Y-12658714D02*
X12905000Y-12639667D01*
X12924048Y-12630143D01*
X12952619Y-12630143D01*
X12971667Y-12639667D01*
X12981190Y-12658714D01*
X12981190Y-12763476D01*
X13076428Y-12763476D02*
X13076428Y-12630143D01*
X13076428Y-12649190D02*
X13085952Y-12639667D01*
X13105000Y-12630143D01*
X13133571Y-12630143D01*
X13152619Y-12639667D01*
X13162143Y-12658714D01*
X13162143Y-12763476D01*
X13162143Y-12658714D02*
X13171667Y-12639667D01*
X13190714Y-12630143D01*
X13219286Y-12630143D01*
X13238333Y-12639667D01*
X13247857Y-12658714D01*
X13247857Y-12763476D01*
X13638333Y-12553952D02*
X13466905Y-12811095D01*
X13895476Y-12563476D02*
X13914524Y-12563476D01*
X13933571Y-12573000D01*
X13943095Y-12582524D01*
X13952619Y-12601571D01*
X13962143Y-12639667D01*
X13962143Y-12687286D01*
X13952619Y-12725381D01*
X13943095Y-12744428D01*
X13933571Y-12753952D01*
X13914524Y-12763476D01*
X13895476Y-12763476D01*
X13876428Y-12753952D01*
X13866905Y-12744428D01*
X13857381Y-12725381D01*
X13847857Y-12687286D01*
X13847857Y-12639667D01*
X13857381Y-12601571D01*
X13866905Y-12582524D01*
X13876428Y-12573000D01*
X13895476Y-12563476D01*
X14047857Y-12744428D02*
X14057381Y-12753952D01*
X14047857Y-12763476D01*
X14038333Y-12753952D01*
X14047857Y-12744428D01*
X14047857Y-12763476D01*
X14181190Y-12563476D02*
X14200238Y-12563476D01*
X14219286Y-12573000D01*
X14228809Y-12582524D01*
X14238333Y-12601571D01*
X14247857Y-12639667D01*
X14247857Y-12687286D01*
X14238333Y-12725381D01*
X14228809Y-12744428D01*
X14219286Y-12753952D01*
X14200238Y-12763476D01*
X14181190Y-12763476D01*
X14162143Y-12753952D01*
X14152619Y-12744428D01*
X14143095Y-12725381D01*
X14133571Y-12687286D01*
X14133571Y-12639667D01*
X14143095Y-12601571D01*
X14152619Y-12582524D01*
X14162143Y-12573000D01*
X14181190Y-12563476D01*
X14314524Y-12563476D02*
X14438333Y-12563476D01*
X14371667Y-12639667D01*
X14400238Y-12639667D01*
X14419286Y-12649190D01*
X14428809Y-12658714D01*
X14438333Y-12677762D01*
X14438333Y-12725381D01*
X14428809Y-12744428D01*
X14419286Y-12753952D01*
X14400238Y-12763476D01*
X14343095Y-12763476D01*
X14324048Y-12753952D01*
X14314524Y-12744428D01*
X14628809Y-12763476D02*
X14514524Y-12763476D01*
X14571667Y-12763476D02*
X14571667Y-12563476D01*
X14552619Y-12592048D01*
X14533571Y-12611095D01*
X14514524Y-12620619D01*
X14809762Y-12563476D02*
X14714524Y-12563476D01*
X14705000Y-12658714D01*
X14714524Y-12649190D01*
X14733571Y-12639667D01*
X14781190Y-12639667D01*
X14800238Y-12649190D01*
X14809762Y-12658714D01*
X14819286Y-12677762D01*
X14819286Y-12725381D01*
X14809762Y-12744428D01*
X14800238Y-12753952D01*
X14781190Y-12763476D01*
X14733571Y-12763476D01*
X14714524Y-12753952D01*
X14705000Y-12744428D01*
X14895476Y-12563476D02*
X14895476Y-12601571D01*
X14971667Y-12563476D02*
X14971667Y-12601571D01*
X15266905Y-12839667D02*
X15257381Y-12830143D01*
X15238333Y-12801571D01*
X15228809Y-12782524D01*
X15219286Y-12753952D01*
X15209762Y-12706333D01*
X15209762Y-12668238D01*
X15219286Y-12620619D01*
X15228809Y-12592048D01*
X15238333Y-12573000D01*
X15257381Y-12544428D01*
X15266905Y-12534905D01*
X15324048Y-12563476D02*
X15447857Y-12563476D01*
X15381190Y-12639667D01*
X15409762Y-12639667D01*
X15428809Y-12649190D01*
X15438333Y-12658714D01*
X15447857Y-12677762D01*
X15447857Y-12725381D01*
X15438333Y-12744428D01*
X15428809Y-12753952D01*
X15409762Y-12763476D01*
X15352619Y-12763476D01*
X15333571Y-12753952D01*
X15324048Y-12744428D01*
X15524048Y-12582524D02*
X15533571Y-12573000D01*
X15552619Y-12563476D01*
X15600238Y-12563476D01*
X15619286Y-12573000D01*
X15628809Y-12582524D01*
X15638333Y-12601571D01*
X15638333Y-12620619D01*
X15628809Y-12649190D01*
X15514524Y-12763476D01*
X15638333Y-12763476D01*
X15876428Y-12763476D02*
X15876428Y-12563476D01*
X15962143Y-12763476D02*
X15962143Y-12658714D01*
X15952619Y-12639667D01*
X15933571Y-12630143D01*
X15905000Y-12630143D01*
X15885952Y-12639667D01*
X15876428Y-12649190D01*
X16085952Y-12763476D02*
X16066905Y-12753952D01*
X16057381Y-12744428D01*
X16047857Y-12725381D01*
X16047857Y-12668238D01*
X16057381Y-12649190D01*
X16066905Y-12639667D01*
X16085952Y-12630143D01*
X16114524Y-12630143D01*
X16133571Y-12639667D01*
X16143095Y-12649190D01*
X16152619Y-12668238D01*
X16152619Y-12725381D01*
X16143095Y-12744428D01*
X16133571Y-12753952D01*
X16114524Y-12763476D01*
X16085952Y-12763476D01*
X16266905Y-12763476D02*
X16247857Y-12753952D01*
X16238333Y-12734905D01*
X16238333Y-12563476D01*
X16419286Y-12753952D02*
X16400238Y-12763476D01*
X16362143Y-12763476D01*
X16343095Y-12753952D01*
X16333571Y-12734905D01*
X16333571Y-12658714D01*
X16343095Y-12639667D01*
X16362143Y-12630143D01*
X16400238Y-12630143D01*
X16419286Y-12639667D01*
X16428809Y-12658714D01*
X16428809Y-12677762D01*
X16333571Y-12696809D01*
X16505000Y-12753952D02*
X16524048Y-12763476D01*
X16562143Y-12763476D01*
X16581190Y-12753952D01*
X16590714Y-12734905D01*
X16590714Y-12725381D01*
X16581190Y-12706333D01*
X16562143Y-12696809D01*
X16533571Y-12696809D01*
X16514524Y-12687286D01*
X16505000Y-12668238D01*
X16505000Y-12658714D01*
X16514524Y-12639667D01*
X16533571Y-12630143D01*
X16562143Y-12630143D01*
X16581190Y-12639667D01*
X16657381Y-12839667D02*
X16666905Y-12830143D01*
X16685952Y-12801571D01*
X16695476Y-12782524D01*
X16705000Y-12753952D01*
X16714524Y-12706333D01*
X16714524Y-12668238D01*
X16705000Y-12620619D01*
X16695476Y-12592048D01*
X16685952Y-12573000D01*
X16666905Y-12544428D01*
X16657381Y-12534905D01*
D10*
X11680356Y-12972356D02*
X11680356Y-12901644D01*
X11609644Y-12901644D01*
X11609644Y-12972356D01*
X11680356Y-12972356D01*
D11*
X12057381Y-13027476D02*
X11943095Y-13027476D01*
X12000238Y-13027476D02*
X12000238Y-12827476D01*
X11981190Y-12856048D01*
X11962143Y-12875095D01*
X11943095Y-12884619D01*
X12143095Y-13008428D02*
X12152619Y-13017952D01*
X12143095Y-13027476D01*
X12133571Y-13017952D01*
X12143095Y-13008428D01*
X12143095Y-13027476D01*
X12276428Y-12827476D02*
X12295476Y-12827476D01*
X12314524Y-12837000D01*
X12324048Y-12846524D01*
X12333571Y-12865571D01*
X12343095Y-12903667D01*
X12343095Y-12951286D01*
X12333571Y-12989381D01*
X12324048Y-13008428D01*
X12314524Y-13017952D01*
X12295476Y-13027476D01*
X12276428Y-13027476D01*
X12257381Y-13017952D01*
X12247857Y-13008428D01*
X12238333Y-12989381D01*
X12228809Y-12951286D01*
X12228809Y-12903667D01*
X12238333Y-12865571D01*
X12247857Y-12846524D01*
X12257381Y-12837000D01*
X12276428Y-12827476D01*
X12466905Y-12827476D02*
X12485952Y-12827476D01*
X12505000Y-12837000D01*
X12514524Y-12846524D01*
X12524048Y-12865571D01*
X12533571Y-12903667D01*
X12533571Y-12951286D01*
X12524048Y-12989381D01*
X12514524Y-13008428D01*
X12505000Y-13017952D01*
X12485952Y-13027476D01*
X12466905Y-13027476D01*
X12447857Y-13017952D01*
X12438333Y-13008428D01*
X12428809Y-12989381D01*
X12419286Y-12951286D01*
X12419286Y-12903667D01*
X12428809Y-12865571D01*
X12438333Y-12846524D01*
X12447857Y-12837000D01*
X12466905Y-12827476D01*
X12657381Y-12827476D02*
X12676428Y-12827476D01*
X12695476Y-12837000D01*
X12705000Y-12846524D01*
X12714524Y-12865571D01*
X12724048Y-12903667D01*
X12724048Y-12951286D01*
X12714524Y-12989381D01*
X12705000Y-13008428D01*
X12695476Y-13017952D01*
X12676428Y-13027476D01*
X12657381Y-13027476D01*
X12638333Y-13017952D01*
X12628809Y-13008428D01*
X12619286Y-12989381D01*
X12609762Y-12951286D01*
X12609762Y-12903667D01*
X12619286Y-12865571D01*
X12628809Y-12846524D01*
X12638333Y-12837000D01*
X12657381Y-12827476D01*
X12809762Y-13027476D02*
X12809762Y-12894143D01*
X12809762Y-12913190D02*
X12819286Y-12903667D01*
X12838333Y-12894143D01*
X12866905Y-12894143D01*
X12885952Y-12903667D01*
X12895476Y-12922714D01*
X12895476Y-13027476D01*
X12895476Y-12922714D02*
X12905000Y-12903667D01*
X12924048Y-12894143D01*
X12952619Y-12894143D01*
X12971667Y-12903667D01*
X12981190Y-12922714D01*
X12981190Y-13027476D01*
X13076428Y-13027476D02*
X13076428Y-12894143D01*
X13076428Y-12913190D02*
X13085952Y-12903667D01*
X13105000Y-12894143D01*
X13133571Y-12894143D01*
X13152619Y-12903667D01*
X13162143Y-12922714D01*
X13162143Y-13027476D01*
X13162143Y-12922714D02*
X13171667Y-12903667D01*
X13190714Y-12894143D01*
X13219286Y-12894143D01*
X13238333Y-12903667D01*
X13247857Y-12922714D01*
X13247857Y-13027476D01*
X13638333Y-12817952D02*
X13466905Y-13075095D01*
X13895476Y-12827476D02*
X13914524Y-12827476D01*
X13933571Y-12837000D01*
X13943095Y-12846524D01*
X13952619Y-12865571D01*
X13962143Y-12903667D01*
X13962143Y-12951286D01*
X13952619Y-12989381D01*
X13943095Y-13008428D01*
X13933571Y-13017952D01*
X13914524Y-13027476D01*
X13895476Y-13027476D01*
X13876428Y-13017952D01*
X13866905Y-13008428D01*
X13857381Y-12989381D01*
X13847857Y-12951286D01*
X13847857Y-12903667D01*
X13857381Y-12865571D01*
X13866905Y-12846524D01*
X13876428Y-12837000D01*
X13895476Y-12827476D01*
X14047857Y-13008428D02*
X14057381Y-13017952D01*
X14047857Y-13027476D01*
X14038333Y-13017952D01*
X14047857Y-13008428D01*
X14047857Y-13027476D01*
X14181190Y-12827476D02*
X14200238Y-12827476D01*
X14219286Y-12837000D01*
X14228809Y-12846524D01*
X14238333Y-12865571D01*
X14247857Y-12903667D01*
X14247857Y-12951286D01*
X14238333Y-12989381D01*
X14228809Y-13008428D01*
X14219286Y-13017952D01*
X14200238Y-13027476D01*
X14181190Y-13027476D01*
X14162143Y-13017952D01*
X14152619Y-13008428D01*
X14143095Y-12989381D01*
X14133571Y-12951286D01*
X14133571Y-12903667D01*
X14143095Y-12865571D01*
X14152619Y-12846524D01*
X14162143Y-12837000D01*
X14181190Y-12827476D01*
X14314524Y-12827476D02*
X14438333Y-12827476D01*
X14371667Y-12903667D01*
X14400238Y-12903667D01*
X14419286Y-12913190D01*
X14428809Y-12922714D01*
X14438333Y-12941762D01*
X14438333Y-12989381D01*
X14428809Y-13008428D01*
X14419286Y-13017952D01*
X14400238Y-13027476D01*
X14343095Y-13027476D01*
X14324048Y-13017952D01*
X14314524Y-13008428D01*
X14533571Y-13027476D02*
X14571667Y-13027476D01*
X14590714Y-13017952D01*
X14600238Y-13008428D01*
X14619286Y-12979857D01*
X14628809Y-12941762D01*
X14628809Y-12865571D01*
X14619286Y-12846524D01*
X14609762Y-12837000D01*
X14590714Y-12827476D01*
X14552619Y-12827476D01*
X14533571Y-12837000D01*
X14524048Y-12846524D01*
X14514524Y-12865571D01*
X14514524Y-12913190D01*
X14524048Y-12932238D01*
X14533571Y-12941762D01*
X14552619Y-12951286D01*
X14590714Y-12951286D01*
X14609762Y-12941762D01*
X14619286Y-12932238D01*
X14628809Y-12913190D01*
X14800238Y-12894143D02*
X14800238Y-13027476D01*
X14752619Y-12817952D02*
X14705000Y-12960809D01*
X14828809Y-12960809D01*
X14895476Y-12827476D02*
X14895476Y-12865571D01*
X14971667Y-12827476D02*
X14971667Y-12865571D01*
X15266905Y-13103667D02*
X15257381Y-13094143D01*
X15238333Y-13065571D01*
X15228809Y-13046524D01*
X15219286Y-13017952D01*
X15209762Y-12970333D01*
X15209762Y-12932238D01*
X15219286Y-12884619D01*
X15228809Y-12856048D01*
X15238333Y-12837000D01*
X15257381Y-12808428D01*
X15266905Y-12798905D01*
X15428809Y-12894143D02*
X15428809Y-13027476D01*
X15381190Y-12817952D02*
X15333571Y-12960809D01*
X15457381Y-12960809D01*
X15685952Y-13027476D02*
X15685952Y-12827476D01*
X15771667Y-13027476D02*
X15771667Y-12922714D01*
X15762143Y-12903667D01*
X15743095Y-12894143D01*
X15714524Y-12894143D01*
X15695476Y-12903667D01*
X15685952Y-12913190D01*
X15895476Y-13027476D02*
X15876428Y-13017952D01*
X15866905Y-13008428D01*
X15857381Y-12989381D01*
X15857381Y-12932238D01*
X15866905Y-12913190D01*
X15876428Y-12903667D01*
X15895476Y-12894143D01*
X15924048Y-12894143D01*
X15943095Y-12903667D01*
X15952619Y-12913190D01*
X15962143Y-12932238D01*
X15962143Y-12989381D01*
X15952619Y-13008428D01*
X15943095Y-13017952D01*
X15924048Y-13027476D01*
X15895476Y-13027476D01*
X16076428Y-13027476D02*
X16057381Y-13017952D01*
X16047857Y-12998905D01*
X16047857Y-12827476D01*
X16228809Y-13017952D02*
X16209762Y-13027476D01*
X16171667Y-13027476D01*
X16152619Y-13017952D01*
X16143095Y-12998905D01*
X16143095Y-12922714D01*
X16152619Y-12903667D01*
X16171667Y-12894143D01*
X16209762Y-12894143D01*
X16228809Y-12903667D01*
X16238333Y-12922714D01*
X16238333Y-12941762D01*
X16143095Y-12960809D01*
X16314524Y-13017952D02*
X16333571Y-13027476D01*
X16371667Y-13027476D01*
X16390714Y-13017952D01*
X16400238Y-12998905D01*
X16400238Y-12989381D01*
X16390714Y-12970333D01*
X16371667Y-12960809D01*
X16343095Y-12960809D01*
X16324048Y-12951286D01*
X16314524Y-12932238D01*
X16314524Y-12922714D01*
X16324048Y-12903667D01*
X16343095Y-12894143D01*
X16371667Y-12894143D01*
X16390714Y-12903667D01*
X16466905Y-13103667D02*
X16476428Y-13094143D01*
X16495476Y-13065571D01*
X16505000Y-13046524D01*
X16514524Y-13017952D01*
X16524048Y-12970333D01*
X16524048Y-12932238D01*
X16514524Y-12884619D01*
X16505000Y-12856048D01*
X16495476Y-12837000D01*
X16476428Y-12808428D01*
X16466905Y-12798905D01*
D15*
X11640000Y-13256000D02*
X11695000Y-13201000D01*
X11640000Y-13146000D01*
X11585000Y-13201000D01*
X11640000Y-13256000D01*
D11*
X12057381Y-13291476D02*
X11943095Y-13291476D01*
X12000238Y-13291476D02*
X12000238Y-13091476D01*
X11981190Y-13120048D01*
X11962143Y-13139095D01*
X11943095Y-13148619D01*
X12143095Y-13272428D02*
X12152619Y-13281952D01*
X12143095Y-13291476D01*
X12133571Y-13281952D01*
X12143095Y-13272428D01*
X12143095Y-13291476D01*
X12343095Y-13291476D02*
X12228809Y-13291476D01*
X12285952Y-13291476D02*
X12285952Y-13091476D01*
X12266905Y-13120048D01*
X12247857Y-13139095D01*
X12228809Y-13148619D01*
X12466905Y-13091476D02*
X12485952Y-13091476D01*
X12505000Y-13101000D01*
X12514524Y-13110524D01*
X12524048Y-13129571D01*
X12533571Y-13167667D01*
X12533571Y-13215286D01*
X12524048Y-13253381D01*
X12514524Y-13272428D01*
X12505000Y-13281952D01*
X12485952Y-13291476D01*
X12466905Y-13291476D01*
X12447857Y-13281952D01*
X12438333Y-13272428D01*
X12428809Y-13253381D01*
X12419286Y-13215286D01*
X12419286Y-13167667D01*
X12428809Y-13129571D01*
X12438333Y-13110524D01*
X12447857Y-13101000D01*
X12466905Y-13091476D01*
X12657381Y-13091476D02*
X12676428Y-13091476D01*
X12695476Y-13101000D01*
X12705000Y-13110524D01*
X12714524Y-13129571D01*
X12724048Y-13167667D01*
X12724048Y-13215286D01*
X12714524Y-13253381D01*
X12705000Y-13272428D01*
X12695476Y-13281952D01*
X12676428Y-13291476D01*
X12657381Y-13291476D01*
X12638333Y-13281952D01*
X12628809Y-13272428D01*
X12619286Y-13253381D01*
X12609762Y-13215286D01*
X12609762Y-13167667D01*
X12619286Y-13129571D01*
X12628809Y-13110524D01*
X12638333Y-13101000D01*
X12657381Y-13091476D01*
X12809762Y-13291476D02*
X12809762Y-13158143D01*
X12809762Y-13177190D02*
X12819286Y-13167667D01*
X12838333Y-13158143D01*
X12866905Y-13158143D01*
X12885952Y-13167667D01*
X12895476Y-13186714D01*
X12895476Y-13291476D01*
X12895476Y-13186714D02*
X12905000Y-13167667D01*
X12924048Y-13158143D01*
X12952619Y-13158143D01*
X12971667Y-13167667D01*
X12981190Y-13186714D01*
X12981190Y-13291476D01*
X13076428Y-13291476D02*
X13076428Y-13158143D01*
X13076428Y-13177190D02*
X13085952Y-13167667D01*
X13105000Y-13158143D01*
X13133571Y-13158143D01*
X13152619Y-13167667D01*
X13162143Y-13186714D01*
X13162143Y-13291476D01*
X13162143Y-13186714D02*
X13171667Y-13167667D01*
X13190714Y-13158143D01*
X13219286Y-13158143D01*
X13238333Y-13167667D01*
X13247857Y-13186714D01*
X13247857Y-13291476D01*
X13638333Y-13081952D02*
X13466905Y-13339095D01*
X13895476Y-13091476D02*
X13914524Y-13091476D01*
X13933571Y-13101000D01*
X13943095Y-13110524D01*
X13952619Y-13129571D01*
X13962143Y-13167667D01*
X13962143Y-13215286D01*
X13952619Y-13253381D01*
X13943095Y-13272428D01*
X13933571Y-13281952D01*
X13914524Y-13291476D01*
X13895476Y-13291476D01*
X13876428Y-13281952D01*
X13866905Y-13272428D01*
X13857381Y-13253381D01*
X13847857Y-13215286D01*
X13847857Y-13167667D01*
X13857381Y-13129571D01*
X13866905Y-13110524D01*
X13876428Y-13101000D01*
X13895476Y-13091476D01*
X14047857Y-13272428D02*
X14057381Y-13281952D01*
X14047857Y-13291476D01*
X14038333Y-13281952D01*
X14047857Y-13272428D01*
X14047857Y-13291476D01*
X14181190Y-13091476D02*
X14200238Y-13091476D01*
X14219286Y-13101000D01*
X14228809Y-13110524D01*
X14238333Y-13129571D01*
X14247857Y-13167667D01*
X14247857Y-13215286D01*
X14238333Y-13253381D01*
X14228809Y-13272428D01*
X14219286Y-13281952D01*
X14200238Y-13291476D01*
X14181190Y-13291476D01*
X14162143Y-13281952D01*
X14152619Y-13272428D01*
X14143095Y-13253381D01*
X14133571Y-13215286D01*
X14133571Y-13167667D01*
X14143095Y-13129571D01*
X14152619Y-13110524D01*
X14162143Y-13101000D01*
X14181190Y-13091476D01*
X14419286Y-13158143D02*
X14419286Y-13291476D01*
X14371667Y-13081952D02*
X14324048Y-13224809D01*
X14447857Y-13224809D01*
X14505000Y-13091476D02*
X14628809Y-13091476D01*
X14562143Y-13167667D01*
X14590714Y-13167667D01*
X14609762Y-13177190D01*
X14619286Y-13186714D01*
X14628809Y-13205762D01*
X14628809Y-13253381D01*
X14619286Y-13272428D01*
X14609762Y-13281952D01*
X14590714Y-13291476D01*
X14533571Y-13291476D01*
X14514524Y-13281952D01*
X14505000Y-13272428D01*
X14695476Y-13091476D02*
X14819286Y-13091476D01*
X14752619Y-13167667D01*
X14781190Y-13167667D01*
X14800238Y-13177190D01*
X14809762Y-13186714D01*
X14819286Y-13205762D01*
X14819286Y-13253381D01*
X14809762Y-13272428D01*
X14800238Y-13281952D01*
X14781190Y-13291476D01*
X14724048Y-13291476D01*
X14705000Y-13281952D01*
X14695476Y-13272428D01*
X14895476Y-13091476D02*
X14895476Y-13129571D01*
X14971667Y-13091476D02*
X14971667Y-13129571D01*
X15266905Y-13367667D02*
X15257381Y-13358143D01*
X15238333Y-13329571D01*
X15228809Y-13310524D01*
X15219286Y-13281952D01*
X15209762Y-13234333D01*
X15209762Y-13196238D01*
X15219286Y-13148619D01*
X15228809Y-13120048D01*
X15238333Y-13101000D01*
X15257381Y-13072428D01*
X15266905Y-13062905D01*
X15447857Y-13291476D02*
X15333571Y-13291476D01*
X15390714Y-13291476D02*
X15390714Y-13091476D01*
X15371667Y-13120048D01*
X15352619Y-13139095D01*
X15333571Y-13148619D01*
X15619286Y-13091476D02*
X15581190Y-13091476D01*
X15562143Y-13101000D01*
X15552619Y-13110524D01*
X15533571Y-13139095D01*
X15524048Y-13177190D01*
X15524048Y-13253381D01*
X15533571Y-13272428D01*
X15543095Y-13281952D01*
X15562143Y-13291476D01*
X15600238Y-13291476D01*
X15619286Y-13281952D01*
X15628809Y-13272428D01*
X15638333Y-13253381D01*
X15638333Y-13205762D01*
X15628809Y-13186714D01*
X15619286Y-13177190D01*
X15600238Y-13167667D01*
X15562143Y-13167667D01*
X15543095Y-13177190D01*
X15533571Y-13186714D01*
X15524048Y-13205762D01*
X15876428Y-13291476D02*
X15876428Y-13091476D01*
X15962143Y-13291476D02*
X15962143Y-13186714D01*
X15952619Y-13167667D01*
X15933571Y-13158143D01*
X15905000Y-13158143D01*
X15885952Y-13167667D01*
X15876428Y-13177190D01*
X16085952Y-13291476D02*
X16066905Y-13281952D01*
X16057381Y-13272428D01*
X16047857Y-13253381D01*
X16047857Y-13196238D01*
X16057381Y-13177190D01*
X16066905Y-13167667D01*
X16085952Y-13158143D01*
X16114524Y-13158143D01*
X16133571Y-13167667D01*
X16143095Y-13177190D01*
X16152619Y-13196238D01*
X16152619Y-13253381D01*
X16143095Y-13272428D01*
X16133571Y-13281952D01*
X16114524Y-13291476D01*
X16085952Y-13291476D01*
X16266905Y-13291476D02*
X16247857Y-13281952D01*
X16238333Y-13262905D01*
X16238333Y-13091476D01*
X16419286Y-13281952D02*
X16400238Y-13291476D01*
X16362143Y-13291476D01*
X16343095Y-13281952D01*
X16333571Y-13262905D01*
X16333571Y-13186714D01*
X16343095Y-13167667D01*
X16362143Y-13158143D01*
X16400238Y-13158143D01*
X16419286Y-13167667D01*
X16428809Y-13186714D01*
X16428809Y-13205762D01*
X16333571Y-13224809D01*
X16505000Y-13281952D02*
X16524048Y-13291476D01*
X16562143Y-13291476D01*
X16581190Y-13281952D01*
X16590714Y-13262905D01*
X16590714Y-13253381D01*
X16581190Y-13234333D01*
X16562143Y-13224809D01*
X16533571Y-13224809D01*
X16514524Y-13215286D01*
X16505000Y-13196238D01*
X16505000Y-13186714D01*
X16514524Y-13167667D01*
X16533571Y-13158143D01*
X16562143Y-13158143D01*
X16581190Y-13167667D01*
X16657381Y-13367667D02*
X16666905Y-13358143D01*
X16685952Y-13329571D01*
X16695476Y-13310524D01*
X16705000Y-13281952D01*
X16714524Y-13234333D01*
X16714524Y-13196238D01*
X16705000Y-13148619D01*
X16695476Y-13120048D01*
X16685952Y-13101000D01*
X16666905Y-13072428D01*
X16657381Y-13062905D01*
D16*
X11535000Y-13385000D02*
X11695000Y-13545000D01*
X11695000Y-13385000D02*
X11535000Y-13545000D01*
X11695000Y-13465000D02*
G75*
G03*
X11695000Y-13465000I-80000J0D01*
G01*
D11*
X12057381Y-13555476D02*
X11943095Y-13555476D01*
X12000238Y-13555476D02*
X12000238Y-13355476D01*
X11981190Y-13384048D01*
X11962143Y-13403095D01*
X11943095Y-13412619D01*
X12143095Y-13536428D02*
X12152619Y-13545952D01*
X12143095Y-13555476D01*
X12133571Y-13545952D01*
X12143095Y-13536428D01*
X12143095Y-13555476D01*
X12324048Y-13355476D02*
X12285952Y-13355476D01*
X12266905Y-13365000D01*
X12257381Y-13374524D01*
X12238333Y-13403095D01*
X12228809Y-13441190D01*
X12228809Y-13517381D01*
X12238333Y-13536428D01*
X12247857Y-13545952D01*
X12266905Y-13555476D01*
X12305000Y-13555476D01*
X12324048Y-13545952D01*
X12333571Y-13536428D01*
X12343095Y-13517381D01*
X12343095Y-13469762D01*
X12333571Y-13450714D01*
X12324048Y-13441190D01*
X12305000Y-13431667D01*
X12266905Y-13431667D01*
X12247857Y-13441190D01*
X12238333Y-13450714D01*
X12228809Y-13469762D01*
X12466905Y-13355476D02*
X12485952Y-13355476D01*
X12505000Y-13365000D01*
X12514524Y-13374524D01*
X12524048Y-13393571D01*
X12533571Y-13431667D01*
X12533571Y-13479286D01*
X12524048Y-13517381D01*
X12514524Y-13536428D01*
X12505000Y-13545952D01*
X12485952Y-13555476D01*
X12466905Y-13555476D01*
X12447857Y-13545952D01*
X12438333Y-13536428D01*
X12428809Y-13517381D01*
X12419286Y-13479286D01*
X12419286Y-13431667D01*
X12428809Y-13393571D01*
X12438333Y-13374524D01*
X12447857Y-13365000D01*
X12466905Y-13355476D01*
X12657381Y-13355476D02*
X12676428Y-13355476D01*
X12695476Y-13365000D01*
X12705000Y-13374524D01*
X12714524Y-13393571D01*
X12724048Y-13431667D01*
X12724048Y-13479286D01*
X12714524Y-13517381D01*
X12705000Y-13536428D01*
X12695476Y-13545952D01*
X12676428Y-13555476D01*
X12657381Y-13555476D01*
X12638333Y-13545952D01*
X12628809Y-13536428D01*
X12619286Y-13517381D01*
X12609762Y-13479286D01*
X12609762Y-13431667D01*
X12619286Y-13393571D01*
X12628809Y-13374524D01*
X12638333Y-13365000D01*
X12657381Y-13355476D01*
X12809762Y-13555476D02*
X12809762Y-13422143D01*
X12809762Y-13441190D02*
X12819286Y-13431667D01*
X12838333Y-13422143D01*
X12866905Y-13422143D01*
X12885952Y-13431667D01*
X12895476Y-13450714D01*
X12895476Y-13555476D01*
X12895476Y-13450714D02*
X12905000Y-13431667D01*
X12924048Y-13422143D01*
X12952619Y-13422143D01*
X12971667Y-13431667D01*
X12981190Y-13450714D01*
X12981190Y-13555476D01*
X13076428Y-13555476D02*
X13076428Y-13422143D01*
X13076428Y-13441190D02*
X13085952Y-13431667D01*
X13105000Y-13422143D01*
X13133571Y-13422143D01*
X13152619Y-13431667D01*
X13162143Y-13450714D01*
X13162143Y-13555476D01*
X13162143Y-13450714D02*
X13171667Y-13431667D01*
X13190714Y-13422143D01*
X13219286Y-13422143D01*
X13238333Y-13431667D01*
X13247857Y-13450714D01*
X13247857Y-13555476D01*
X13638333Y-13345952D02*
X13466905Y-13603095D01*
X13895476Y-13355476D02*
X13914524Y-13355476D01*
X13933571Y-13365000D01*
X13943095Y-13374524D01*
X13952619Y-13393571D01*
X13962143Y-13431667D01*
X13962143Y-13479286D01*
X13952619Y-13517381D01*
X13943095Y-13536428D01*
X13933571Y-13545952D01*
X13914524Y-13555476D01*
X13895476Y-13555476D01*
X13876428Y-13545952D01*
X13866905Y-13536428D01*
X13857381Y-13517381D01*
X13847857Y-13479286D01*
X13847857Y-13431667D01*
X13857381Y-13393571D01*
X13866905Y-13374524D01*
X13876428Y-13365000D01*
X13895476Y-13355476D01*
X14047857Y-13536428D02*
X14057381Y-13545952D01*
X14047857Y-13555476D01*
X14038333Y-13545952D01*
X14047857Y-13536428D01*
X14047857Y-13555476D01*
X14181190Y-13355476D02*
X14200238Y-13355476D01*
X14219286Y-13365000D01*
X14228809Y-13374524D01*
X14238333Y-13393571D01*
X14247857Y-13431667D01*
X14247857Y-13479286D01*
X14238333Y-13517381D01*
X14228809Y-13536428D01*
X14219286Y-13545952D01*
X14200238Y-13555476D01*
X14181190Y-13555476D01*
X14162143Y-13545952D01*
X14152619Y-13536428D01*
X14143095Y-13517381D01*
X14133571Y-13479286D01*
X14133571Y-13431667D01*
X14143095Y-13393571D01*
X14152619Y-13374524D01*
X14162143Y-13365000D01*
X14181190Y-13355476D01*
X14419286Y-13355476D02*
X14381190Y-13355476D01*
X14362143Y-13365000D01*
X14352619Y-13374524D01*
X14333571Y-13403095D01*
X14324048Y-13441190D01*
X14324048Y-13517381D01*
X14333571Y-13536428D01*
X14343095Y-13545952D01*
X14362143Y-13555476D01*
X14400238Y-13555476D01*
X14419286Y-13545952D01*
X14428809Y-13536428D01*
X14438333Y-13517381D01*
X14438333Y-13469762D01*
X14428809Y-13450714D01*
X14419286Y-13441190D01*
X14400238Y-13431667D01*
X14362143Y-13431667D01*
X14343095Y-13441190D01*
X14333571Y-13450714D01*
X14324048Y-13469762D01*
X14505000Y-13355476D02*
X14628809Y-13355476D01*
X14562143Y-13431667D01*
X14590714Y-13431667D01*
X14609762Y-13441190D01*
X14619286Y-13450714D01*
X14628809Y-13469762D01*
X14628809Y-13517381D01*
X14619286Y-13536428D01*
X14609762Y-13545952D01*
X14590714Y-13555476D01*
X14533571Y-13555476D01*
X14514524Y-13545952D01*
X14505000Y-13536428D01*
X14752619Y-13355476D02*
X14771667Y-13355476D01*
X14790714Y-13365000D01*
X14800238Y-13374524D01*
X14809762Y-13393571D01*
X14819286Y-13431667D01*
X14819286Y-13479286D01*
X14809762Y-13517381D01*
X14800238Y-13536428D01*
X14790714Y-13545952D01*
X14771667Y-13555476D01*
X14752619Y-13555476D01*
X14733571Y-13545952D01*
X14724048Y-13536428D01*
X14714524Y-13517381D01*
X14705000Y-13479286D01*
X14705000Y-13431667D01*
X14714524Y-13393571D01*
X14724048Y-13374524D01*
X14733571Y-13365000D01*
X14752619Y-13355476D01*
X14895476Y-13355476D02*
X14895476Y-13393571D01*
X14971667Y-13355476D02*
X14971667Y-13393571D01*
X15266905Y-13631667D02*
X15257381Y-13622143D01*
X15238333Y-13593571D01*
X15228809Y-13574524D01*
X15219286Y-13545952D01*
X15209762Y-13498333D01*
X15209762Y-13460238D01*
X15219286Y-13412619D01*
X15228809Y-13384048D01*
X15238333Y-13365000D01*
X15257381Y-13336428D01*
X15266905Y-13326905D01*
X15333571Y-13374524D02*
X15343095Y-13365000D01*
X15362143Y-13355476D01*
X15409762Y-13355476D01*
X15428809Y-13365000D01*
X15438333Y-13374524D01*
X15447857Y-13393571D01*
X15447857Y-13412619D01*
X15438333Y-13441190D01*
X15324048Y-13555476D01*
X15447857Y-13555476D01*
X15685952Y-13555476D02*
X15685952Y-13355476D01*
X15771667Y-13555476D02*
X15771667Y-13450714D01*
X15762143Y-13431667D01*
X15743095Y-13422143D01*
X15714524Y-13422143D01*
X15695476Y-13431667D01*
X15685952Y-13441190D01*
X15895476Y-13555476D02*
X15876428Y-13545952D01*
X15866905Y-13536428D01*
X15857381Y-13517381D01*
X15857381Y-13460238D01*
X15866905Y-13441190D01*
X15876428Y-13431667D01*
X15895476Y-13422143D01*
X15924048Y-13422143D01*
X15943095Y-13431667D01*
X15952619Y-13441190D01*
X15962143Y-13460238D01*
X15962143Y-13517381D01*
X15952619Y-13536428D01*
X15943095Y-13545952D01*
X15924048Y-13555476D01*
X15895476Y-13555476D01*
X16076428Y-13555476D02*
X16057381Y-13545952D01*
X16047857Y-13526905D01*
X16047857Y-13355476D01*
X16228809Y-13545952D02*
X16209762Y-13555476D01*
X16171667Y-13555476D01*
X16152619Y-13545952D01*
X16143095Y-13526905D01*
X16143095Y-13450714D01*
X16152619Y-13431667D01*
X16171667Y-13422143D01*
X16209762Y-13422143D01*
X16228809Y-13431667D01*
X16238333Y-13450714D01*
X16238333Y-13469762D01*
X16143095Y-13488809D01*
X16314524Y-13545952D02*
X16333571Y-13555476D01*
X16371667Y-13555476D01*
X16390714Y-13545952D01*
X16400238Y-13526905D01*
X16400238Y-13517381D01*
X16390714Y-13498333D01*
X16371667Y-13488809D01*
X16343095Y-13488809D01*
X16324048Y-13479286D01*
X16314524Y-13460238D01*
X16314524Y-13450714D01*
X16324048Y-13431667D01*
X16343095Y-13422143D01*
X16371667Y-13422143D01*
X16390714Y-13431667D01*
X16466905Y-13631667D02*
X16476428Y-13622143D01*
X16495476Y-13593571D01*
X16505000Y-13574524D01*
X16514524Y-13545952D01*
X16524048Y-13498333D01*
X16524048Y-13460238D01*
X16514524Y-13412619D01*
X16505000Y-13384048D01*
X16495476Y-13365000D01*
X16476428Y-13336428D01*
X16466905Y-13326905D01*
X11495000Y-13645000D02*
X11695000Y-13845000D01*
X11695000Y-13645000D02*
X11495000Y-13845000D01*
X11595000Y-13645000D02*
X11595000Y-13845000D01*
X11495000Y-13745000D02*
X11695000Y-13745000D01*
X12038333Y-13635476D02*
X12000238Y-13635476D01*
X11981190Y-13645000D01*
X11971667Y-13654524D01*
X11952619Y-13683095D01*
X11943095Y-13721190D01*
X11943095Y-13797381D01*
X11952619Y-13816428D01*
X11962143Y-13825952D01*
X11981190Y-13835476D01*
X12019286Y-13835476D01*
X12038333Y-13825952D01*
X12047857Y-13816428D01*
X12057381Y-13797381D01*
X12057381Y-13749762D01*
X12047857Y-13730714D01*
X12038333Y-13721190D01*
X12019286Y-13711667D01*
X11981190Y-13711667D01*
X11962143Y-13721190D01*
X11952619Y-13730714D01*
X11943095Y-13749762D01*
X12143095Y-13816428D02*
X12152619Y-13825952D01*
X12143095Y-13835476D01*
X12133571Y-13825952D01*
X12143095Y-13816428D01*
X12143095Y-13835476D01*
X12343095Y-13835476D02*
X12228809Y-13835476D01*
X12285952Y-13835476D02*
X12285952Y-13635476D01*
X12266905Y-13664048D01*
X12247857Y-13683095D01*
X12228809Y-13692619D01*
X12466905Y-13635476D02*
X12485952Y-13635476D01*
X12505000Y-13645000D01*
X12514524Y-13654524D01*
X12524048Y-13673571D01*
X12533571Y-13711667D01*
X12533571Y-13759286D01*
X12524048Y-13797381D01*
X12514524Y-13816428D01*
X12505000Y-13825952D01*
X12485952Y-13835476D01*
X12466905Y-13835476D01*
X12447857Y-13825952D01*
X12438333Y-13816428D01*
X12428809Y-13797381D01*
X12419286Y-13759286D01*
X12419286Y-13711667D01*
X12428809Y-13673571D01*
X12438333Y-13654524D01*
X12447857Y-13645000D01*
X12466905Y-13635476D01*
X12657381Y-13635476D02*
X12676428Y-13635476D01*
X12695476Y-13645000D01*
X12705000Y-13654524D01*
X12714524Y-13673571D01*
X12724048Y-13711667D01*
X12724048Y-13759286D01*
X12714524Y-13797381D01*
X12705000Y-13816428D01*
X12695476Y-13825952D01*
X12676428Y-13835476D01*
X12657381Y-13835476D01*
X12638333Y-13825952D01*
X12628809Y-13816428D01*
X12619286Y-13797381D01*
X12609762Y-13759286D01*
X12609762Y-13711667D01*
X12619286Y-13673571D01*
X12628809Y-13654524D01*
X12638333Y-13645000D01*
X12657381Y-13635476D01*
X12809762Y-13835476D02*
X12809762Y-13702143D01*
X12809762Y-13721190D02*
X12819286Y-13711667D01*
X12838333Y-13702143D01*
X12866905Y-13702143D01*
X12885952Y-13711667D01*
X12895476Y-13730714D01*
X12895476Y-13835476D01*
X12895476Y-13730714D02*
X12905000Y-13711667D01*
X12924048Y-13702143D01*
X12952619Y-13702143D01*
X12971667Y-13711667D01*
X12981190Y-13730714D01*
X12981190Y-13835476D01*
X13076428Y-13835476D02*
X13076428Y-13702143D01*
X13076428Y-13721190D02*
X13085952Y-13711667D01*
X13105000Y-13702143D01*
X13133571Y-13702143D01*
X13152619Y-13711667D01*
X13162143Y-13730714D01*
X13162143Y-13835476D01*
X13162143Y-13730714D02*
X13171667Y-13711667D01*
X13190714Y-13702143D01*
X13219286Y-13702143D01*
X13238333Y-13711667D01*
X13247857Y-13730714D01*
X13247857Y-13835476D01*
X13638333Y-13625952D02*
X13466905Y-13883095D01*
X13895476Y-13635476D02*
X13914524Y-13635476D01*
X13933571Y-13645000D01*
X13943095Y-13654524D01*
X13952619Y-13673571D01*
X13962143Y-13711667D01*
X13962143Y-13759286D01*
X13952619Y-13797381D01*
X13943095Y-13816428D01*
X13933571Y-13825952D01*
X13914524Y-13835476D01*
X13895476Y-13835476D01*
X13876428Y-13825952D01*
X13866905Y-13816428D01*
X13857381Y-13797381D01*
X13847857Y-13759286D01*
X13847857Y-13711667D01*
X13857381Y-13673571D01*
X13866905Y-13654524D01*
X13876428Y-13645000D01*
X13895476Y-13635476D01*
X14047857Y-13816428D02*
X14057381Y-13825952D01*
X14047857Y-13835476D01*
X14038333Y-13825952D01*
X14047857Y-13816428D01*
X14047857Y-13835476D01*
X14133571Y-13654524D02*
X14143095Y-13645000D01*
X14162143Y-13635476D01*
X14209762Y-13635476D01*
X14228809Y-13645000D01*
X14238333Y-13654524D01*
X14247857Y-13673571D01*
X14247857Y-13692619D01*
X14238333Y-13721190D01*
X14124048Y-13835476D01*
X14247857Y-13835476D01*
X14419286Y-13702143D02*
X14419286Y-13835476D01*
X14371667Y-13625952D02*
X14324048Y-13768809D01*
X14447857Y-13768809D01*
X14562143Y-13635476D02*
X14581190Y-13635476D01*
X14600238Y-13645000D01*
X14609762Y-13654524D01*
X14619286Y-13673571D01*
X14628809Y-13711667D01*
X14628809Y-13759286D01*
X14619286Y-13797381D01*
X14609762Y-13816428D01*
X14600238Y-13825952D01*
X14581190Y-13835476D01*
X14562143Y-13835476D01*
X14543095Y-13825952D01*
X14533571Y-13816428D01*
X14524048Y-13797381D01*
X14514524Y-13759286D01*
X14514524Y-13711667D01*
X14524048Y-13673571D01*
X14533571Y-13654524D01*
X14543095Y-13645000D01*
X14562143Y-13635476D01*
X14705000Y-13654524D02*
X14714524Y-13645000D01*
X14733571Y-13635476D01*
X14781190Y-13635476D01*
X14800238Y-13645000D01*
X14809762Y-13654524D01*
X14819286Y-13673571D01*
X14819286Y-13692619D01*
X14809762Y-13721190D01*
X14695476Y-13835476D01*
X14819286Y-13835476D01*
X14895476Y-13635476D02*
X14895476Y-13673571D01*
X14971667Y-13635476D02*
X14971667Y-13673571D01*
X15266905Y-13911667D02*
X15257381Y-13902143D01*
X15238333Y-13873571D01*
X15228809Y-13854524D01*
X15219286Y-13825952D01*
X15209762Y-13778333D01*
X15209762Y-13740238D01*
X15219286Y-13692619D01*
X15228809Y-13664048D01*
X15238333Y-13645000D01*
X15257381Y-13616428D01*
X15266905Y-13606905D01*
X15333571Y-13654524D02*
X15343095Y-13645000D01*
X15362143Y-13635476D01*
X15409762Y-13635476D01*
X15428809Y-13645000D01*
X15438333Y-13654524D01*
X15447857Y-13673571D01*
X15447857Y-13692619D01*
X15438333Y-13721190D01*
X15324048Y-13835476D01*
X15447857Y-13835476D01*
X15685952Y-13835476D02*
X15685952Y-13635476D01*
X15771667Y-13835476D02*
X15771667Y-13730714D01*
X15762143Y-13711667D01*
X15743095Y-13702143D01*
X15714524Y-13702143D01*
X15695476Y-13711667D01*
X15685952Y-13721190D01*
X15895476Y-13835476D02*
X15876428Y-13825952D01*
X15866905Y-13816428D01*
X15857381Y-13797381D01*
X15857381Y-13740238D01*
X15866905Y-13721190D01*
X15876428Y-13711667D01*
X15895476Y-13702143D01*
X15924048Y-13702143D01*
X15943095Y-13711667D01*
X15952619Y-13721190D01*
X15962143Y-13740238D01*
X15962143Y-13797381D01*
X15952619Y-13816428D01*
X15943095Y-13825952D01*
X15924048Y-13835476D01*
X15895476Y-13835476D01*
X16076428Y-13835476D02*
X16057381Y-13825952D01*
X16047857Y-13806905D01*
X16047857Y-13635476D01*
X16228809Y-13825952D02*
X16209762Y-13835476D01*
X16171667Y-13835476D01*
X16152619Y-13825952D01*
X16143095Y-13806905D01*
X16143095Y-13730714D01*
X16152619Y-13711667D01*
X16171667Y-13702143D01*
X16209762Y-13702143D01*
X16228809Y-13711667D01*
X16238333Y-13730714D01*
X16238333Y-13749762D01*
X16143095Y-13768809D01*
X16314524Y-13825952D02*
X16333571Y-13835476D01*
X16371667Y-13835476D01*
X16390714Y-13825952D01*
X16400238Y-13806905D01*
X16400238Y-13797381D01*
X16390714Y-13778333D01*
X16371667Y-13768809D01*
X16343095Y-13768809D01*
X16324048Y-13759286D01*
X16314524Y-13740238D01*
X16314524Y-13730714D01*
X16324048Y-13711667D01*
X16343095Y-13702143D01*
X16371667Y-13702143D01*
X16390714Y-13711667D01*
X16466905Y-13911667D02*
X16476428Y-13902143D01*
X16495476Y-13873571D01*
X16505000Y-13854524D01*
X16514524Y-13825952D01*
X16524048Y-13778333D01*
X16524048Y-13740238D01*
X16514524Y-13692619D01*
X16505000Y-13664048D01*
X16495476Y-13645000D01*
X16476428Y-13616428D01*
X16466905Y-13606905D01*
M02*
