%TF.GenerationSoftware,KiCad,Pcbnew,(6.0.7)*%
%TF.CreationDate,2023-01-15T16:16:41-05:00*%
%TF.ProjectId,timer,74696d65-722e-46b6-9963-61645f706362,rev?*%
%TF.SameCoordinates,Original*%
%TF.FileFunction,Copper,L2,Bot*%
%TF.FilePolarity,Positive*%
%FSLAX46Y46*%
G04 Gerber Fmt 4.6, Leading zero omitted, Abs format (unit mm)*
G04 Created by KiCad (PCBNEW (6.0.7)) date 2023-01-15 16:16:41*
%MOMM*%
%LPD*%
G01*
G04 APERTURE LIST*
G04 Aperture macros list*
%AMRoundRect*
0 Rectangle with rounded corners*
0 $1 Rounding radius*
0 $2 $3 $4 $5 $6 $7 $8 $9 X,Y pos of 4 corners*
0 Add a 4 corners polygon primitive as box body*
4,1,4,$2,$3,$4,$5,$6,$7,$8,$9,$2,$3,0*
0 Add four circle primitives for the rounded corners*
1,1,$1+$1,$2,$3*
1,1,$1+$1,$4,$5*
1,1,$1+$1,$6,$7*
1,1,$1+$1,$8,$9*
0 Add four rect primitives between the rounded corners*
20,1,$1+$1,$2,$3,$4,$5,0*
20,1,$1+$1,$4,$5,$6,$7,0*
20,1,$1+$1,$6,$7,$8,$9,0*
20,1,$1+$1,$8,$9,$2,$3,0*%
G04 Aperture macros list end*
%TA.AperFunction,ComponentPad*%
%ADD10RoundRect,0.250000X0.750000X1.050000X-0.750000X1.050000X-0.750000X-1.050000X0.750000X-1.050000X0*%
%TD*%
%TA.AperFunction,ComponentPad*%
%ADD11O,2.000000X2.600000*%
%TD*%
%TA.AperFunction,ComponentPad*%
%ADD12O,1.200000X2.000000*%
%TD*%
%TA.AperFunction,ComponentPad*%
%ADD13C,2.000000*%
%TD*%
%TA.AperFunction,SMDPad,CuDef*%
%ADD14RoundRect,0.150000X-0.512500X-0.150000X0.512500X-0.150000X0.512500X0.150000X-0.512500X0.150000X0*%
%TD*%
%TA.AperFunction,ComponentPad*%
%ADD15C,1.600000*%
%TD*%
%TA.AperFunction,ComponentPad*%
%ADD16O,1.600000X1.600000*%
%TD*%
%TA.AperFunction,ComponentPad*%
%ADD17R,2.000000X2.000000*%
%TD*%
%TA.AperFunction,ComponentPad*%
%ADD18O,2.000000X2.000000*%
%TD*%
%TA.AperFunction,ComponentPad*%
%ADD19C,10.160000*%
%TD*%
%TA.AperFunction,ComponentPad*%
%ADD20O,1.400000X1.400000*%
%TD*%
%TA.AperFunction,ComponentPad*%
%ADD21C,1.400000*%
%TD*%
%TA.AperFunction,ComponentPad*%
%ADD22RoundRect,0.250000X-0.550000X0.550000X-0.550000X-0.550000X0.550000X-0.550000X0.550000X0.550000X0*%
%TD*%
%TA.AperFunction,Conductor*%
%ADD23C,0.250000*%
%TD*%
G04 APERTURE END LIST*
D10*
%TO.P,LS1,1,1*%
%TO.N,Net-(LS1-Pad1)*%
X130480000Y-102540000D03*
D11*
%TO.P,LS1,2,2*%
%TO.N,Net-(BT1-Pad1)*%
X126980000Y-102540000D03*
%TD*%
D12*
%TO.P,v1,30,D0*%
%TO.N,Net-(R5-Pad2)*%
X158420000Y-83490000D03*
%TO.P,v1,29,D1*%
%TO.N,Net-(R3-Pad2)*%
X155880000Y-83490000D03*
%TO.P,v1,28,D2*%
%TO.N,Net-(R2-Pad2)*%
X153340000Y-83490000D03*
%TO.P,v1,27,D3*%
%TO.N,Net-(R1-Pad2)*%
X150800000Y-83490000D03*
%TO.P,v1,26,D4*%
%TO.N,Net-(R6-Pad2)*%
X148260000Y-83490000D03*
%TO.P,v1,25,3V3*%
%TO.N,Net-(SW1-Pad1)*%
X145720000Y-83490000D03*
%TO.P,v1,24,GND*%
%TO.N,Net-(BT1-Pad2)*%
X143180000Y-83490000D03*
%TO.P,v1,23,D5*%
%TO.N,unconnected-(v1-Pad23)*%
X140640000Y-83490000D03*
%TO.P,v1,22,D6*%
%TO.N,unconnected-(v1-Pad22)*%
X138100000Y-83490000D03*
%TO.P,v1,21,D7*%
%TO.N,unconnected-(v1-Pad21)*%
X135560000Y-83490000D03*
%TO.P,v1,20,D8*%
%TO.N,unconnected-(v1-Pad20)*%
X133020000Y-83490000D03*
%TO.P,v1,19,RX*%
%TO.N,unconnected-(v1-Pad19)*%
X130480000Y-83490000D03*
%TO.P,v1,18,TX*%
%TO.N,unconnected-(v1-Pad18)*%
X127940000Y-83490000D03*
%TO.P,v1,17,GND*%
%TO.N,unconnected-(v1-Pad17)*%
X125400000Y-83490000D03*
%TO.P,v1,16,3V3*%
%TO.N,unconnected-(v1-Pad16)*%
X122860000Y-83490000D03*
%TO.P,v1,15,VIN*%
%TO.N,unconnected-(v1-Pad15)*%
X122860000Y-60630000D03*
%TO.P,v1,14,GND*%
%TO.N,unconnected-(v1-Pad14)*%
X125400000Y-60630000D03*
%TO.P,v1,13,RST*%
%TO.N,unconnected-(v1-Pad13)*%
X127940000Y-60630000D03*
%TO.P,v1,12,EN*%
%TO.N,unconnected-(v1-Pad12)*%
X130480000Y-60630000D03*
%TO.P,v1,11,3V3*%
%TO.N,unconnected-(v1-Pad11)*%
X133020000Y-60630000D03*
%TO.P,v1,10,GND*%
%TO.N,unconnected-(v1-Pad10)*%
X135560000Y-60630000D03*
%TO.P,v1,9,SK*%
%TO.N,unconnected-(v1-Pad9)*%
X138100000Y-60630000D03*
%TO.P,v1,8,SO*%
%TO.N,unconnected-(v1-Pad8)*%
X140640000Y-60630000D03*
%TO.P,v1,7,SC*%
%TO.N,unconnected-(v1-Pad7)*%
X143180000Y-60630000D03*
%TO.P,v1,6,S1*%
%TO.N,unconnected-(v1-Pad6)*%
X145720000Y-60630000D03*
%TO.P,v1,5,S2*%
%TO.N,unconnected-(v1-Pad5)*%
X148260000Y-60630000D03*
%TO.P,v1,4,S3*%
%TO.N,unconnected-(v1-Pad4)*%
X150800000Y-60630000D03*
%TO.P,v1,3,VV*%
%TO.N,unconnected-(v1-Pad3)*%
X153340000Y-60630000D03*
%TO.P,v1,2,GND*%
%TO.N,unconnected-(v1-Pad2)*%
X155880000Y-60630000D03*
%TO.P,v1,1,A0*%
%TO.N,unconnected-(v1-Pad1)*%
X158420000Y-60630000D03*
%TD*%
D13*
%TO.P,SW2,2,2*%
%TO.N,Net-(R2-Pad2)*%
X154050000Y-97460000D03*
X147550000Y-97460000D03*
%TO.P,SW2,1,1*%
%TO.N,Net-(SW1-Pad1)*%
X154050000Y-92960000D03*
X147550000Y-92960000D03*
%TD*%
%TO.P,SW1,2,2*%
%TO.N,Net-(R1-Pad2)*%
X142060000Y-97460000D03*
X135560000Y-97460000D03*
%TO.P,SW1,1,1*%
%TO.N,Net-(SW1-Pad1)*%
X135560000Y-92960000D03*
X142060000Y-92960000D03*
%TD*%
D14*
%TO.P,U1,5,SW*%
%TO.N,Net-(U1-Pad5)*%
X169717500Y-87300000D03*
%TD*%
D15*
%TO.P,L1,1,1*%
%TO.N,Net-(U1-Pad6)*%
X201600000Y-94920000D03*
D16*
%TO.P,L1,2,2*%
%TO.N,Net-(U1-Pad1)*%
X188900000Y-94920000D03*
%TD*%
D17*
%TO.P,C2,1*%
%TO.N,Net-(U1-Pad1)*%
X173780000Y-86030000D03*
D18*
%TO.P,C2,2*%
%TO.N,Net-(BT1-Pad2)*%
X188780000Y-86030000D03*
%TD*%
%TO.P,C1,2*%
%TO.N,Net-(U1-Pad6)*%
X199060000Y-90990000D03*
D17*
%TO.P,C1,1*%
%TO.N,Net-(U1-Pad5)*%
X199060000Y-75990000D03*
%TD*%
D19*
%TO.P,BT1,1,+*%
%TO.N,Net-(BT1-Pad1)*%
X170090000Y-64440000D03*
%TO.P,BT1,2,-*%
%TO.N,Net-(BT1-Pad2)*%
X200060000Y-64440000D03*
%TD*%
D20*
%TO.P,R6,2*%
%TO.N,Net-(R6-Pad2)*%
X204140000Y-106350000D03*
D21*
%TO.P,R6,1*%
%TO.N,Net-(Q1-Pad1)*%
X204140000Y-98730000D03*
%TD*%
D20*
%TO.P,R4,2*%
%TO.N,Net-(Q1-Pad1)*%
X199060000Y-98730000D03*
D21*
%TO.P,R4,1*%
%TO.N,Net-(BT1-Pad2)*%
X199060000Y-106350000D03*
%TD*%
D20*
%TO.P,R3,2*%
%TO.N,Net-(R3-Pad2)*%
X159690000Y-102540000D03*
D21*
%TO.P,R3,1*%
%TO.N,Net-(BT1-Pad2)*%
X167310000Y-102540000D03*
%TD*%
D13*
%TO.P,SW3,1,1*%
%TO.N,Net-(R3-Pad2)*%
X166750000Y-97460000D03*
X160250000Y-97460000D03*
%TO.P,SW3,2,2*%
%TO.N,Net-(SW1-Pad1)*%
X166750000Y-92960000D03*
X160250000Y-92960000D03*
%TD*%
D15*
%TO.P,Q1,3,S*%
%TO.N,Net-(BT1-Pad2)*%
X193980000Y-106140000D03*
%TO.P,Q1,2,D*%
%TO.N,Net-(LS1-Pad1)*%
X193980000Y-102540000D03*
D22*
%TO.P,Q1,1,G*%
%TO.N,Net-(Q1-Pad1)*%
X193980000Y-98940000D03*
%TD*%
D13*
%TO.P,SW4,1,1*%
%TO.N,Net-(R5-Pad2)*%
X172950000Y-97460000D03*
X179450000Y-97460000D03*
%TO.P,SW4,2,2*%
%TO.N,Net-(SW1-Pad1)*%
X179450000Y-92960000D03*
X172950000Y-92960000D03*
%TD*%
D21*
%TO.P,R1,1*%
%TO.N,Net-(BT1-Pad2)*%
X135000000Y-102540000D03*
D20*
%TO.P,R1,2*%
%TO.N,Net-(R1-Pad2)*%
X142620000Y-102540000D03*
%TD*%
D21*
%TO.P,R2,1*%
%TO.N,Net-(BT1-Pad2)*%
X155320000Y-102540000D03*
D20*
%TO.P,R2,2*%
%TO.N,Net-(R2-Pad2)*%
X147700000Y-102540000D03*
%TD*%
D21*
%TO.P,R5,1*%
%TO.N,Net-(BT1-Pad2)*%
X180010000Y-102540000D03*
D20*
%TO.P,R5,2*%
%TO.N,Net-(R5-Pad2)*%
X172390000Y-102540000D03*
%TD*%
D23*
%TO.N,Net-(R5-Pad2)*%
X159690000Y-83490000D02*
X158420000Y-83490000D01*
%TO.N,Net-(U1-Pad5)*%
X172390000Y-83490000D02*
X171120000Y-84760000D01*
X174930000Y-83490000D02*
X172390000Y-83490000D01*
X182430000Y-75990000D02*
X174930000Y-83490000D01*
X171120000Y-84760000D02*
X171120000Y-87300000D01*
X171120000Y-87300000D02*
X169850000Y-87300000D01*
X199060000Y-75990000D02*
X182430000Y-75990000D01*
%TO.N,Net-(U1-Pad1)*%
X181280000Y-87300000D02*
X188900000Y-94920000D01*
X181280000Y-86030000D02*
X181280000Y-87300000D01*
X173780000Y-86030000D02*
X181280000Y-86030000D01*
%TO.N,Net-(BT1-Pad1)*%
X162470000Y-56820000D02*
X170090000Y-64440000D01*
X137661852Y-56820000D02*
X162470000Y-56820000D01*
X133945000Y-60536852D02*
X137661852Y-56820000D01*
X133945000Y-61413148D02*
X133945000Y-60536852D01*
X133020000Y-81781852D02*
X133020000Y-62338148D01*
X131405000Y-83396852D02*
X133020000Y-81781852D01*
X131405000Y-84273148D02*
X131405000Y-83396852D01*
X130863148Y-84815000D02*
X131405000Y-84273148D01*
X130480000Y-84815000D02*
X130863148Y-84815000D01*
X130480000Y-99040000D02*
X130480000Y-84815000D01*
X133020000Y-62338148D02*
X133945000Y-61413148D01*
X126980000Y-102540000D02*
X130480000Y-99040000D01*
%TO.N,Net-(R1-Pad2)*%
X150800000Y-87300000D02*
X150800000Y-83490000D01*
X142060000Y-96040000D02*
X150800000Y-87300000D01*
X142060000Y-97460000D02*
X142060000Y-96040000D01*
%TO.N,Net-(R5-Pad2)*%
X172950000Y-96750000D02*
X159690000Y-83490000D01*
X172950000Y-97460000D02*
X172950000Y-96750000D01*
%TO.N,Net-(R3-Pad2)*%
X155880000Y-93090000D02*
X155880000Y-83490000D01*
X160250000Y-97460000D02*
X155880000Y-93090000D01*
%TO.N,Net-(SW1-Pad1)*%
X145720000Y-89300000D02*
X142060000Y-92960000D01*
X145720000Y-83490000D02*
X145720000Y-89300000D01*
%TO.N,Net-(R2-Pad2)*%
X153340000Y-91670000D02*
X153340000Y-83490000D01*
X147550000Y-97460000D02*
X153340000Y-91670000D01*
%TD*%
M02*
