M48
; DRILL file {KiCad (6.0.7)} date Sun Jan 15 16:15:02 2023
; FORMAT={-:-/ absolute / metric / decimal}
; #@! TF.CreationDate,2023-01-15T16:15:02-05:00
; #@! TF.GenerationSoftware,Kicad,Pcbnew,(6.0.7)
; #@! TF.FileFunction,Plated,1,2,PTH
FMAT,2
METRIC
; #@! TA.AperFunction,Plated,PTH,ComponentDrill
T1C0.600
; #@! TA.AperFunction,Plated,PTH,ComponentDrill
T2C0.700
; #@! TA.AperFunction,Plated,PTH,ComponentDrill
T3C0.800
; #@! TA.AperFunction,Plated,PTH,ComponentDrill
T4C1.000
; #@! TA.AperFunction,Plated,PTH,ComponentDrill
T5C1.100
; #@! TA.AperFunction,Plated,PTH,ComponentDrill
T6C1.600
; #@! TA.AperFunction,Plated,PTH,ComponentDrill
T7C6.100
%
G90
G05
T1
X193.98Y-98.94
X193.98Y-102.54
X193.98Y-106.14
T2
X135.0Y-102.54
X142.62Y-102.54
X147.7Y-102.54
X155.32Y-102.54
X159.69Y-102.54
X167.31Y-102.54
X172.39Y-102.54
X180.01Y-102.54
X199.06Y-98.73
X199.06Y-106.35
X204.14Y-98.73
X204.14Y-106.35
T3
X122.86Y-60.63
X122.86Y-83.49
X125.4Y-60.63
X125.4Y-83.49
X127.94Y-60.63
X127.94Y-83.49
X130.48Y-60.63
X130.48Y-83.49
X133.02Y-60.63
X133.02Y-83.49
X135.56Y-60.63
X135.56Y-83.49
X138.1Y-60.63
X138.1Y-83.49
X140.64Y-60.63
X140.64Y-83.49
X143.18Y-60.63
X143.18Y-83.49
X145.72Y-60.63
X145.72Y-83.49
X148.26Y-60.63
X148.26Y-83.49
X150.8Y-60.63
X150.8Y-83.49
X153.34Y-60.63
X153.34Y-83.49
X155.88Y-60.63
X155.88Y-83.49
X158.42Y-60.63
X158.42Y-83.49
X188.9Y-94.92
X201.6Y-94.92
T4
X173.78Y-86.03
X188.78Y-86.03
X199.06Y-75.99
X199.06Y-90.99
T5
X135.56Y-92.96
X135.56Y-97.46
X142.06Y-92.96
X142.06Y-97.46
X147.55Y-92.96
X147.55Y-97.46
X154.05Y-92.96
X154.05Y-97.46
X160.25Y-92.96
X160.25Y-97.46
X166.75Y-92.96
X166.75Y-97.46
X172.95Y-92.96
X172.95Y-97.46
X179.45Y-92.96
X179.45Y-97.46
T6
X126.98Y-102.54
X130.48Y-102.54
T7
X170.09Y-64.44
X200.06Y-64.44
T0
M30
